STARTFONT 2.1
COMMENT http://code.google.com/p/u8glib/
FONT m2icon5
SIZE 5 72 72
FONTBOUNDINGBOX 8 5 0 0
STARTPROPERTIES 11
FOUNDRY "u8glib"
FAMILY_NAME ""
WEIGHT_NAME "Medium"
SLANT "R"
SETWIDTH_NAME "Normal"
SPACING "c"
CHARSET_REGISTRY "ISO-8859"
CHARSET_ENCODING "1"
COPYRIGHT "public domain"
FONT_ASCENT  5
FONT_DESCENT 0
ENDPROPERTIES
CHARS 2
STARTCHAR C101
ENCODING 65
SWIDTH 1800 0
DWIDTH 9 0
BBX 7 5 0 0
BITMAP
1c
fe
82
82
fe
ENDCHAR
STARTCHAR C102
ENCODING 66
SWIDTH 1600 0
DWIDTH 8 0
BBX 4 5 0 0
BITMAP
70
d0
90
90
f0
ENDCHAR
ENDFONT
