STARTFONT 2.1
COMMENT http://code.google.com/p/u8glib/
FONT m2icon_9
SIZE 9 72 72
FONTBOUNDINGBOX 11 9 0 0
STARTPROPERTIES 11
FOUNDRY "Fine"
FAMILY_NAME ""
WEIGHT_NAME "Medium"
SLANT "R"
SETWIDTH_NAME "Normal"
SPACING "c"
CHARSET_REGISTRY "ISO-8859"
CHARSET_ENCODING "1"
COPYRIGHT "public domain"
FONT_ASCENT  9
FONT_DESCENT 0
ENDPROPERTIES
CHARS 2
STARTCHAR C101
ENCODING 65
SWIDTH 1333 0
DWIDTH 12 0
BBX 10 9 0 0
BITMAP
0f80
ffc0
8040
8040
8040
8040
8040
8040
ffc0
ENDCHAR
STARTCHAR C102
ENCODING 66
SWIDTH 777 0
DWIDTH 7 0
BBX 6 9 0 0
BITMAP
3c
54
94
f4
84
84
84
84
fc
ENDCHAR
ENDFONT
