STARTFONT 2.1
COMMENT
COMMENT Converted from OpenType font "FreeUniversal-Bold.ttf" by "otf2bdf 3.0".
COMMENT
FONT -FreeType-FreeUniversal-Bold-R-Normal--20-200-72-72-P-101-ISO10646-1
SIZE 20 72 72
FONTBOUNDINGBOX 31 26 -2 -5
STARTPROPERTIES 19
FOUNDRY "FreeType"
FAMILY_NAME "FreeUniversal"
WEIGHT_NAME "Bold"
SLANT "R"
SETWIDTH_NAME "Normal"
ADD_STYLE_NAME ""
PIXEL_SIZE 20
POINT_SIZE 200
RESOLUTION_X 72
RESOLUTION_Y 72
SPACING "P"
AVERAGE_WIDTH 101
CHARSET_REGISTRY "ISO10646"
CHARSET_ENCODING "1"
FONT_ASCENT 21
FONT_DESCENT 5
COPYRIGHT "FreeUniveral (c) Stephen Wilson 2009    Original Font Sil-Sophia  Copyright (c) SIL International, 1994-2008."
_OTF_FONTFILE "FreeUniversal-Bold.ttf"
_OTF_PSNAME "FreeUniversal-Bold"
ENDPROPERTIES
CHARS 243
STARTCHAR 0020
ENCODING 32
SWIDTH 300 0
DWIDTH 6 0
BBX 0 0 0 0
BITMAP
ENDCHAR
STARTCHAR 0021
ENCODING 33
SWIDTH 400 0
DWIDTH 8 0
BBX 3 14 3 0
BITMAP
E0
E0
E0
E0
E0
E0
E0
E0
E0
E0
00
00
E0
E0
ENDCHAR
STARTCHAR 0022
ENCODING 34
SWIDTH 500 0
DWIDTH 10 0
BBX 8 6 1 8
BITMAP
E7
67
67
67
67
67
ENDCHAR
STARTCHAR 0023
ENCODING 35
SWIDTH 700 0
DWIDTH 14 0
BBX 12 14 1 0
BITMAP
0660
0660
0C60
3FF0
3FF0
18C0
1980
1980
FFE0
FFE0
3300
3300
6300
6600
ENDCHAR
STARTCHAR 0024
ENCODING 36
SWIDTH 600 0
DWIDTH 12 0
BBX 10 17 1 -2
BITMAP
0400
1F00
7F80
7780
E5C0
E400
FC00
7E00
1F80
07C0
05C0
E5C0
E5C0
7F80
3F00
0400
0400
ENDCHAR
STARTCHAR 0025
ENCODING 37
SWIDTH 1000 0
DWIDTH 20 0
BBX 18 14 1 0
BITMAP
3C0400
7E0C00
C31800
C31000
C33000
E76000
7E6700
18CD80
0098C0
0198C0
0318C0
0318C0
060F80
0C0700
ENDCHAR
STARTCHAR 0026
ENCODING 38
SWIDTH 800 0
DWIDTH 16 0
BBX 14 14 1 0
BITMAP
1F00
7F80
71C0
71C0
7380
3F00
1E00
7E38
F730
E3B0
E1F0
E0E0
7FF0
1FBC
ENDCHAR
STARTCHAR 0027
ENCODING 39
SWIDTH 400 0
DWIDTH 8 0
BBX 3 6 3 8
BITMAP
E0
C0
C0
C0
C0
C0
ENDCHAR
STARTCHAR 0028
ENCODING 40
SWIDTH 400 0
DWIDTH 8 0
BBX 4 17 2 -3
BITMAP
30
70
70
60
E0
E0
E0
E0
E0
E0
E0
E0
E0
60
70
70
30
ENDCHAR
STARTCHAR 0029
ENCODING 41
SWIDTH 400 0
DWIDTH 8 0
BBX 4 17 2 -3
BITMAP
C0
C0
E0
E0
60
60
70
70
70
70
70
60
60
E0
E0
C0
C0
ENDCHAR
STARTCHAR 002A
ENCODING 42
SWIDTH 600 0
DWIDTH 12 0
BBX 8 7 2 7
BITMAP
66
3C
18
FF
18
3C
66
ENDCHAR
STARTCHAR 002B
ENCODING 43
SWIDTH 1000 0
DWIDTH 20 0
BBX 12 12 4 0
BITMAP
0200
0200
0200
0200
0200
FFF0
FFF0
0200
0200
0200
0200
0200
ENDCHAR
STARTCHAR 002C
ENCODING 44
SWIDTH 300 0
DWIDTH 6 0
BBX 4 5 1 -2
BITMAP
70
70
60
E0
C0
ENDCHAR
STARTCHAR 002D
ENCODING 45
SWIDTH 350 0
DWIDTH 7 0
BBX 5 3 1 4
BITMAP
F8
F8
F8
ENDCHAR
STARTCHAR 002E
ENCODING 46
SWIDTH 300 0
DWIDTH 6 0
BBX 3 3 2 0
BITMAP
E0
E0
E0
ENDCHAR
STARTCHAR 002F
ENCODING 47
SWIDTH 450 0
DWIDTH 9 0
BBX 6 15 1 -1
BITMAP
0C
0C
0C
0C
18
18
18
30
30
30
60
60
60
60
C0
ENDCHAR
STARTCHAR 0030
ENCODING 48
SWIDTH 550 0
DWIDTH 11 0
BBX 10 14 1 0
BITMAP
1E00
7F00
6180
E1C0
E1C0
E1C0
E1C0
E1C0
E1C0
E1C0
E1C0
6180
7F80
1E00
ENDCHAR
STARTCHAR 0031
ENCODING 49
SWIDTH 550 0
DWIDTH 11 0
BBX 6 14 2 0
BITMAP
1C
7C
FC
DC
1C
1C
1C
1C
1C
1C
1C
1C
1C
1C
ENDCHAR
STARTCHAR 0032
ENCODING 50
SWIDTH 550 0
DWIDTH 11 0
BBX 10 14 1 0
BITMAP
1F00
7F80
61C0
E1C0
01C0
01C0
0380
0780
0F00
1E00
3800
7000
FFC0
FFC0
ENDCHAR
STARTCHAR 0033
ENCODING 51
SWIDTH 550 0
DWIDTH 11 0
BBX 10 14 1 0
BITMAP
3E00
7F00
E380
0380
0380
1F00
1F00
0380
01C0
01C0
E1C0
F380
7F00
3E00
ENDCHAR
STARTCHAR 0034
ENCODING 52
SWIDTH 550 0
DWIDTH 11 0
BBX 11 14 1 0
BITMAP
0780
0F80
0F80
1B80
3B80
3380
7380
6380
E380
FFE0
FFE0
0380
0380
0380
ENDCHAR
STARTCHAR 0035
ENCODING 53
SWIDTH 550 0
DWIDTH 11 0
BBX 10 14 1 0
BITMAP
FF80
FF80
E000
E000
E000
FF00
FF80
E180
01C0
01C0
E1C0
E380
7F00
3E00
ENDCHAR
STARTCHAR 0036
ENCODING 54
SWIDTH 550 0
DWIDTH 11 0
BBX 10 14 1 0
BITMAP
1E00
3F80
6180
6000
E000
DF00
FF80
E180
E1C0
E1C0
E1C0
6180
7F80
1E00
ENDCHAR
STARTCHAR 0037
ENCODING 55
SWIDTH 550 0
DWIDTH 11 0
BBX 10 14 1 0
BITMAP
FFC0
FFC0
01C0
0380
0380
0780
0700
0700
0E00
0E00
1C00
1C00
3C00
3800
ENDCHAR
STARTCHAR 0038
ENCODING 56
SWIDTH 550 0
DWIDTH 11 0
BBX 10 14 1 0
BITMAP
3F00
7F80
E1C0
E1C0
E180
7F00
3F00
7380
E1C0
E1C0
E1C0
E1C0
7F80
3F00
ENDCHAR
STARTCHAR 0039
ENCODING 57
SWIDTH 550 0
DWIDTH 11 0
BBX 10 14 1 0
BITMAP
1E00
7F00
E180
E180
E1C0
E1C0
F3C0
7FC0
19C0
0180
E180
6380
7F00
3E00
ENDCHAR
STARTCHAR 003A
ENCODING 58
SWIDTH 350 0
DWIDTH 7 0
BBX 3 10 3 0
BITMAP
E0
E0
E0
00
00
00
00
E0
E0
E0
ENDCHAR
STARTCHAR 003B
ENCODING 59
SWIDTH 300 0
DWIDTH 6 0
BBX 4 12 1 -2
BITMAP
70
70
70
00
00
00
00
70
60
E0
C0
C0
ENDCHAR
STARTCHAR 003C
ENCODING 60
SWIDTH 1000 0
DWIDTH 20 0
BBX 12 10 4 1
BITMAP
0010
00E0
0380
1C00
E000
C000
3800
0700
01C0
0030
ENDCHAR
STARTCHAR 003D
ENCODING 61
SWIDTH 1000 0
DWIDTH 20 0
BBX 12 5 4 3
BITMAP
FFF0
FFF0
0000
FFF0
FFF0
ENDCHAR
STARTCHAR 003E
ENCODING 62
SWIDTH 1000 0
DWIDTH 20 0
BBX 12 10 4 1
BITMAP
8000
7000
1C00
0380
0070
0030
01C0
0E00
3800
C000
ENDCHAR
STARTCHAR 003F
ENCODING 63
SWIDTH 550 0
DWIDTH 11 0
BBX 9 14 1 0
BITMAP
3E00
7F00
C380
4380
0380
0700
0600
0C00
1800
1800
1800
0000
1800
1800
ENDCHAR
STARTCHAR 0040
ENCODING 64
SWIDTH 1050 0
DWIDTH 21 0
BBX 19 18 1 -4
BITMAP
01F800
0FFE00
1E0780
3803C0
71FDC0
73FCE0
E71CE0
E71CE0
E71CE0
E71CE0
E71CE0
E73CC0
73FFC0
71E780
380000
1E0400
0FFC00
03FC00
ENDCHAR
STARTCHAR 0041
ENCODING 65
SWIDTH 700 0
DWIDTH 14 0
BBX 14 14 0 0
BITMAP
0780
0780
07C0
0FC0
0EC0
1CE0
1CE0
1C60
3870
3FF0
3FF8
7038
7038
E01C
ENDCHAR
STARTCHAR 0042
ENCODING 66
SWIDTH 650 0
DWIDTH 13 0
BBX 11 14 1 0
BITMAP
FF00
FF80
E1C0
E1C0
E1C0
E380
FF00
FF80
E0C0
E0E0
E0E0
E0E0
FFC0
FF00
ENDCHAR
STARTCHAR 0043
ENCODING 67
SWIDTH 750 0
DWIDTH 15 0
BBX 13 14 1 0
BITMAP
0F80
3FE0
7070
6070
E000
E000
E000
E000
E000
E078
6070
70F0
3FE0
0F80
ENDCHAR
STARTCHAR 0044
ENCODING 68
SWIDTH 700 0
DWIDTH 14 0
BBX 12 14 1 0
BITMAP
FF00
FFC0
E1E0
E0E0
E070
E070
E070
E070
E070
E070
E0E0
E1E0
FFC0
FF00
ENDCHAR
STARTCHAR 0045
ENCODING 69
SWIDTH 600 0
DWIDTH 12 0
BBX 10 14 1 0
BITMAP
FFC0
FFC0
E000
E000
E000
E000
FF80
FF80
E000
E000
E000
E000
FFC0
FFC0
ENDCHAR
STARTCHAR 0046
ENCODING 70
SWIDTH 550 0
DWIDTH 11 0
BBX 9 14 1 0
BITMAP
FF80
FF80
E000
E000
E000
E000
FF80
FF80
E000
E000
E000
E000
E000
E000
ENDCHAR
STARTCHAR 0047
ENCODING 71
SWIDTH 750 0
DWIDTH 15 0
BBX 13 14 1 0
BITMAP
0FC0
1FF0
3838
7038
E000
E000
E1F8
E1F8
E038
E038
7038
7838
3FF8
0FF0
ENDCHAR
STARTCHAR 0048
ENCODING 72
SWIDTH 700 0
DWIDTH 14 0
BBX 12 14 1 0
BITMAP
E070
E070
E070
E070
E070
E070
FFF0
FFF0
E070
E070
E070
E070
E070
E070
ENDCHAR
STARTCHAR 0049
ENCODING 73
SWIDTH 250 0
DWIDTH 5 0
BBX 3 14 1 0
BITMAP
E0
E0
E0
E0
E0
E0
E0
E0
E0
E0
E0
E0
E0
E0
ENDCHAR
STARTCHAR 004A
ENCODING 74
SWIDTH 600 0
DWIDTH 12 0
BBX 10 14 1 0
BITMAP
01C0
01C0
01C0
01C0
01C0
01C0
01C0
01C0
01C0
E1C0
E1C0
F3C0
7F80
3E00
ENDCHAR
STARTCHAR 004B
ENCODING 75
SWIDTH 650 0
DWIDTH 13 0
BBX 11 14 1 0
BITMAP
E1E0
E3C0
E380
E700
EE00
FC00
FC00
FE00
EE00
E700
E780
E3C0
E1C0
E0E0
ENDCHAR
STARTCHAR 004C
ENCODING 76
SWIDTH 550 0
DWIDTH 11 0
BBX 10 14 1 0
BITMAP
E000
E000
E000
E000
E000
E000
E000
E000
E000
E000
E000
E000
FFC0
FFC0
ENDCHAR
STARTCHAR 004D
ENCODING 77
SWIDTH 900 0
DWIDTH 18 0
BBX 16 14 1 0
BITMAP
F81F
F81F
FC3F
FC3F
FC37
EC77
EE77
EE67
E6E7
E7E7
E7C7
E3C7
E3C7
E387
ENDCHAR
STARTCHAR 004E
ENCODING 78
SWIDTH 750 0
DWIDTH 15 0
BBX 13 14 1 0
BITMAP
F038
F838
F838
FC38
EE38
EE38
E738
E738
E3B8
E3B8
E1F8
E1F8
E0F8
E0F8
ENDCHAR
STARTCHAR 004F
ENCODING 79
SWIDTH 800 0
DWIDTH 16 0
BBX 14 14 1 0
BITMAP
0FC0
3FF0
7070
6038
E018
E01C
E01C
E01C
E01C
E018
6038
7070
3FF0
0FC0
ENDCHAR
STARTCHAR 0050
ENCODING 80
SWIDTH 650 0
DWIDTH 13 0
BBX 11 14 1 0
BITMAP
FF00
FFC0
E1C0
E0E0
E0E0
E0E0
E1C0
FFC0
FF00
E000
E000
E000
E000
E000
ENDCHAR
STARTCHAR 0051
ENCODING 81
SWIDTH 850 0
DWIDTH 17 0
BBX 15 14 1 0
BITMAP
0FC0
3FE0
7070
6038
E018
E01C
E01C
E01C
E01C
E018
6038
7078
3FFE
0FFE
ENDCHAR
STARTCHAR 0052
ENCODING 82
SWIDTH 650 0
DWIDTH 13 0
BBX 11 14 1 0
BITMAP
FF80
FFC0
E0E0
E0E0
E0E0
E0E0
FF80
FFC0
E1C0
E0E0
E0E0
E0E0
E0E0
E060
ENDCHAR
STARTCHAR 0053
ENCODING 83
SWIDTH 700 0
DWIDTH 14 0
BBX 12 14 1 0
BITMAP
1F80
3FC0
60E0
E0E0
E000
FC00
7F80
1FE0
03E0
0070
E070
E060
7FC0
1F80
ENDCHAR
STARTCHAR 0054
ENCODING 84
SWIDTH 700 0
DWIDTH 14 0
BBX 12 14 1 0
BITMAP
FFF0
FFF0
0E00
0E00
0E00
0E00
0E00
0E00
0E00
0E00
0E00
0E00
0E00
0E00
ENDCHAR
STARTCHAR 0055
ENCODING 85
SWIDTH 700 0
DWIDTH 14 0
BBX 12 14 1 0
BITMAP
E070
E070
E070
E070
E070
E070
E070
E070
E070
E070
E070
70E0
3FC0
1F80
ENDCHAR
STARTCHAR 0056
ENCODING 86
SWIDTH 750 0
DWIDTH 15 0
BBX 14 14 0 0
BITMAP
F01C
701C
703C
3838
3838
3870
1C70
1C70
1EE0
0EE0
0FC0
07C0
07C0
0780
ENDCHAR
STARTCHAR 0057
ENCODING 87
SWIDTH 1000 0
DWIDTH 20 0
BBX 20 14 0 0
BITMAP
F0F0F0
70F0E0
70F0E0
71F8E0
71F8E0
3999C0
3999C0
3B9DC0
3B9DC0
1B0D80
1F0F80
1F0F80
1F0F80
0E0700
ENDCHAR
STARTCHAR 0058
ENCODING 88
SWIDTH 700 0
DWIDTH 14 0
BBX 12 14 1 0
BITMAP
E070
70E0
78E0
39C0
1F80
1F00
0F00
0F00
1F80
3BC0
39C0
70E0
E0F0
E070
ENDCHAR
STARTCHAR 0059
ENCODING 89
SWIDTH 650 0
DWIDTH 13 0
BBX 12 14 0 0
BITMAP
F070
70F0
38E0
38E0
1DC0
1DC0
0F80
0F00
0700
0700
0700
0700
0700
0700
ENDCHAR
STARTCHAR 005A
ENCODING 90
SWIDTH 650 0
DWIDTH 13 0
BBX 11 14 1 0
BITMAP
7FE0
7FE0
01E0
03C0
0380
0780
0F00
1E00
1E00
3C00
7800
F800
FFE0
FFE0
ENDCHAR
STARTCHAR 005B
ENCODING 91
SWIDTH 400 0
DWIDTH 8 0
BBX 5 18 2 -4
BITMAP
F8
F8
E0
E0
E0
E0
E0
E0
E0
E0
E0
E0
E0
E0
E0
E0
F8
F8
ENDCHAR
STARTCHAR 005C
ENCODING 92
SWIDTH 450 0
DWIDTH 9 0
BBX 6 15 1 -1
BITMAP
C0
C0
60
60
60
30
30
30
10
18
18
18
0C
0C
0C
ENDCHAR
STARTCHAR 005D
ENCODING 93
SWIDTH 400 0
DWIDTH 8 0
BBX 5 18 2 -4
BITMAP
F8
F8
38
38
38
38
38
38
38
38
38
38
38
38
38
38
F8
F8
ENDCHAR
STARTCHAR 005E
ENCODING 94
SWIDTH 1000 0
DWIDTH 20 0
BBX 10 12 5 0
BITMAP
0C00
0C00
0C00
1200
1200
3300
2100
2100
4080
4080
C0C0
8040
ENDCHAR
STARTCHAR 005F
ENCODING 95
SWIDTH 500 0
DWIDTH 10 0
BBX 10 2 0 -3
BITMAP
FFC0
FFC0
ENDCHAR
STARTCHAR 0060
ENCODING 96
SWIDTH 250 0
DWIDTH 5 0
BBX 5 4 -1 12
BITMAP
E0
70
30
18
ENDCHAR
STARTCHAR 0061
ENCODING 97
SWIDTH 550 0
DWIDTH 11 0
BBX 9 10 1 0
BITMAP
3E00
7F80
E380
1F80
7F80
E380
E380
E380
FF80
3980
ENDCHAR
STARTCHAR 0062
ENCODING 98
SWIDTH 600 0
DWIDTH 12 0
BBX 10 14 1 0
BITMAP
E000
E000
E000
E000
EF00
FF80
E1C0
E1C0
E1C0
E1C0
E1C0
E180
FF80
EF00
ENDCHAR
STARTCHAR 0063
ENCODING 99
SWIDTH 550 0
DWIDTH 11 0
BBX 9 10 1 0
BITMAP
3E00
7F00
E380
E380
E000
E000
E380
E380
7F00
3E00
ENDCHAR
STARTCHAR 0064
ENCODING 100
SWIDTH 600 0
DWIDTH 12 0
BBX 10 14 1 0
BITMAP
01C0
01C0
01C0
01C0
3DC0
7FC0
E1C0
E1C0
E1C0
E1C0
E1C0
E1C0
7FC0
3DC0
ENDCHAR
STARTCHAR 0065
ENCODING 101
SWIDTH 550 0
DWIDTH 11 0
BBX 9 10 1 0
BITMAP
1E00
7F00
E380
E380
FF80
FF80
E000
E380
7F80
3E00
ENDCHAR
STARTCHAR 0066
ENCODING 102
SWIDTH 400 0
DWIDTH 8 0
BBX 7 14 1 0
BITMAP
1E
3E
38
38
FE
FE
38
38
38
38
38
38
38
38
ENDCHAR
STARTCHAR 0067
ENCODING 103
SWIDTH 600 0
DWIDTH 12 0
BBX 10 14 1 -4
BITMAP
3DC0
7FC0
71C0
E1C0
E1C0
E1C0
E1C0
E1C0
7FC0
3DC0
01C0
61C0
7F80
3F00
ENDCHAR
STARTCHAR 0068
ENCODING 104
SWIDTH 550 0
DWIDTH 11 0
BBX 9 14 1 0
BITMAP
E000
E000
E000
E000
EF00
FF80
E380
E380
E380
E380
E380
E380
E380
E380
ENDCHAR
STARTCHAR 0069
ENCODING 105
SWIDTH 250 0
DWIDTH 5 0
BBX 3 14 1 0
BITMAP
E0
E0
E0
00
E0
E0
E0
E0
E0
E0
E0
E0
E0
E0
ENDCHAR
STARTCHAR 006A
ENCODING 106
SWIDTH 350 0
DWIDTH 7 0
BBX 4 18 2 -4
BITMAP
70
70
70
00
70
70
70
70
70
70
70
70
70
70
70
70
F0
E0
ENDCHAR
STARTCHAR 006B
ENCODING 107
SWIDTH 550 0
DWIDTH 11 0
BBX 9 14 1 0
BITMAP
E000
E000
E000
E000
E780
E700
EE00
FC00
FC00
FC00
EE00
E700
E700
E380
ENDCHAR
STARTCHAR 006C
ENCODING 108
SWIDTH 250 0
DWIDTH 5 0
BBX 3 14 1 0
BITMAP
E0
E0
E0
E0
E0
E0
E0
E0
E0
E0
E0
E0
E0
E0
ENDCHAR
STARTCHAR 006D
ENCODING 109
SWIDTH 900 0
DWIDTH 18 0
BBX 15 10 1 0
BITMAP
EF3C
FFFE
E3CE
E386
E386
E386
E386
E386
E386
E386
ENDCHAR
STARTCHAR 006E
ENCODING 110
SWIDTH 550 0
DWIDTH 11 0
BBX 9 10 1 0
BITMAP
EF00
FF80
E380
E380
E380
E380
E380
E380
E380
E380
ENDCHAR
STARTCHAR 006F
ENCODING 111
SWIDTH 600 0
DWIDTH 12 0
BBX 10 10 1 0
BITMAP
1E00
7F80
6180
E1C0
E1C0
E1C0
E1C0
6180
7F80
1E00
ENDCHAR
STARTCHAR 0070
ENCODING 112
SWIDTH 600 0
DWIDTH 12 0
BBX 10 14 1 -4
BITMAP
EF00
FF80
E180
E1C0
E1C0
E1C0
E1C0
E1C0
FF80
EF00
E000
E000
E000
E000
ENDCHAR
STARTCHAR 0071
ENCODING 113
SWIDTH 600 0
DWIDTH 12 0
BBX 10 14 1 -4
BITMAP
3DC0
7FC0
E1C0
E1C0
E1C0
E1C0
E1C0
E1C0
7FC0
3DC0
01C0
01C0
01C0
01C0
ENDCHAR
STARTCHAR 0072
ENCODING 114
SWIDTH 400 0
DWIDTH 8 0
BBX 6 10 1 0
BITMAP
EC
FC
F0
E0
E0
E0
E0
E0
E0
E0
ENDCHAR
STARTCHAR 0073
ENCODING 115
SWIDTH 550 0
DWIDTH 11 0
BBX 9 10 1 0
BITMAP
3E00
FF00
E380
E000
7E00
1F00
0380
E380
FF00
3E00
ENDCHAR
STARTCHAR 0074
ENCODING 116
SWIDTH 450 0
DWIDTH 9 0
BBX 7 13 1 0
BITMAP
08
38
38
FE
FE
38
38
38
38
38
38
3E
1E
ENDCHAR
STARTCHAR 0075
ENCODING 117
SWIDTH 550 0
DWIDTH 11 0
BBX 9 10 1 0
BITMAP
E380
E380
E380
E380
E380
E380
E380
E380
FF80
7B80
ENDCHAR
STARTCHAR 0076
ENCODING 118
SWIDTH 550 0
DWIDTH 11 0
BBX 11 10 0 0
BITMAP
E0E0
71C0
71C0
3180
3B80
3B80
1B00
1F00
1F00
0E00
ENDCHAR
STARTCHAR 0077
ENCODING 119
SWIDTH 850 0
DWIDTH 17 0
BBX 17 10 0 0
BITMAP
E1C380
61E300
73E700
736700
337700
3F7600
3F3E00
3E3E00
1E3C00
1E1C00
ENDCHAR
STARTCHAR 0078
ENCODING 120
SWIDTH 550 0
DWIDTH 11 0
BBX 9 10 1 0
BITMAP
E380
7300
7700
3E00
1C00
3E00
3E00
7700
E380
E380
ENDCHAR
STARTCHAR 0079
ENCODING 121
SWIDTH 550 0
DWIDTH 11 0
BBX 11 14 0 -4
BITMAP
E0E0
71C0
71C0
3980
3B80
3B80
1F00
1F00
0F00
0E00
0E00
0E00
1C00
1C00
ENDCHAR
STARTCHAR 007A
ENCODING 122
SWIDTH 500 0
DWIDTH 10 0
BBX 8 10 1 0
BITMAP
FF
FF
07
0E
1C
38
70
E0
FF
FF
ENDCHAR
STARTCHAR 007B
ENCODING 123
SWIDTH 500 0
DWIDTH 10 0
BBX 7 19 2 -5
BITMAP
0E
3E
38
38
38
38
38
30
F0
C0
F0
70
38
38
38
38
38
3E
0E
ENDCHAR
STARTCHAR 007C
ENCODING 124
SWIDTH 350 0
DWIDTH 7 0
BBX 1 21 3 -5
BITMAP
80
80
80
80
80
80
80
80
80
80
80
80
80
80
80
80
80
80
80
80
80
ENDCHAR
STARTCHAR 007D
ENCODING 125
SWIDTH 500 0
DWIDTH 10 0
BBX 7 19 2 -5
BITMAP
E0
F0
38
38
38
38
38
38
1C
06
1C
38
38
38
38
38
38
F0
E0
ENDCHAR
STARTCHAR 007E
ENCODING 126
SWIDTH 550 0
DWIDTH 11 0
BBX 11 3 0 4
BITMAP
3060
7FC0
C780
ENDCHAR
STARTCHAR 00A0
ENCODING 160
SWIDTH 300 0
DWIDTH 6 0
BBX 0 0 0 0
BITMAP
ENDCHAR
STARTCHAR 00A1
ENCODING 161
SWIDTH 450 0
DWIDTH 9 0
BBX 3 14 3 -4
BITMAP
E0
E0
00
00
E0
E0
E0
E0
E0
E0
E0
E0
E0
E0
ENDCHAR
STARTCHAR 00A2
ENCODING 162
SWIDTH 550 0
DWIDTH 11 0
BBX 9 14 1 -2
BITMAP
0200
0200
3E00
7F00
E780
E780
E800
E800
EB80
F380
7F00
3E00
2000
2000
ENDCHAR
STARTCHAR 00A3
ENCODING 163
SWIDTH 600 0
DWIDTH 12 0
BBX 10 14 1 0
BITMAP
1F00
3FC0
71C0
7000
7000
FE00
FE00
7000
7000
7000
7000
7000
FFC0
FFC0
ENDCHAR
STARTCHAR 00A4
ENCODING 164
SWIDTH 600 0
DWIDTH 12 0
BBX 10 10 1 3
BITMAP
8040
5E80
2100
4080
4080
4080
4080
2100
5E80
8040
ENDCHAR
STARTCHAR 00A5
ENCODING 165
SWIDTH 650 0
DWIDTH 13 0
BBX 11 14 1 0
BITMAP
E0E0
E1C0
71C0
7180
FBE0
FBE0
1F00
FFE0
FFE0
0E00
0E00
0E00
0E00
0E00
ENDCHAR
STARTCHAR 00A6
ENCODING 166
SWIDTH 350 0
DWIDTH 7 0
BBX 1 18 3 -4
BITMAP
80
80
80
80
80
80
80
80
00
00
80
80
80
80
80
80
80
80
ENDCHAR
STARTCHAR 00A7
ENCODING 167
SWIDTH 500 0
DWIDTH 10 0
BBX 8 18 1 -4
BITMAP
3E
7E
E0
E0
70
3C
7E
E7
E7
E7
FE
7C
1E
07
07
87
FE
38
ENDCHAR
STARTCHAR 00A8
ENCODING 168
SWIDTH 350 0
DWIDTH 7 0
BBX 7 2 0 12
BITMAP
EE
EE
ENDCHAR
STARTCHAR 00A9
ENCODING 169
SWIDTH 850 0
DWIDTH 17 0
BBX 15 14 1 0
BITMAP
07C0
1FF0
3798
6FCC
CCE4
9C02
9C02
9CE2
8CE2
CFC6
4784
2018
1C70
0FC0
ENDCHAR
STARTCHAR 00AA
ENCODING 170
SWIDTH 400 0
DWIDTH 8 0
BBX 7 9 1 5
BITMAP
78
CC
7C
CC
CC
FC
24
00
FE
ENDCHAR
STARTCHAR 00AB
ENCODING 171
SWIDTH 600 0
DWIDTH 12 0
BBX 10 8 1 1
BITMAP
39C0
7180
7380
E700
E700
7380
7180
39C0
ENDCHAR
STARTCHAR 00AC
ENCODING 172
SWIDTH 650 0
DWIDTH 13 0
BBX 11 5 1 4
BITMAP
FFE0
FFE0
0020
0020
0020
ENDCHAR
STARTCHAR 00AE
ENCODING 174
SWIDTH 850 0
DWIDTH 17 0
BBX 15 14 1 0
BITMAP
07C0
1FF0
3F98
6FEC
CC64
8C62
8FC2
8FC2
8C62
CC66
4C64
2018
1C70
0FC0
ENDCHAR
STARTCHAR 00AF
ENCODING 175
SWIDTH 300 0
DWIDTH 6 0
BBX 6 2 0 12
BITMAP
FC
FC
ENDCHAR
STARTCHAR 00B0
ENCODING 176
SWIDTH 350 0
DWIDTH 7 0
BBX 5 5 1 9
BITMAP
70
88
88
88
70
ENDCHAR
STARTCHAR 00B1
ENCODING 177
SWIDTH 1000 0
DWIDTH 20 0
BBX 12 12 4 0
BITMAP
0200
0200
0200
FFF0
FFF0
0200
0200
0200
0000
0000
FFF0
FFF0
ENDCHAR
STARTCHAR 00B2
ENCODING 178
SWIDTH 400 0
DWIDTH 8 0
BBX 6 8 1 6
BITMAP
78
CC
0C
18
30
E0
FC
FC
ENDCHAR
STARTCHAR 00B3
ENCODING 179
SWIDTH 400 0
DWIDTH 8 0
BBX 6 7 1 7
BITMAP
78
CC
0C
30
0C
CC
78
ENDCHAR
STARTCHAR 00B4
ENCODING 180
SWIDTH 200 0
DWIDTH 4 0
BBX 4 4 1 12
BITMAP
30
60
60
C0
ENDCHAR
STARTCHAR 00B6
ENCODING 182
SWIDTH 550 0
DWIDTH 11 0
BBX 9 17 1 -3
BITMAP
3F80
7900
F900
F900
F900
F900
7900
0900
0900
0900
0900
0900
0900
0900
0900
0900
0900
ENDCHAR
STARTCHAR 00B7
ENCODING 183
SWIDTH 300 0
DWIDTH 6 0
BBX 3 3 2 5
BITMAP
E0
E0
E0
ENDCHAR
STARTCHAR 00B8
ENCODING 184
SWIDTH 250 0
DWIDTH 5 0
BBX 5 5 1 -5
BITMAP
40
70
18
18
F0
ENDCHAR
STARTCHAR 00B9
ENCODING 185
SWIDTH 300 0
DWIDTH 6 0
BBX 4 8 1 6
BITMAP
30
F0
30
30
30
30
30
30
ENDCHAR
STARTCHAR 00BA
ENCODING 186
SWIDTH 450 0
DWIDTH 9 0
BBX 7 9 1 5
BITMAP
38
44
C6
C6
C6
44
38
00
FE
ENDCHAR
STARTCHAR 00BB
ENCODING 187
SWIDTH 600 0
DWIDTH 12 0
BBX 10 8 1 1
BITMAP
E700
6380
7380
39C0
39C0
7380
6380
E700
ENDCHAR
STARTCHAR 00BC
ENCODING 188
SWIDTH 800 0
DWIDTH 16 0
BBX 14 14 1 0
BITMAP
7030
F030
3060
30C0
30C0
3180
319C
333C
063C
066C
0CCC
18FC
180C
300C
ENDCHAR
STARTCHAR 00BD
ENCODING 189
SWIDTH 850 0
DWIDTH 17 0
BBX 15 14 1 0
BITMAP
7030
F020
3060
30C0
30C0
3180
333C
3366
0606
0C0E
0C1C
1830
307E
307E
ENDCHAR
STARTCHAR 00BE
ENCODING 190
SWIDTH 800 0
DWIDTH 16 0
BBX 14 14 1 0
BITMAP
7818
CC30
0C30
3060
0CC0
CCC0
799C
01BC
033C
066C
06CC
0CFC
080C
180C
ENDCHAR
STARTCHAR 00BF
ENCODING 191
SWIDTH 550 0
DWIDTH 11 0
BBX 9 14 1 -4
BITMAP
0E00
0E00
0000
0E00
0E00
0E00
3C00
7000
E000
E000
E180
E180
7F80
3E00
ENDCHAR
STARTCHAR 00C0
ENCODING 192
SWIDTH 700 0
DWIDTH 14 0
BBX 14 20 0 0
BITMAP
0C00
0E00
0600
0300
0000
0000
0780
0780
07C0
0FC0
0EC0
1CE0
1CE0
1C60
3870
3FF0
3FF8
7038
7038
E01C
ENDCHAR
STARTCHAR 00C1
ENCODING 193
SWIDTH 700 0
DWIDTH 14 0
BBX 14 20 0 0
BITMAP
00C0
01C0
0180
0300
0000
0000
0780
0780
07C0
0FC0
0EC0
1CE0
1CE0
1C60
3870
3FF0
3FF8
7038
7038
E01C
ENDCHAR
STARTCHAR 00C2
ENCODING 194
SWIDTH 700 0
DWIDTH 14 0
BBX 14 20 0 0
BITMAP
0380
0780
06C0
0CC0
0000
0000
0780
0780
07C0
0FC0
0EC0
1CE0
1CE0
1C60
3870
3FF0
3FF8
7038
7038
E01C
ENDCHAR
STARTCHAR 00C3
ENCODING 195
SWIDTH 700 0
DWIDTH 14 0
BBX 14 19 0 0
BITMAP
0640
0FC0
0880
0000
0000
0780
0780
07C0
0FC0
0EC0
1CE0
1CE0
1C60
3870
3FF0
3FF8
7038
7038
E01C
ENDCHAR
STARTCHAR 00C4
ENCODING 196
SWIDTH 750 0
DWIDTH 15 0
BBX 14 19 0 0
BITMAP
0EE0
0EE0
0000
0000
0000
0380
0780
07C0
07C0
0EC0
0EE0
1CE0
1C70
1C70
3FF8
3FF8
7038
701C
E01C
ENDCHAR
STARTCHAR 00C5
ENCODING 197
SWIDTH 750 0
DWIDTH 15 0
BBX 13 21 1 0
BITMAP
0700
0880
0880
0880
0700
0000
0000
0700
0F80
0F80
1DC0
1DC0
1DC0
38E0
38E0
3060
7FF0
7FF0
E038
E038
E038
ENDCHAR
STARTCHAR 00C6
ENCODING 198
SWIDTH 1000 0
DWIDTH 20 0
BBX 19 14 0 0
BITMAP
00FFE0
01FFE0
03F000
037000
077000
077000
0E7FC0
0E7FC0
1C7000
1FF000
3FF000
707000
707FE0
E07FE0
ENDCHAR
STARTCHAR 00C7
ENCODING 199
SWIDTH 750 0
DWIDTH 15 0
BBX 13 18 1 -4
BITMAP
0F80
3FE0
70F0
6070
E000
E000
E000
E000
E000
E078
6070
70F0
3FE0
1F80
0400
0780
0180
0F00
ENDCHAR
STARTCHAR 00C8
ENCODING 200
SWIDTH 600 0
DWIDTH 12 0
BBX 10 20 1 0
BITMAP
3000
3800
1800
0C00
0000
0000
FFC0
FFC0
E000
E000
E000
E000
FF80
FF80
E000
E000
E000
E000
FFC0
FFC0
ENDCHAR
STARTCHAR 00C9
ENCODING 201
SWIDTH 600 0
DWIDTH 12 0
BBX 10 20 1 0
BITMAP
0700
0600
0C00
0800
0000
0000
FFC0
FFC0
E000
E000
E000
E000
FF80
FF80
E000
E000
E000
E000
FFC0
FFC0
ENDCHAR
STARTCHAR 00CA
ENCODING 202
SWIDTH 600 0
DWIDTH 12 0
BBX 10 20 1 0
BITMAP
1C00
1E00
3600
2300
0000
0000
FFC0
FFC0
E000
E000
E000
E000
FF80
FF80
E000
E000
E000
E000
FFC0
FFC0
ENDCHAR
STARTCHAR 00CB
ENCODING 203
SWIDTH 600 0
DWIDTH 12 0
BBX 10 19 1 0
BITMAP
7700
7700
0000
0000
0000
FFC0
FFC0
E000
E000
E000
E000
FF80
FF80
E000
E000
E000
E000
FFC0
FFC0
ENDCHAR
STARTCHAR 00CC
ENCODING 204
SWIDTH 250 0
DWIDTH 5 0
BBX 5 20 -1 0
BITMAP
E0
60
30
10
00
00
38
38
38
38
38
38
38
38
38
38
38
38
38
38
ENDCHAR
STARTCHAR 00CD
ENCODING 205
SWIDTH 250 0
DWIDTH 5 0
BBX 4 20 1 0
BITMAP
30
70
60
C0
00
00
E0
E0
E0
E0
E0
E0
E0
E0
E0
E0
E0
E0
E0
E0
ENDCHAR
STARTCHAR 00CE
ENCODING 206
SWIDTH 250 0
DWIDTH 5 0
BBX 5 20 0 0
BITMAP
70
70
D8
88
00
00
70
70
70
70
70
70
70
70
70
70
70
70
70
70
ENDCHAR
STARTCHAR 00CF
ENCODING 207
SWIDTH 350 0
DWIDTH 7 0
BBX 7 19 0 0
BITMAP
EE
EE
00
00
00
38
38
38
38
38
38
38
38
38
38
38
38
38
38
ENDCHAR
STARTCHAR 00D0
ENCODING 208
SWIDTH 700 0
DWIDTH 14 0
BBX 13 14 0 0
BITMAP
7F80
7FE0
70F0
7070
7038
7038
FE38
FE38
7038
7038
7070
70F0
7FE0
7F80
ENDCHAR
STARTCHAR 00D1
ENCODING 209
SWIDTH 750 0
DWIDTH 15 0
BBX 13 19 1 0
BITMAP
0C40
1F80
1100
0000
0000
F038
F838
F838
FC38
EE38
EE38
E738
E738
E3B8
E3B8
E1F8
E1F8
E0F8
E0F8
ENDCHAR
STARTCHAR 00D2
ENCODING 210
SWIDTH 800 0
DWIDTH 16 0
BBX 14 20 1 0
BITMAP
1C00
0C00
0600
0200
0000
0000
0FC0
3FF0
7070
6038
E018
E01C
E01C
E01C
E01C
E018
6038
7070
3FF0
0FC0
ENDCHAR
STARTCHAR 00D3
ENCODING 211
SWIDTH 800 0
DWIDTH 16 0
BBX 14 20 1 0
BITMAP
00E0
01C0
0180
0300
0000
0000
0FC0
3FF0
7070
6038
E018
E01C
E01C
E01C
E01C
E018
6038
7070
3FF0
0FC0
ENDCHAR
STARTCHAR 00D4
ENCODING 212
SWIDTH 800 0
DWIDTH 16 0
BBX 14 20 1 0
BITMAP
0700
0780
0DC0
08C0
0000
0000
0FC0
3FF0
7070
6038
E018
E01C
E01C
E01C
E01C
E018
6038
7070
3FF0
0FC0
ENDCHAR
STARTCHAR 00D5
ENCODING 213
SWIDTH 800 0
DWIDTH 16 0
BBX 14 19 1 0
BITMAP
07C0
0FC0
0000
0000
0000
0FC0
3FF0
7030
6038
E018
E01C
E01C
E01C
E01C
E018
7038
78F0
3FF0
0FC0
ENDCHAR
STARTCHAR 00D6
ENCODING 214
SWIDTH 800 0
DWIDTH 16 0
BBX 14 19 1 0
BITMAP
1DC0
1DC0
0000
0000
0000
0FC0
3FF0
7070
6038
E018
E01C
E01C
E01C
E01C
E018
6038
7070
3FF0
0FC0
ENDCHAR
STARTCHAR 00D7
ENCODING 215
SWIDTH 1000 0
DWIDTH 20 0
BBX 10 10 5 1
BITMAP
8040
C0C0
6180
3300
0C00
0C00
1200
2100
4080
8040
ENDCHAR
STARTCHAR 00D8
ENCODING 216
SWIDTH 800 0
DWIDTH 16 0
BBX 15 16 0 -1
BITMAP
0002
07E6
1FFC
383C
303C
706C
70EE
71CE
738E
770E
7E0C
7C1C
3838
3FF0
EFE0
4000
ENDCHAR
STARTCHAR 00D9
ENCODING 217
SWIDTH 700 0
DWIDTH 14 0
BBX 12 20 1 0
BITMAP
3800
1800
0C00
0600
0000
0000
E070
E070
E070
E070
E070
E070
E070
E070
E070
E070
E070
71E0
3FC0
1F80
ENDCHAR
STARTCHAR 00DA
ENCODING 218
SWIDTH 700 0
DWIDTH 14 0
BBX 12 20 1 0
BITMAP
01C0
0380
0300
0600
0000
0000
E070
E070
E070
E070
E070
E070
E070
E070
E070
E070
E070
71E0
3FC0
1F80
ENDCHAR
STARTCHAR 00DB
ENCODING 219
SWIDTH 700 0
DWIDTH 14 0
BBX 12 20 1 0
BITMAP
0E00
0F00
1B00
1180
0000
0000
E070
E070
E070
E070
E070
E070
E070
E070
E070
E070
E070
71E0
3FC0
1F80
ENDCHAR
STARTCHAR 00DC
ENCODING 220
SWIDTH 700 0
DWIDTH 14 0
BBX 12 19 1 0
BITMAP
1DC0
1DC0
0000
0000
0000
E070
E070
E070
E070
E070
E070
E070
E070
E070
E070
E070
70E0
3FC0
1F80
ENDCHAR
STARTCHAR 00DD
ENCODING 221
SWIDTH 650 0
DWIDTH 13 0
BBX 12 19 0 0
BITMAP
0180
0300
0200
0000
0000
F070
70F0
38E0
38E0
1DC0
1DC0
0F80
0F00
0700
0700
0700
0700
0700
0700
ENDCHAR
STARTCHAR 00DE
ENCODING 222
SWIDTH 650 0
DWIDTH 13 0
BBX 11 14 1 0
BITMAP
E000
E000
FF00
FFC0
E1C0
E0E0
E0E0
E0E0
E1C0
FF80
FE00
E000
E000
E000
ENDCHAR
STARTCHAR 00DF
ENCODING 223
SWIDTH 600 0
DWIDTH 12 0
BBX 10 14 1 0
BITMAP
3E00
7F80
E380
E380
E300
E700
EE00
EE00
E780
E3C0
E1C0
FDC0
FFC0
EF80
ENDCHAR
STARTCHAR 00E0
ENCODING 224
SWIDTH 550 0
DWIDTH 11 0
BBX 9 16 1 0
BITMAP
7000
3000
1800
0800
0000
0000
3E00
7F80
E380
1F80
7F80
E380
E380
E380
FF80
3980
ENDCHAR
STARTCHAR 00E1
ENCODING 225
SWIDTH 550 0
DWIDTH 11 0
BBX 9 16 1 0
BITMAP
0700
0600
0C00
0C00
0000
0000
3E00
7F80
E380
0380
3F80
FB80
E380
E380
FF80
7980
ENDCHAR
STARTCHAR 00E2
ENCODING 226
SWIDTH 550 0
DWIDTH 11 0
BBX 9 16 1 0
BITMAP
1C00
1E00
3600
2300
0000
0000
3E00
7F80
E380
1F80
7F80
E380
E380
E380
FF80
3980
ENDCHAR
STARTCHAR 00E3
ENCODING 227
SWIDTH 550 0
DWIDTH 11 0
BBX 9 14 1 0
BITMAP
3F00
3E00
0000
0000
3E00
7F80
E380
1F80
7F80
E380
E380
E380
FF80
3980
ENDCHAR
STARTCHAR 00E4
ENCODING 228
SWIDTH 550 0
DWIDTH 11 0
BBX 9 15 1 0
BITMAP
7700
7700
0000
0000
0000
3E00
7F80
E380
1F80
7F80
E380
E380
E380
FF80
3980
ENDCHAR
STARTCHAR 00E5
ENCODING 229
SWIDTH 550 0
DWIDTH 11 0
BBX 9 17 1 0
BITMAP
1C00
2200
2200
2200
1C00
0000
0000
3E00
7F80
E380
1F80
7F80
E380
E380
E380
FF80
3980
ENDCHAR
STARTCHAR 00E6
ENCODING 230
SWIDTH 900 0
DWIDTH 18 0
BBX 16 10 1 0
BITMAP
3E7C
7FFE
E387
1FFF
7FFF
E380
E380
E3C7
FEFE
3C7C
ENDCHAR
STARTCHAR 00E7
ENCODING 231
SWIDTH 550 0
DWIDTH 11 0
BBX 9 14 1 -4
BITMAP
3E00
7F00
E380
E380
E000
E000
E380
E380
7F00
3E00
1000
1E00
0600
3E00
ENDCHAR
STARTCHAR 00E8
ENCODING 232
SWIDTH 550 0
DWIDTH 11 0
BBX 9 16 1 0
BITMAP
7000
3000
1800
0800
0000
0000
1E00
7F00
E380
E380
FF80
FF80
E000
E380
7F80
3E00
ENDCHAR
STARTCHAR 00E9
ENCODING 233
SWIDTH 550 0
DWIDTH 11 0
BBX 9 16 1 0
BITMAP
0700
0600
0C00
0800
0000
0000
1E00
7F00
E380
E380
FF80
FF80
E000
E380
7F80
3E00
ENDCHAR
STARTCHAR 00EA
ENCODING 234
SWIDTH 550 0
DWIDTH 11 0
BBX 9 16 1 0
BITMAP
1C00
1E00
3600
2300
0000
0000
1E00
7F00
E380
E380
FF80
FF80
E000
E380
7F80
3E00
ENDCHAR
STARTCHAR 00EB
ENCODING 235
SWIDTH 550 0
DWIDTH 11 0
BBX 9 15 1 0
BITMAP
7700
7700
0000
0000
0000
1E00
7F00
E380
E380
FF80
FF80
E000
E380
7F80
3E00
ENDCHAR
STARTCHAR 00EC
ENCODING 236
SWIDTH 250 0
DWIDTH 5 0
BBX 4 15 0 0
BITMAP
C0
E0
60
30
00
70
70
70
70
70
70
70
70
70
70
ENDCHAR
STARTCHAR 00ED
ENCODING 237
SWIDTH 200 0
DWIDTH 4 0
BBX 4 15 1 0
BITMAP
70
60
C0
80
00
E0
E0
E0
E0
E0
E0
E0
E0
E0
E0
ENDCHAR
STARTCHAR 00EE
ENCODING 238
SWIDTH 250 0
DWIDTH 5 0
BBX 7 15 -1 0
BITMAP
38
7C
4C
C6
00
38
38
38
38
38
38
38
38
38
38
ENDCHAR
STARTCHAR 00EF
ENCODING 239
SWIDTH 300 0
DWIDTH 6 0
BBX 7 14 0 0
BITMAP
EE
EE
00
00
38
38
38
38
38
38
38
38
38
38
ENDCHAR
STARTCHAR 00F0
ENCODING 240
SWIDTH 600 0
DWIDTH 12 0
BBX 10 14 1 0
BITMAP
3980
0F00
1F00
6300
1F80
7F80
61C0
E1C0
E1C0
E1C0
E1C0
61C0
7F80
1F00
ENDCHAR
STARTCHAR 00F1
ENCODING 241
SWIDTH 550 0
DWIDTH 11 0
BBX 9 14 1 0
BITMAP
3E00
3C00
0000
0000
EF00
FF80
E380
E380
E380
E380
E380
E380
E380
E380
ENDCHAR
STARTCHAR 00F2
ENCODING 242
SWIDTH 600 0
DWIDTH 12 0
BBX 10 16 1 0
BITMAP
3000
1800
1800
0C00
0000
0000
1E00
7F80
6180
E1C0
E1C0
E1C0
E1C0
6180
7F80
1E00
ENDCHAR
STARTCHAR 00F3
ENCODING 243
SWIDTH 600 0
DWIDTH 12 0
BBX 10 16 1 0
BITMAP
0300
0600
0600
0C00
0000
0000
1E00
7F80
6180
E1C0
E1C0
E1C0
E1C0
6180
7F80
1E00
ENDCHAR
STARTCHAR 00F4
ENCODING 244
SWIDTH 600 0
DWIDTH 12 0
BBX 10 16 1 0
BITMAP
0C00
1E00
1A00
3300
0000
0000
1E00
7F80
6180
E1C0
E1C0
E1C0
E1C0
6180
7F80
1E00
ENDCHAR
STARTCHAR 00F5
ENCODING 245
SWIDTH 600 0
DWIDTH 12 0
BBX 10 14 1 0
BITMAP
1F00
3E00
0000
0000
1E00
7F80
6180
E1C0
E1C0
E1C0
E1C0
6180
7F80
1E00
ENDCHAR
STARTCHAR 00F6
ENCODING 246
SWIDTH 600 0
DWIDTH 12 0
BBX 10 15 1 0
BITMAP
3B80
3B80
0000
0000
0000
1E00
7F80
6180
E1C0
E1C0
E1C0
E1C0
6180
7F80
1E00
ENDCHAR
STARTCHAR 00F7
ENCODING 247
SWIDTH 1000 0
DWIDTH 20 0
BBX 12 8 4 2
BITMAP
0600
0E00
0000
FFF0
FFF0
0000
0600
0E00
ENDCHAR
STARTCHAR 00F8
ENCODING 248
SWIDTH 600 0
DWIDTH 12 0
BBX 10 12 1 0
BITMAP
00C0
1F80
7F80
6380
E7C0
EDC0
E9C0
F1C0
7180
7F80
DE00
8000
ENDCHAR
STARTCHAR 00F9
ENCODING 249
SWIDTH 550 0
DWIDTH 11 0
BBX 9 16 1 0
BITMAP
7000
3000
1800
0800
0000
0000
E380
E380
E380
E380
E380
E380
E380
E380
FF80
7B80
ENDCHAR
STARTCHAR 00FA
ENCODING 250
SWIDTH 550 0
DWIDTH 11 0
BBX 9 16 1 0
BITMAP
0700
0600
0C00
0800
0000
0000
E380
E380
E380
E380
E380
E380
E380
E380
FF80
7B80
ENDCHAR
STARTCHAR 00FB
ENCODING 251
SWIDTH 550 0
DWIDTH 11 0
BBX 9 16 1 0
BITMAP
1C00
1C00
3600
2200
0000
0000
E380
E380
E380
E380
E380
E380
E380
E380
FF80
7B80
ENDCHAR
STARTCHAR 00FC
ENCODING 252
SWIDTH 550 0
DWIDTH 11 0
BBX 9 15 1 0
BITMAP
7700
7700
0000
0000
0000
E380
E380
E380
E380
E380
E380
E380
E380
FF80
7B80
ENDCHAR
STARTCHAR 00FD
ENCODING 253
SWIDTH 550 0
DWIDTH 11 0
BBX 11 19 0 -4
BITMAP
0180
0300
0200
0400
0000
70E0
71C0
71C0
39C0
3B80
1B80
1F80
1F00
0F00
0E00
0E00
4E00
FC00
7800
ENDCHAR
STARTCHAR 00FE
ENCODING 254
SWIDTH 600 0
DWIDTH 12 0
BBX 10 18 1 -4
BITMAP
E000
E000
E000
E000
EF00
FF80
E180
E1C0
E1C0
E1C0
E1C0
E1C0
FF80
FF00
E000
E000
E000
E000
ENDCHAR
STARTCHAR 00FF
ENCODING 255
SWIDTH 550 0
DWIDTH 11 0
BBX 11 18 0 -4
BITMAP
3B80
3B80
0000
0000
E1E0
71C0
71C0
7380
3B80
3B80
1F00
1F00
1F00
0E00
0E00
0C00
1C00
1C00
ENDCHAR
STARTCHAR 0131
ENCODING 305
SWIDTH 250 0
DWIDTH 5 0
BBX 3 10 1 0
BITMAP
E0
E0
E0
E0
E0
E0
E0
E0
E0
E0
ENDCHAR
STARTCHAR 0141
ENCODING 321
SWIDTH 700 0
DWIDTH 14 0
BBX 12 14 1 0
BITMAP
3800
3800
3A00
3E00
3E00
3800
3800
7800
F800
F800
3800
3800
3FF0
3FF0
ENDCHAR
STARTCHAR 0142
ENCODING 322
SWIDTH 400 0
DWIDTH 8 0
BBX 7 14 1 0
BITMAP
38
38
38
3A
3E
3C
38
78
F8
B8
38
38
38
38
ENDCHAR
STARTCHAR 0152
ENCODING 338
SWIDTH 1000 0
DWIDTH 20 0
BBX 18 14 1 0
BITMAP
0FFFC0
3FFFC0
70E000
60E000
E0E000
E0FFC0
E0FFC0
E0E000
E0E000
E0E000
60E000
70E000
3FFFC0
0FFFC0
ENDCHAR
STARTCHAR 0153
ENCODING 339
SWIDTH 950 0
DWIDTH 19 0
BBX 17 10 1 0
BITMAP
1E3C00
7FFF00
61C300
E1C300
E1FF80
E1FF80
E1C000
61C380
7FFF00
1E7E00
ENDCHAR
STARTCHAR 0160
ENCODING 352
SWIDTH 700 0
DWIDTH 14 0
BBX 12 20 1 0
BITMAP
3180
1B80
1F00
0F00
0000
0000
1F80
7FC0
60E0
E000
E000
7C00
7F80
0FE0
00E0
E070
E070
71E0
7FC0
1F80
ENDCHAR
STARTCHAR 0161
ENCODING 353
SWIDTH 550 0
DWIDTH 11 0
BBX 9 15 1 0
BITMAP
6200
3600
3C00
0000
0000
3E00
FF00
E380
E000
7E00
1F00
0380
E380
FF00
3E00
ENDCHAR
STARTCHAR 0178
ENCODING 376
SWIDTH 650 0
DWIDTH 13 0
BBX 13 19 0 0
BITMAP
1DC0
1DC0
0000
0000
0000
E078
7070
78E0
38E0
1DC0
1DC0
0F80
0F00
0700
0700
0700
0700
0700
0700
ENDCHAR
STARTCHAR 017D
ENCODING 381
SWIDTH 650 0
DWIDTH 13 0
BBX 11 20 1 0
BITMAP
1080
1900
0F00
0E00
0000
0000
7FE0
7FE0
01E0
03C0
0380
0780
0F00
1E00
1E00
3C00
7800
F800
FFE0
FFE0
ENDCHAR
STARTCHAR 017E
ENCODING 382
SWIDTH 500 0
DWIDTH 10 0
BBX 8 15 1 0
BITMAP
66
36
3C
1C
00
FF
FF
07
0E
1C
38
70
E0
FF
FF
ENDCHAR
STARTCHAR 0192
ENCODING 402
SWIDTH 550 0
DWIDTH 11 0
BBX 13 18 -2 -4
BITMAP
0078
00F8
01C0
0180
07F0
0FE0
0380
0300
0300
0700
0600
0600
0E00
0E00
0C00
1C00
7800
F000
ENDCHAR
STARTCHAR 02C6
ENCODING 710
SWIDTH 300 0
DWIDTH 6 0
BBX 6 4 0 12
BITMAP
38
78
6C
C4
ENDCHAR
STARTCHAR 02C7
ENCODING 711
SWIDTH 300 0
DWIDTH 6 0
BBX 6 4 0 12
BITMAP
84
4C
78
38
ENDCHAR
STARTCHAR 02D8
ENCODING 728
SWIDTH 300 0
DWIDTH 6 0
BBX 6 3 0 12
BITMAP
84
FC
78
ENDCHAR
STARTCHAR 02D9
ENCODING 729
SWIDTH 150 0
DWIDTH 3 0
BBX 3 3 0 11
BITMAP
E0
E0
E0
ENDCHAR
STARTCHAR 02DA
ENCODING 730
SWIDTH 250 0
DWIDTH 5 0
BBX 5 5 0 12
BITMAP
70
88
88
88
70
ENDCHAR
STARTCHAR 02DB
ENCODING 731
SWIDTH 200 0
DWIDTH 4 0
BBX 4 5 0 -4
BITMAP
20
40
C0
F0
70
ENDCHAR
STARTCHAR 02DC
ENCODING 732
SWIDTH 300 0
DWIDTH 6 0
BBX 6 2 0 12
BITMAP
7C
F8
ENDCHAR
STARTCHAR 02DD
ENCODING 733
SWIDTH 300 0
DWIDTH 6 0
BBX 6 4 0 12
BITMAP
6C
6C
C8
90
ENDCHAR
STARTCHAR 0394
ENCODING 916
SWIDTH 650 0
DWIDTH 13 0
BBX 13 14 0 0
BITMAP
0200
0200
0300
0700
0780
0980
09C0
10C0
10C0
2060
2060
4070
4030
FFF8
ENDCHAR
STARTCHAR 03A9
ENCODING 937
SWIDTH 800 0
DWIDTH 16 0
BBX 14 14 1 0
BITMAP
0FC0
3030
6018
6018
E01C
C00C
C00C
E01C
6018
6038
3060
0880
F8FC
F8FC
ENDCHAR
STARTCHAR 03BC
ENCODING 956
SWIDTH 650 0
DWIDTH 13 0
BBX 12 14 1 -4
BITMAP
E380
E380
E380
E380
E380
E380
E380
E380
FDF0
FDF0
E000
E000
E000
E000
ENDCHAR
STARTCHAR 03C0
ENCODING 960
SWIDTH 600 0
DWIDTH 12 0
BBX 11 10 0 0
BITMAP
3FE0
7FE0
9900
1900
1100
1100
1100
3120
71E0
60C0
ENDCHAR
STARTCHAR 2013
ENCODING 8211
SWIDTH 500 0
DWIDTH 10 0
BBX 10 2 0 4
BITMAP
FFC0
FFC0
ENDCHAR
STARTCHAR 2014
ENCODING 8212
SWIDTH 1000 0
DWIDTH 20 0
BBX 20 2 0 4
BITMAP
FFFFF0
FFFFF0
ENDCHAR
STARTCHAR 2018
ENCODING 8216
SWIDTH 300 0
DWIDTH 6 0
BBX 4 5 1 9
BITMAP
30
60
60
E0
E0
ENDCHAR
STARTCHAR 2019
ENCODING 8217
SWIDTH 300 0
DWIDTH 6 0
BBX 4 5 1 9
BITMAP
70
60
E0
C0
C0
ENDCHAR
STARTCHAR 201A
ENCODING 8218
SWIDTH 300 0
DWIDTH 6 0
BBX 4 5 1 -2
BITMAP
70
60
E0
C0
C0
ENDCHAR
STARTCHAR 201C
ENCODING 8220
SWIDTH 500 0
DWIDTH 10 0
BBX 8 5 1 9
BITMAP
33
66
66
EE
EE
ENDCHAR
STARTCHAR 201D
ENCODING 8221
SWIDTH 500 0
DWIDTH 10 0
BBX 8 5 1 9
BITMAP
77
66
EE
CC
CC
ENDCHAR
STARTCHAR 201E
ENCODING 8222
SWIDTH 500 0
DWIDTH 10 0
BBX 8 5 1 -2
BITMAP
77
66
EE
CC
CC
ENDCHAR
STARTCHAR 2020
ENCODING 8224
SWIDTH 550 0
DWIDTH 11 0
BBX 9 17 1 -3
BITMAP
1C00
1C00
1C00
1C00
FF80
FF80
1C00
1C00
1C00
1C00
1C00
1C00
1C00
1C00
1C00
1C00
1C00
ENDCHAR
STARTCHAR 2021
ENCODING 8225
SWIDTH 550 0
DWIDTH 11 0
BBX 9 17 1 -3
BITMAP
1C00
1C00
1C00
1C00
FF80
FF80
1C00
1C00
1C00
1C00
1C00
FF80
FF80
1C00
1C00
1C00
1C00
ENDCHAR
STARTCHAR 2022
ENCODING 8226
SWIDTH 350 0
DWIDTH 7 0
BBX 5 4 1 4
BITMAP
70
F8
F8
70
ENDCHAR
STARTCHAR 2026
ENCODING 8230
SWIDTH 950 0
DWIDTH 19 0
BBX 17 3 1 0
BITMAP
E1C180
E1C180
E1C180
ENDCHAR
STARTCHAR 2030
ENCODING 8240
SWIDTH 1450 0
DWIDTH 29 0
BBX 28 14 1 0
BITMAP
3C040000
7E0C0000
C3180000
C3100000
C3300000
E7600000
7E6F87C0
18DDCEE0
0098CC60
01B8FC70
0338FC70
0318CC60
061FCFE0
0C0F87C0
ENDCHAR
STARTCHAR 2039
ENCODING 8249
SWIDTH 350 0
DWIDTH 7 0
BBX 4 8 2 1
BITMAP
70
60
E0
E0
E0
E0
60
70
ENDCHAR
STARTCHAR 203A
ENCODING 8250
SWIDTH 350 0
DWIDTH 7 0
BBX 4 8 2 1
BITMAP
C0
E0
E0
70
70
E0
E0
C0
ENDCHAR
STARTCHAR 2044
ENCODING 8260
SWIDTH 550 0
DWIDTH 11 0
BBX 10 14 1 0
BITMAP
00C0
0180
0380
0300
0600
0600
0C00
1800
1800
3000
3000
6000
C000
C000
ENDCHAR
STARTCHAR 2122
ENCODING 8482
SWIDTH 650 0
DWIDTH 13 0
BBX 11 5 1 9
BITMAP
FE60
2660
25A0
25A0
25A0
ENDCHAR
STARTCHAR 2202
ENCODING 8706
SWIDTH 500 0
DWIDTH 10 0
BBX 9 17 0 -1
BITMAP
7C00
0200
0300
0100
0180
0180
0180
0180
3D80
6380
6180
C180
C100
C300
C200
6600
1800
ENDCHAR
STARTCHAR 220F
ENCODING 8719
SWIDTH 850 0
DWIDTH 17 0
BBX 16 18 1 -2
BITMAP
FFFF
7FFC
301C
301C
301C
301C
301C
301C
301C
301C
301C
301C
301C
301C
301C
301C
301C
FC7F
ENDCHAR
STARTCHAR 2211
ENCODING 8721
SWIDTH 750 0
DWIDTH 15 0
BBX 14 18 0 -2
BITMAP
C000
7FF8
3808
1800
1C00
0E00
0700
0380
0180
0180
0100
0200
0400
0C00
1804
300C
3FFC
7FFC
ENDCHAR
STARTCHAR 2212
ENCODING 8722
SWIDTH 1000 0
DWIDTH 20 0
BBX 12 1 4 5
BITMAP
FFF0
ENDCHAR
STARTCHAR 221A
ENCODING 8730
SWIDTH 550 0
DWIDTH 11 0
BBX 11 14 1 0
BITMAP
0060
0080
0080
0080
0100
C100
6100
2100
3200
1200
1A00
0A00
0C00
0400
ENDCHAR
STARTCHAR 221E
ENCODING 8734
SWIDTH 1000 0
DWIDTH 20 0
BBX 13 6 3 3
BITMAP
7070
CD98
8708
8708
CD98
7070
ENDCHAR
STARTCHAR 222B
ENCODING 8747
SWIDTH 450 0
DWIDTH 9 0
BBX 8 19 1 -4
BITMAP
07
0B
08
18
18
18
18
18
18
18
18
18
18
18
18
10
10
D0
E0
ENDCHAR
STARTCHAR 2248
ENCODING 8776
SWIDTH 1000 0
DWIDTH 20 0
BBX 12 6 4 3
BITMAP
7C10
83E0
0000
3000
FE30
83E0
ENDCHAR
STARTCHAR 2260
ENCODING 8800
SWIDTH 1000 0
DWIDTH 20 0
BBX 12 8 4 2
BITMAP
0060
00C0
FFF0
0200
0400
FFF0
3000
6000
ENDCHAR
STARTCHAR 2264
ENCODING 8804
SWIDTH 1000 0
DWIDTH 20 0
BBX 12 11 4 0
BITMAP
0030
01E0
0E00
F000
C000
3C00
0780
00F0
0010
0000
FFF0
ENDCHAR
STARTCHAR 2265
ENCODING 8805
SWIDTH 1000 0
DWIDTH 20 0
BBX 12 11 4 0
BITMAP
C000
7800
0700
00F0
0030
03C0
1E00
F000
8000
0000
FFF0
ENDCHAR
STARTCHAR 25CA
ENCODING 9674
SWIDTH 550 0
DWIDTH 11 0
BBX 9 16 1 0
BITMAP
0800
1C00
1400
2600
2200
4300
4100
8180
8080
C100
4100
6200
2200
3400
1400
1800
ENDCHAR
STARTCHAR FB01
ENCODING 64257
SWIDTH 650 0
DWIDTH 13 0
BBX 11 14 1 0
BITMAP
1EE0
3EE0
38E0
3800
FEE0
FEE0
38E0
38E0
38E0
38E0
38E0
38E0
38E0
38E0
ENDCHAR
STARTCHAR FB02
ENCODING 64258
SWIDTH 650 0
DWIDTH 13 0
BBX 11 14 1 0
BITMAP
1EE0
3EE0
38E0
38E0
FEE0
FEE0
38E0
38E0
38E0
38E0
38E0
38E0
38E0
38E0
ENDCHAR
ENDFONT
