STARTFONT 2.1
COMMENT
COMMENT Converted from OpenType font "FreeUniversal-Bold.ttf" by "otf2bdf 3.0".
COMMENT
FONT -FreeType-FreeUniversal-Bold-R-Normal--23-230-72-72-P-115-ISO10646-1
SIZE 23 72 72
FONTBOUNDINGBOX 34 31 -2 -6
STARTPROPERTIES 19
FOUNDRY "FreeType"
FAMILY_NAME "FreeUniversal"
WEIGHT_NAME "Bold"
SLANT "R"
SETWIDTH_NAME "Normal"
ADD_STYLE_NAME ""
PIXEL_SIZE 23
POINT_SIZE 230
RESOLUTION_X 72
RESOLUTION_Y 72
SPACING "P"
AVERAGE_WIDTH 115
CHARSET_REGISTRY "ISO10646"
CHARSET_ENCODING "1"
FONT_ASCENT 24
FONT_DESCENT 5
COPYRIGHT "FreeUniveral (c) Stephen Wilson 2009    Original Font Sil-Sophia  Copyright (c) SIL International, 1994-2008."
_OTF_FONTFILE "FreeUniversal-Bold.ttf"
_OTF_PSNAME "FreeUniversal-Bold"
ENDPROPERTIES
CHARS 243
STARTCHAR 0020
ENCODING 32
SWIDTH 304 0
DWIDTH 7 0
BBX 0 0 0 0
BITMAP
ENDCHAR
STARTCHAR 0021
ENCODING 33
SWIDTH 391 0
DWIDTH 9 0
BBX 3 17 3 0
BITMAP
E0
E0
E0
E0
E0
E0
E0
E0
E0
E0
E0
E0
00
00
E0
E0
E0
ENDCHAR
STARTCHAR 0022
ENCODING 34
SWIDTH 521 0
DWIDTH 12 0
BBX 8 7 2 10
BITMAP
E7
E7
E7
E7
E7
E7
E7
ENDCHAR
STARTCHAR 0023
ENCODING 35
SWIDTH 695 0
DWIDTH 16 0
BBX 14 17 1 0
BITMAP
0318
0718
0638
0630
3FFC
3FFC
0C60
0C60
1C60
18E0
FFF8
FFF0
39C0
3180
3180
7180
6380
ENDCHAR
STARTCHAR 0024
ENCODING 36
SWIDTH 608 0
DWIDTH 14 0
BBX 12 21 1 -3
BITMAP
0200
0F80
3FC0
7FE0
F2E0
E2E0
E200
FA00
7E00
3FC0
0FE0
03F0
02F0
E270
E270
F2F0
7FE0
3FC0
0F00
0200
0200
ENDCHAR
STARTCHAR 0025
ENCODING 37
SWIDTH 1000 0
DWIDTH 23 0
BBX 21 17 1 0
BITMAP
3E0300
7F0700
630600
C18E00
C18C00
C19800
C1B800
633080
7F77E0
3E6630
00EC18
00CC18
01CC18
018C18
030E38
0707F0
0603E0
ENDCHAR
STARTCHAR 0026
ENCODING 38
SWIDTH 782 0
DWIDTH 18 0
BBX 16 17 1 0
BITMAP
1F80
3FC0
79E0
70E0
71E0
39C0
3F80
1F00
3F1E
779C
F3DC
E1FC
E0FC
E078
787C
7FFE
1FCF
ENDCHAR
STARTCHAR 0027
ENCODING 39
SWIDTH 391 0
DWIDTH 9 0
BBX 3 7 3 10
BITMAP
E0
E0
E0
E0
E0
E0
60
ENDCHAR
STARTCHAR 0028
ENCODING 40
SWIDTH 391 0
DWIDTH 9 0
BBX 5 20 2 -3
BITMAP
38
38
70
70
70
F0
E0
E0
E0
E0
E0
E0
E0
E0
F0
70
70
70
30
38
ENDCHAR
STARTCHAR 0029
ENCODING 41
SWIDTH 391 0
DWIDTH 9 0
BBX 5 20 2 -3
BITMAP
E0
60
70
70
70
38
38
38
38
38
38
38
38
38
38
70
70
70
60
E0
ENDCHAR
STARTCHAR 002A
ENCODING 42
SWIDTH 652 0
DWIDTH 15 0
BBX 9 9 3 8
BITMAP
3600
3600
3600
9C80
FF80
9C80
3600
3600
3600
ENDCHAR
STARTCHAR 002B
ENCODING 43
SWIDTH 1043 0
DWIDTH 24 0
BBX 14 14 5 0
BITMAP
0200
0200
0200
0200
0200
0200
FFFC
FFFC
0200
0200
0200
0200
0200
0200
ENDCHAR
STARTCHAR 002C
ENCODING 44
SWIDTH 304 0
DWIDTH 7 0
BBX 5 6 1 -3
BITMAP
38
70
70
60
60
E0
ENDCHAR
STARTCHAR 002D
ENCODING 45
SWIDTH 347 0
DWIDTH 8 0
BBX 6 3 1 4
BITMAP
FC
FC
FC
ENDCHAR
STARTCHAR 002E
ENCODING 46
SWIDTH 304 0
DWIDTH 7 0
BBX 3 3 2 0
BITMAP
E0
E0
E0
ENDCHAR
STARTCHAR 002F
ENCODING 47
SWIDTH 434 0
DWIDTH 10 0
BBX 8 18 1 -1
BITMAP
07
06
06
0E
0C
0C
0C
1C
18
18
38
30
30
30
70
60
60
E0
ENDCHAR
STARTCHAR 0030
ENCODING 48
SWIDTH 565 0
DWIDTH 13 0
BBX 11 17 1 0
BITMAP
1F00
3F80
71C0
70C0
E0E0
E0E0
E0E0
E0E0
E0E0
E0E0
E0E0
E0E0
E0E0
70C0
71C0
3F80
1F00
ENDCHAR
STARTCHAR 0031
ENCODING 49
SWIDTH 565 0
DWIDTH 13 0
BBX 7 17 2 0
BITMAP
0E
3E
FE
FE
CE
0E
0E
0E
0E
0E
0E
0E
0E
0E
0E
0E
0E
ENDCHAR
STARTCHAR 0032
ENCODING 50
SWIDTH 565 0
DWIDTH 13 0
BBX 12 17 1 0
BITMAP
0F80
3FE0
78E0
7070
0070
0070
00F0
01E0
03E0
07C0
0F80
1E00
3C00
F800
FFF0
FFF0
FFF0
ENDCHAR
STARTCHAR 0033
ENCODING 51
SWIDTH 565 0
DWIDTH 13 0
BBX 11 17 1 0
BITMAP
1F00
7FC0
F1E0
E0E0
00E0
00E0
01C0
0F80
0F80
01C0
00E0
00E0
E0E0
F1E0
FFC0
7F80
1F00
ENDCHAR
STARTCHAR 0034
ENCODING 52
SWIDTH 565 0
DWIDTH 13 0
BBX 12 17 1 0
BITMAP
03C0
07C0
07C0
0FC0
1DC0
1DC0
39C0
71C0
71C0
E1C0
FFF0
FFF0
FFF0
01C0
01C0
01C0
01C0
ENDCHAR
STARTCHAR 0035
ENCODING 53
SWIDTH 565 0
DWIDTH 13 0
BBX 11 17 1 0
BITMAP
FFC0
FFC0
FFC0
E000
E000
E000
EF80
FFC0
F1E0
E0E0
00E0
00E0
E0E0
E1E0
FFC0
7F80
3F00
ENDCHAR
STARTCHAR 0036
ENCODING 54
SWIDTH 565 0
DWIDTH 13 0
BBX 11 17 1 0
BITMAP
0F00
3FC0
39E0
70E0
6000
E000
EF80
FFC0
F1E0
E0E0
E0E0
E0E0
E0E0
60E0
71C0
3F80
1F00
ENDCHAR
STARTCHAR 0037
ENCODING 55
SWIDTH 565 0
DWIDTH 13 0
BBX 11 17 1 0
BITMAP
FFE0
FFE0
FFE0
00E0
01E0
01C0
03C0
0380
0780
0780
0700
0F00
0E00
1E00
1C00
3C00
3C00
ENDCHAR
STARTCHAR 0038
ENCODING 56
SWIDTH 565 0
DWIDTH 13 0
BBX 11 17 1 0
BITMAP
1F00
7FC0
F1E0
E0E0
E0E0
E0E0
71C0
3F80
3F80
71C0
E0E0
E0E0
E0E0
E0E0
F1E0
7FC0
1F00
ENDCHAR
STARTCHAR 0039
ENCODING 57
SWIDTH 565 0
DWIDTH 13 0
BBX 11 17 1 0
BITMAP
1F00
3F80
71C0
E0C0
E0E0
E0E0
E0E0
F1E0
7FE0
3EE0
00E0
00E0
E0E0
E1C0
71C0
7F80
1E00
ENDCHAR
STARTCHAR 003A
ENCODING 58
SWIDTH 304 0
DWIDTH 7 0
BBX 3 12 3 0
BITMAP
E0
E0
E0
00
00
00
00
00
00
E0
E0
E0
ENDCHAR
STARTCHAR 003B
ENCODING 59
SWIDTH 347 0
DWIDTH 8 0
BBX 5 14 1 -2
BITMAP
38
38
38
00
00
00
00
00
38
38
70
70
60
E0
ENDCHAR
STARTCHAR 003C
ENCODING 60
SWIDTH 1043 0
DWIDTH 24 0
BBX 14 12 5 1
BITMAP
000C
003C
01E0
0700
3C00
E000
E000
3C00
0700
01E0
003C
000C
ENDCHAR
STARTCHAR 003D
ENCODING 61
SWIDTH 1043 0
DWIDTH 24 0
BBX 14 6 5 4
BITMAP
FFFC
FFFC
0000
0000
FFFC
FFFC
ENDCHAR
STARTCHAR 003E
ENCODING 62
SWIDTH 1043 0
DWIDTH 24 0
BBX 14 12 5 1
BITMAP
C000
F000
1E00
0380
00F0
001C
001C
00F0
0380
1E00
F000
C000
ENDCHAR
STARTCHAR 003F
ENCODING 63
SWIDTH 521 0
DWIDTH 12 0
BBX 10 17 1 0
BITMAP
3E00
7F80
E380
C1C0
01C0
01C0
0380
0780
0E00
1C00
1800
1800
1800
0000
0000
1800
1800
ENDCHAR
STARTCHAR 0040
ENCODING 64
SWIDTH 1043 0
DWIDTH 24 0
BBX 22 22 1 -5
BITMAP
00FE00
03FF80
0FFFE0
1F01F0
3E00F0
78F778
79FF38
71CF3C
F3871C
E3871C
E3871C
E3871C
E3871C
E3CF38
F1FFF8
71FBF0
7871E0
3C0000
1F0000
0FFF00
07FF00
00FF00
ENDCHAR
STARTCHAR 0041
ENCODING 65
SWIDTH 695 0
DWIDTH 16 0
BBX 16 17 0 0
BITMAP
03C0
03C0
03E0
07E0
07F0
0F70
0E70
0E78
1E38
1C38
1C3C
3FFC
3FFC
7FFE
780E
700F
F007
ENDCHAR
STARTCHAR 0042
ENCODING 66
SWIDTH 652 0
DWIDTH 15 0
BBX 12 17 2 0
BITMAP
FFC0
FFE0
FFF0
E0F0
E070
E070
E0E0
FFC0
FFC0
E0E0
E070
E070
E070
E0F0
FFF0
FFE0
FF80
ENDCHAR
STARTCHAR 0043
ENCODING 67
SWIDTH 695 0
DWIDTH 16 0
BBX 14 17 1 0
BITMAP
0FC0
1FF0
3FF8
7878
703C
F03C
E000
E000
E000
E000
E000
E000
703C
703C
3878
1FF0
0FC0
ENDCHAR
STARTCHAR 0044
ENCODING 68
SWIDTH 739 0
DWIDTH 17 0
BBX 14 17 2 0
BITMAP
FF00
FFE0
FFF0
E0F8
E038
E03C
E01C
E01C
E01C
E01C
E01C
E03C
E038
E0F8
FFF0
FFE0
FF80
ENDCHAR
STARTCHAR 0045
ENCODING 69
SWIDTH 652 0
DWIDTH 15 0
BBX 11 17 2 0
BITMAP
FFE0
FFE0
FFE0
E000
E000
E000
E000
FFE0
FFE0
E000
E000
E000
E000
E000
FFE0
FFE0
FFE0
ENDCHAR
STARTCHAR 0046
ENCODING 70
SWIDTH 608 0
DWIDTH 14 0
BBX 11 17 2 0
BITMAP
FFE0
FFE0
FFE0
E000
E000
E000
E000
FFC0
FFC0
FFC0
E000
E000
E000
E000
E000
E000
E000
ENDCHAR
STARTCHAR 0047
ENCODING 71
SWIDTH 782 0
DWIDTH 18 0
BBX 15 17 1 0
BITMAP
07E0
1FF8
3FFC
7C1E
700E
F00E
E000
E000
E0FE
E0FE
E0FE
F00E
700E
7C0E
3FFE
1FFE
03F8
ENDCHAR
STARTCHAR 0048
ENCODING 72
SWIDTH 739 0
DWIDTH 17 0
BBX 13 17 2 0
BITMAP
E038
E038
E038
E038
E038
E038
E038
FFF8
FFF8
FFF8
E038
E038
E038
E038
E038
E038
E038
ENDCHAR
STARTCHAR 0049
ENCODING 73
SWIDTH 304 0
DWIDTH 7 0
BBX 3 17 2 0
BITMAP
E0
E0
E0
E0
E0
E0
E0
E0
E0
E0
E0
E0
E0
E0
E0
E0
E0
ENDCHAR
STARTCHAR 004A
ENCODING 74
SWIDTH 608 0
DWIDTH 14 0
BBX 11 17 1 0
BITMAP
00E0
00E0
00E0
00E0
00E0
00E0
00E0
00E0
00E0
00E0
00E0
E0E0
E0E0
F0E0
FFC0
7FC0
3F00
ENDCHAR
STARTCHAR 004B
ENCODING 75
SWIDTH 695 0
DWIDTH 16 0
BBX 13 17 2 0
BITMAP
E0F0
E0E0
E1E0
E3C0
E780
EF00
EF00
FE00
FE00
EF00
E780
E780
E3C0
E1E0
E1F0
E0F0
E078
ENDCHAR
STARTCHAR 004C
ENCODING 76
SWIDTH 608 0
DWIDTH 14 0
BBX 11 17 2 0
BITMAP
E000
E000
E000
E000
E000
E000
E000
E000
E000
E000
E000
E000
E000
E000
FFE0
FFE0
FFE0
ENDCHAR
STARTCHAR 004D
ENCODING 77
SWIDTH 956 0
DWIDTH 22 0
BBX 18 17 2 0
BITMAP
FC07C0
FC0FC0
FC0FC0
FC0FC0
EE1FC0
EE1DC0
EE1DC0
E73DC0
E739C0
E739C0
E7B9C0
E3F1C0
E3F1C0
E3F1C0
E1F1C0
E1E1C0
E1E1C0
ENDCHAR
STARTCHAR 004E
ENCODING 78
SWIDTH 782 0
DWIDTH 18 0
BBX 14 17 2 0
BITMAP
F81C
F81C
FC1C
FC1C
EE1C
EE1C
E71C
E71C
E79C
E39C
E3DC
E1DC
E1DC
E0FC
E0FC
E07C
E07C
ENDCHAR
STARTCHAR 004F
ENCODING 79
SWIDTH 739 0
DWIDTH 17 0
BBX 15 17 1 0
BITMAP
07C0
1FF0
3FF8
783C
701C
F01E
E00E
E00E
E00E
E00E
E00E
F00E
701C
783C
3FF8
1FF0
07E0
ENDCHAR
STARTCHAR 0050
ENCODING 80
SWIDTH 652 0
DWIDTH 15 0
BBX 12 17 2 0
BITMAP
FF80
FFC0
FFE0
E0F0
E070
E070
E070
E0F0
FFE0
FFC0
FF00
E000
E000
E000
E000
E000
E000
ENDCHAR
STARTCHAR 0051
ENCODING 81
SWIDTH 826 0
DWIDTH 19 0
BBX 17 17 1 0
BITMAP
07C000
1FF000
3FF800
783C00
701C00
F01E00
E00E00
E00E00
E00E00
E00E00
E00E00
F00E00
701C00
783C00
3FFF80
1FFF80
07FF80
ENDCHAR
STARTCHAR 0052
ENCODING 82
SWIDTH 695 0
DWIDTH 16 0
BBX 13 17 2 0
BITMAP
FFC0
FFF0
FFF8
E078
E038
E038
E070
FFE0
FFC0
FFF0
E0F0
E070
E078
E038
E038
E038
E038
ENDCHAR
STARTCHAR 0053
ENCODING 83
SWIDTH 652 0
DWIDTH 15 0
BBX 13 17 1 0
BITMAP
0FC0
3FE0
38F0
7070
7000
7800
7E00
3FC0
1FF0
03F0
0078
E038
E038
F078
7FF0
3FE0
0F80
ENDCHAR
STARTCHAR 0054
ENCODING 84
SWIDTH 652 0
DWIDTH 15 0
BBX 13 17 1 0
BITMAP
FFF8
FFF8
FFF8
0700
0700
0700
0700
0700
0700
0700
0700
0700
0700
0700
0700
0700
0700
ENDCHAR
STARTCHAR 0055
ENCODING 85
SWIDTH 782 0
DWIDTH 18 0
BBX 14 17 2 0
BITMAP
E01C
E01C
E01C
E01C
E01C
E01C
E01C
E01C
E01C
E01C
E01C
E01C
F03C
7878
7FF8
3FF0
0FC0
ENDCHAR
STARTCHAR 0056
ENCODING 86
SWIDTH 739 0
DWIDTH 17 0
BBX 17 17 0 0
BITMAP
F00780
700700
780F00
780E00
381E00
3C1E00
1C1C00
1E3C00
1E3C00
0E3800
0F7800
0F7000
077000
07F000
07E000
03E000
03E000
ENDCHAR
STARTCHAR 0057
ENCODING 87
SWIDTH 1000 0
DWIDTH 23 0
BBX 23 17 0 0
BITMAP
F0381E
707C1C
707C1C
787C3C
786C3C
38EE38
38EE38
38EE38
3CC678
1DC770
1DC770
1DC770
1D8370
0F83E0
0F83E0
0F83E0
0F01E0
ENDCHAR
STARTCHAR 0058
ENCODING 88
SWIDTH 695 0
DWIDTH 16 0
BBX 14 17 1 0
BITMAP
F03C
7838
7878
3C70
1CE0
1FE0
0FC0
0780
0780
0FC0
1FC0
1DE0
38F0
7870
7078
F03C
E03C
ENDCHAR
STARTCHAR 0059
ENCODING 89
SWIDTH 652 0
DWIDTH 15 0
BBX 13 17 1 0
BITMAP
E038
F078
7070
78F0
38E0
3DE0
1DC0
1FC0
0F80
0F80
0700
0700
0700
0700
0700
0700
0700
ENDCHAR
STARTCHAR 005A
ENCODING 90
SWIDTH 608 0
DWIDTH 14 0
BBX 12 17 1 0
BITMAP
FFF0
FFF0
FFF0
01F0
01E0
03C0
0780
0780
0F00
1E00
3C00
3C00
7800
F000
FFF0
FFF0
FFF0
ENDCHAR
STARTCHAR 005B
ENCODING 91
SWIDTH 391 0
DWIDTH 9 0
BBX 5 22 2 -5
BITMAP
F8
F8
E0
E0
E0
E0
E0
E0
E0
E0
E0
E0
E0
E0
E0
E0
E0
E0
E0
E0
F8
F8
ENDCHAR
STARTCHAR 005C
ENCODING 92
SWIDTH 434 0
DWIDTH 10 0
BBX 7 18 1 -1
BITMAP
C0
E0
60
60
70
30
30
38
18
18
18
1C
0C
0C
0E
06
06
06
ENDCHAR
STARTCHAR 005D
ENCODING 93
SWIDTH 391 0
DWIDTH 9 0
BBX 5 22 2 -5
BITMAP
F8
F8
38
38
38
38
38
38
38
38
38
38
38
38
38
38
38
38
38
38
F8
F8
ENDCHAR
STARTCHAR 005E
ENCODING 94
SWIDTH 1000 0
DWIDTH 23 0
BBX 11 14 6 0
BITMAP
0400
0E00
0A00
1B00
1100
1100
3180
2080
2080
60C0
4040
C060
8020
8020
ENDCHAR
STARTCHAR 005F
ENCODING 95
SWIDTH 521 0
DWIDTH 12 0
BBX 12 2 0 -3
BITMAP
FFF0
FFF0
ENDCHAR
STARTCHAR 0060
ENCODING 96
SWIDTH 260 0
DWIDTH 6 0
BBX 4 4 0 14
BITMAP
E0
60
30
30
ENDCHAR
STARTCHAR 0061
ENCODING 97
SWIDTH 565 0
DWIDTH 13 0
BBX 10 12 1 0
BITMAP
1F00
7F80
71C0
01C0
1FC0
7FC0
F1C0
E1C0
E1C0
F3C0
7FC0
3CC0
ENDCHAR
STARTCHAR 0062
ENCODING 98
SWIDTH 608 0
DWIDTH 14 0
BBX 12 17 1 0
BITMAP
E000
E000
E000
E000
E000
EF80
FFC0
F1E0
F0F0
E070
E070
E070
E070
F0F0
F8E0
FFC0
E780
ENDCHAR
STARTCHAR 0063
ENCODING 99
SWIDTH 521 0
DWIDTH 12 0
BBX 10 12 1 0
BITMAP
1F00
7F80
73C0
E1C0
E000
E000
E000
E1C0
E1C0
73C0
7F80
1F00
ENDCHAR
STARTCHAR 0064
ENCODING 100
SWIDTH 608 0
DWIDTH 14 0
BBX 12 17 1 0
BITMAP
0070
0070
0070
0070
0070
1F70
3FF0
78F0
F0F0
E070
E070
E070
E070
F0F0
71F0
3FF0
1E70
ENDCHAR
STARTCHAR 0065
ENCODING 101
SWIDTH 565 0
DWIDTH 13 0
BBX 11 12 1 0
BITMAP
1F00
3F80
71C0
E1E0
FFE0
FFE0
E000
E000
E1C0
71C0
7FC0
1F00
ENDCHAR
STARTCHAR 0066
ENCODING 102
SWIDTH 391 0
DWIDTH 9 0
BBX 8 17 1 0
BITMAP
1F
3F
38
38
38
FF
FF
38
38
38
38
38
38
38
38
38
38
ENDCHAR
STARTCHAR 0067
ENCODING 103
SWIDTH 608 0
DWIDTH 14 0
BBX 12 17 1 -5
BITMAP
1F70
3FF0
78F0
F0F0
E070
E070
E070
E070
F0F0
70F0
7FF0
1E70
0070
7070
78E0
3FE0
1F80
ENDCHAR
STARTCHAR 0068
ENCODING 104
SWIDTH 565 0
DWIDTH 13 0
BBX 11 17 1 0
BITMAP
E000
E000
E000
E000
E000
EF80
FFC0
F1E0
F0E0
E0E0
E0E0
E0E0
E0E0
E0E0
E0E0
E0E0
E0E0
ENDCHAR
STARTCHAR 0069
ENCODING 105
SWIDTH 217 0
DWIDTH 5 0
BBX 3 17 1 0
BITMAP
E0
E0
E0
00
00
E0
E0
E0
E0
E0
E0
E0
E0
E0
E0
E0
E0
ENDCHAR
STARTCHAR 006A
ENCODING 106
SWIDTH 304 0
DWIDTH 7 0
BBX 4 22 2 -5
BITMAP
70
70
70
00
00
70
70
70
70
70
70
70
70
70
70
70
70
70
70
F0
F0
E0
ENDCHAR
STARTCHAR 006B
ENCODING 107
SWIDTH 521 0
DWIDTH 12 0
BBX 11 17 1 0
BITMAP
E000
E000
E000
E000
E000
E3C0
E380
E700
EF00
FE00
FE00
EE00
EF00
E780
E780
E3C0
E1E0
ENDCHAR
STARTCHAR 006C
ENCODING 108
SWIDTH 260 0
DWIDTH 6 0
BBX 3 17 1 0
BITMAP
E0
E0
E0
E0
E0
E0
E0
E0
E0
E0
E0
E0
E0
E0
E0
E0
E0
ENDCHAR
STARTCHAR 006D
ENCODING 109
SWIDTH 913 0
DWIDTH 21 0
BBX 19 12 1 0
BITMAP
E78F80
EFDFC0
F9F1E0
F0E0E0
E0E0E0
E0E0E0
E0E0E0
E0E0E0
E0E0E0
E0E0E0
E0E0E0
E0E0E0
ENDCHAR
STARTCHAR 006E
ENCODING 110
SWIDTH 565 0
DWIDTH 13 0
BBX 11 12 1 0
BITMAP
EF80
FFC0
F1E0
E0E0
E0E0
E0E0
E0E0
E0E0
E0E0
E0E0
E0E0
E0E0
ENDCHAR
STARTCHAR 006F
ENCODING 111
SWIDTH 608 0
DWIDTH 14 0
BBX 12 12 1 0
BITMAP
1F80
3FC0
70E0
F0E0
E070
E070
E070
E070
F0F0
70E0
3FC0
1F80
ENDCHAR
STARTCHAR 0070
ENCODING 112
SWIDTH 608 0
DWIDTH 14 0
BBX 12 17 1 -5
BITMAP
E780
FFC0
F8E0
F0F0
E070
E070
E070
E070
F0F0
F1E0
FFC0
EF80
E000
E000
E000
E000
E000
ENDCHAR
STARTCHAR 0071
ENCODING 113
SWIDTH 608 0
DWIDTH 14 0
BBX 12 17 1 -5
BITMAP
1E70
3FF0
71F0
F0F0
E070
E070
E070
E070
F0F0
78F0
3FF0
1F70
0070
0070
0070
0070
0070
ENDCHAR
STARTCHAR 0072
ENCODING 114
SWIDTH 391 0
DWIDTH 9 0
BBX 7 12 1 0
BITMAP
EE
EE
FE
F0
F0
E0
E0
E0
E0
E0
E0
E0
ENDCHAR
STARTCHAR 0073
ENCODING 115
SWIDTH 521 0
DWIDTH 12 0
BBX 10 12 1 0
BITMAP
3F00
7F80
F1C0
E1C0
F800
7F00
1F80
03C0
E1C0
E3C0
7F80
3F00
ENDCHAR
STARTCHAR 0074
ENCODING 116
SWIDTH 434 0
DWIDTH 10 0
BBX 8 15 1 0
BITMAP
18
38
38
FF
FF
38
38
38
38
38
38
38
3C
3F
0F
ENDCHAR
STARTCHAR 0075
ENCODING 117
SWIDTH 565 0
DWIDTH 13 0
BBX 11 12 1 0
BITMAP
E0E0
E0E0
E0E0
E0E0
E0E0
E0E0
E0E0
E0E0
E0E0
F1E0
7FE0
3EE0
ENDCHAR
STARTCHAR 0076
ENCODING 118
SWIDTH 565 0
DWIDTH 13 0
BBX 12 12 0 0
BITMAP
F070
70F0
70E0
78E0
38E0
39C0
1DC0
1DC0
1F80
0F80
0F80
0F00
ENDCHAR
STARTCHAR 0077
ENCODING 119
SWIDTH 869 0
DWIDTH 20 0
BBX 19 12 0 0
BITMAP
F0F0E0
70F0E0
71F0E0
71F9C0
39F9C0
3BB9C0
3B9FC0
3F9F80
1F1F80
1F0F80
1F0F00
0F0F00
ENDCHAR
STARTCHAR 0078
ENCODING 120
SWIDTH 565 0
DWIDTH 13 0
BBX 11 12 1 0
BITMAP
F1E0
71C0
7B80
3F80
1F00
1E00
1F00
3F80
7B80
73C0
F1C0
E1E0
ENDCHAR
STARTCHAR 0079
ENCODING 121
SWIDTH 521 0
DWIDTH 12 0
BBX 12 17 0 -5
BITMAP
F070
70F0
78E0
38E0
39E0
3DC0
1DC0
1DC0
1F80
0F80
0F80
0700
0700
0F00
0E00
0E00
1E00
ENDCHAR
STARTCHAR 007A
ENCODING 122
SWIDTH 521 0
DWIDTH 12 0
BBX 10 12 1 0
BITMAP
FF80
FF80
0780
0700
0E00
1E00
3C00
3800
7000
E000
FFC0
FFC0
ENDCHAR
STARTCHAR 007B
ENCODING 123
SWIDTH 521 0
DWIDTH 12 0
BBX 9 23 2 -6
BITMAP
0780
0F80
1C00
1C00
1C00
1C00
1C00
1C00
1C00
3C00
F800
E000
F800
3C00
1C00
1C00
1C00
1C00
1C00
1C00
1C00
0F80
0780
ENDCHAR
STARTCHAR 007C
ENCODING 124
SWIDTH 347 0
DWIDTH 8 0
BBX 2 25 3 -6
BITMAP
C0
C0
C0
C0
C0
C0
C0
C0
C0
C0
C0
C0
C0
C0
C0
C0
C0
C0
C0
C0
C0
C0
C0
C0
C0
ENDCHAR
STARTCHAR 007D
ENCODING 125
SWIDTH 521 0
DWIDTH 12 0
BBX 8 23 2 -6
BITMAP
E0
F0
38
38
38
38
38
38
38
1C
1F
07
1F
1C
38
38
38
38
38
38
38
F8
E0
ENDCHAR
STARTCHAR 007E
ENCODING 126
SWIDTH 521 0
DWIDTH 12 0
BBX 12 3 0 5
BITMAP
3C30
7FF0
E3C0
ENDCHAR
STARTCHAR 00A0
ENCODING 160
SWIDTH 304 0
DWIDTH 7 0
BBX 0 0 0 0
BITMAP
ENDCHAR
STARTCHAR 00A1
ENCODING 161
SWIDTH 391 0
DWIDTH 9 0
BBX 3 17 3 -5
BITMAP
E0
E0
E0
00
00
E0
E0
E0
E0
E0
E0
E0
E0
E0
E0
E0
E0
ENDCHAR
STARTCHAR 00A2
ENCODING 162
SWIDTH 565 0
DWIDTH 13 0
BBX 10 18 1 -3
BITMAP
0100
0100
0300
1F00
7F80
73C0
E7C0
E400
E400
EC00
E9C0
E9C0
7BC0
7F80
1F00
1000
3000
2000
ENDCHAR
STARTCHAR 00A3
ENCODING 163
SWIDTH 565 0
DWIDTH 13 0
BBX 11 17 1 0
BITMAP
0F80
1FE0
38E0
38E0
3800
3800
FF00
FF00
3800
3800
3800
3800
3800
3800
3800
FFE0
FFE0
ENDCHAR
STARTCHAR 00A4
ENCODING 164
SWIDTH 565 0
DWIDTH 13 0
BBX 11 12 1 4
BITMAP
8020
5F40
7180
6080
4040
4040
4040
4040
60C0
3180
5F40
8020
ENDCHAR
STARTCHAR 00A5
ENCODING 165
SWIDTH 652 0
DWIDTH 15 0
BBX 13 17 1 0
BITMAP
E078
F078
7070
78F0
38E0
FDF8
FDF8
1FC0
0F80
FFF8
FFF8
0700
0700
0700
0700
0700
0700
ENDCHAR
STARTCHAR 00A6
ENCODING 166
SWIDTH 347 0
DWIDTH 8 0
BBX 1 22 4 -5
BITMAP
80
80
80
80
80
80
80
80
80
00
00
00
00
80
80
80
80
80
80
80
80
80
ENDCHAR
STARTCHAR 00A7
ENCODING 167
SWIDTH 478 0
DWIDTH 11 0
BBX 9 21 1 -4
BITMAP
3F00
7F00
F100
E000
E000
7800
3E00
3F00
7780
E380
E380
E780
FF00
7E00
1F00
0780
0380
0380
8780
FF00
7C00
ENDCHAR
STARTCHAR 00A8
ENCODING 168
SWIDTH 347 0
DWIDTH 8 0
BBX 8 3 0 15
BITMAP
E7
E7
E7
ENDCHAR
STARTCHAR 00A9
ENCODING 169
SWIDTH 826 0
DWIDTH 19 0
BBX 17 17 1 0
BITMAP
03E000
0FF800
3C1E00
33E600
67F300
673B00
CE3980
CE0180
CE0180
CE0180
CE3980
4E3900
67F300
33E600
380E00
0FF800
03E000
ENDCHAR
STARTCHAR 00AA
ENCODING 170
SWIDTH 434 0
DWIDTH 10 0
BBX 8 11 1 6
BITMAP
3C
66
06
7E
E6
C6
C6
7E
00
00
FF
ENDCHAR
STARTCHAR 00AB
ENCODING 171
SWIDTH 608 0
DWIDTH 14 0
BBX 11 9 1 1
BITMAP
3CE0
38E0
79E0
71C0
F3C0
71C0
79E0
38E0
3CE0
ENDCHAR
STARTCHAR 00AC
ENCODING 172
SWIDTH 608 0
DWIDTH 14 0
BBX 12 5 1 5
BITMAP
FFF0
0010
0010
0010
0010
ENDCHAR
STARTCHAR 00AE
ENCODING 174
SWIDTH 826 0
DWIDTH 19 0
BBX 17 17 1 0
BITMAP
03E000
0FF800
3C1E00
37F600
67FB00
661B00
C61980
C7F180
C7F180
C63980
C61980
461900
661B00
300600
380E00
0FF800
03E000
ENDCHAR
STARTCHAR 00AF
ENCODING 175
SWIDTH 304 0
DWIDTH 7 0
BBX 7 2 0 15
BITMAP
FE
FE
ENDCHAR
STARTCHAR 00B0
ENCODING 176
SWIDTH 304 0
DWIDTH 7 0
BBX 5 5 1 12
BITMAP
70
88
88
88
70
ENDCHAR
STARTCHAR 00B1
ENCODING 177
SWIDTH 1043 0
DWIDTH 24 0
BBX 14 14 5 0
BITMAP
0200
0200
0200
0200
FFFC
FFFC
0200
0200
0200
0200
0000
0000
FFFC
FFFC
ENDCHAR
STARTCHAR 00B2
ENCODING 178
SWIDTH 391 0
DWIDTH 9 0
BBX 7 9 1 8
BITMAP
7C
E6
06
0E
1C
38
E0
FE
FE
ENDCHAR
STARTCHAR 00B3
ENCODING 179
SWIDTH 391 0
DWIDTH 9 0
BBX 7 9 1 8
BITMAP
7C
CE
06
0E
38
0E
06
CE
7C
ENDCHAR
STARTCHAR 00B4
ENCODING 180
SWIDTH 217 0
DWIDTH 5 0
BBX 5 4 1 14
BITMAP
38
70
60
C0
ENDCHAR
STARTCHAR 00B6
ENCODING 182
SWIDTH 608 0
DWIDTH 14 0
BBX 11 20 2 -3
BITMAP
3FE0
7D80
FD80
FD80
FD80
FD80
FD80
7D80
0D80
0D80
0D80
0D80
0D80
0D80
0D80
0D80
0D80
0D80
0D80
0D80
ENDCHAR
STARTCHAR 00B7
ENCODING 183
SWIDTH 304 0
DWIDTH 7 0
BBX 3 3 2 6
BITMAP
E0
E0
E0
ENDCHAR
STARTCHAR 00B8
ENCODING 184
SWIDTH 260 0
DWIDTH 6 0
BBX 6 5 1 -5
BITMAP
20
38
0C
0C
F8
ENDCHAR
STARTCHAR 00B9
ENCODING 185
SWIDTH 260 0
DWIDTH 6 0
BBX 4 9 1 8
BITMAP
30
F0
B0
30
30
30
30
30
30
ENDCHAR
STARTCHAR 00BA
ENCODING 186
SWIDTH 434 0
DWIDTH 10 0
BBX 8 11 1 6
BITMAP
3C
66
C3
C3
C3
C3
E7
7E
3C
00
FF
ENDCHAR
STARTCHAR 00BB
ENCODING 187
SWIDTH 608 0
DWIDTH 14 0
BBX 12 9 1 1
BITMAP
E380
71C0
79E0
38E0
3CF0
38E0
79E0
71C0
E380
ENDCHAR
STARTCHAR 00BC
ENCODING 188
SWIDTH 782 0
DWIDTH 18 0
BBX 16 17 1 0
BITMAP
3018
F018
B030
3070
3060
30E0
30C0
3180
318E
030E
031E
0636
0E36
0C66
187F
1806
3006
ENDCHAR
STARTCHAR 00BD
ENCODING 189
SWIDTH 782 0
DWIDTH 18 0
BBX 16 17 1 0
BITMAP
3018
F030
B030
3060
30E0
30C0
31C0
3180
333E
0377
0603
0607
0C0E
1C1C
1870
307F
307F
ENDCHAR
STARTCHAR 00BE
ENCODING 190
SWIDTH 826 0
DWIDTH 19 0
BBX 17 17 1 0
BITMAP
7C0600
C60C00
060C00
381800
0E3800
063000
CE7000
7C6000
00C700
01C700
018F00
039B00
031B00
073300
063F80
0C0300
1C0300
ENDCHAR
STARTCHAR 00BF
ENCODING 191
SWIDTH 521 0
DWIDTH 12 0
BBX 10 17 1 -5
BITMAP
0E00
0E00
0000
0000
0E00
0E00
0E00
1C00
3800
7000
F000
E000
E080
E0C0
73C0
7F80
1F00
ENDCHAR
STARTCHAR 00C0
ENCODING 192
SWIDTH 695 0
DWIDTH 16 0
BBX 16 24 0 0
BITMAP
0E00
0700
0300
0380
0180
0000
0000
03C0
03C0
03E0
07E0
07F0
0F70
0E70
0E78
1E38
1C38
1C3C
3FFC
3FFC
7FFE
780E
700F
F007
ENDCHAR
STARTCHAR 00C1
ENCODING 193
SWIDTH 695 0
DWIDTH 16 0
BBX 16 24 0 0
BITMAP
0070
0060
00E0
00C0
0180
0000
0000
03C0
03C0
03E0
07E0
07F0
0F70
0E70
0E78
1E38
1C38
1C3C
3FFC
3FFC
7FFE
780E
700F
F007
ENDCHAR
STARTCHAR 00C2
ENCODING 194
SWIDTH 695 0
DWIDTH 16 0
BBX 16 24 0 0
BITMAP
01C0
03C0
03E0
0660
0430
0000
0000
03C0
03C0
03E0
07E0
07F0
0F70
0E70
0E78
1E38
1C38
1C3C
3FFC
3FFC
7FFE
780E
700F
F007
ENDCHAR
STARTCHAR 00C3
ENCODING 195
SWIDTH 695 0
DWIDTH 16 0
BBX 16 23 0 0
BITMAP
0010
07F0
07E0
0000
0000
0000
03C0
03C0
03E0
07E0
07F0
0F70
0E70
0E78
1E38
1C38
1C3C
3FFC
3FFC
7FFE
780E
700F
F007
ENDCHAR
STARTCHAR 00C4
ENCODING 196
SWIDTH 739 0
DWIDTH 17 0
BBX 16 23 0 0
BITMAP
0E70
0E70
0E70
0000
0000
0000
03C0
03C0
07E0
07E0
07E0
0F70
0E70
1E78
1E38
1C38
3C3C
3FFC
7FFE
7FFE
700E
F00F
E007
ENDCHAR
STARTCHAR 00C5
ENCODING 197
SWIDTH 695 0
DWIDTH 16 0
BBX 15 25 1 0
BITMAP
0380
06C0
0440
0440
04C0
0380
0000
0000
0380
07C0
07C0
0FC0
0EE0
0EE0
1EE0
1C70
1C70
3C70
3878
3FF8
7FFC
7FFC
701C
F01E
E00E
ENDCHAR
STARTCHAR 00C6
ENCODING 198
SWIDTH 1000 0
DWIDTH 23 0
BBX 21 17 1 0
BITMAP
00FFF8
00FFF8
01F800
01F800
03B800
03B800
073800
073FF8
0E3FF8
0E3800
1E3800
1FF800
3FF800
783800
703800
F03FF8
E03FF8
ENDCHAR
STARTCHAR 00C7
ENCODING 199
SWIDTH 695 0
DWIDTH 16 0
BBX 14 22 1 -5
BITMAP
0FC0
1FF0
3FF8
7838
703C
F01C
E000
E000
E000
E000
E000
E000
701C
703C
3878
1FF0
0FC0
0300
03C0
0060
0060
07C0
ENDCHAR
STARTCHAR 00C8
ENCODING 200
SWIDTH 652 0
DWIDTH 15 0
BBX 11 24 2 0
BITMAP
3800
1800
1C00
0C00
0600
0000
0000
FFE0
FFE0
FFE0
E000
E000
E000
E000
FFE0
FFE0
E000
E000
E000
E000
E000
FFE0
FFE0
FFE0
ENDCHAR
STARTCHAR 00C9
ENCODING 201
SWIDTH 652 0
DWIDTH 15 0
BBX 11 24 2 0
BITMAP
0380
0300
0700
0600
0C00
0000
0000
FFE0
FFE0
FFE0
E000
E000
E000
E000
FFE0
FFE0
E000
E000
E000
E000
E000
FFE0
FFE0
FFE0
ENDCHAR
STARTCHAR 00CA
ENCODING 202
SWIDTH 652 0
DWIDTH 15 0
BBX 11 24 2 0
BITMAP
0E00
1F00
1B00
3B80
3180
0000
0000
FFE0
FFE0
FFE0
E000
E000
E000
E000
FFE0
FFE0
E000
E000
E000
E000
E000
FFE0
FFE0
FFE0
ENDCHAR
STARTCHAR 00CB
ENCODING 203
SWIDTH 652 0
DWIDTH 15 0
BBX 11 23 2 0
BITMAP
3B80
3B80
3B80
0000
0000
0000
FFE0
FFE0
FFE0
E000
E000
E000
E000
FFE0
FFE0
E000
E000
E000
E000
E000
FFE0
FFE0
FFE0
ENDCHAR
STARTCHAR 00CC
ENCODING 204
SWIDTH 304 0
DWIDTH 7 0
BBX 5 24 0 0
BITMAP
E0
E0
60
30
10
00
00
38
38
38
38
38
38
38
38
38
38
38
38
38
38
38
38
38
ENDCHAR
STARTCHAR 00CD
ENCODING 205
SWIDTH 217 0
DWIDTH 5 0
BBX 5 24 1 0
BITMAP
38
30
70
60
C0
00
00
E0
E0
E0
E0
E0
E0
E0
E0
E0
E0
E0
E0
E0
E0
E0
E0
E0
ENDCHAR
STARTCHAR 00CE
ENCODING 206
SWIDTH 304 0
DWIDTH 7 0
BBX 7 24 0 0
BITMAP
38
38
6C
6C
C6
00
00
38
38
38
38
38
38
38
38
38
38
38
38
38
38
38
38
38
ENDCHAR
STARTCHAR 00CF
ENCODING 207
SWIDTH 347 0
DWIDTH 8 0
BBX 8 23 0 0
BITMAP
E7
E7
E7
00
00
00
38
38
38
38
38
38
38
38
38
38
38
38
38
38
38
38
38
ENDCHAR
STARTCHAR 00D0
ENCODING 208
SWIDTH 695 0
DWIDTH 16 0
BBX 15 17 0 0
BITMAP
3FC0
3FF0
3FF8
383C
381C
381E
380E
380E
FF0E
FF0E
380E
381E
381C
383C
3FF8
3FF0
3FC0
ENDCHAR
STARTCHAR 00D1
ENCODING 209
SWIDTH 782 0
DWIDTH 18 0
BBX 14 23 2 0
BITMAP
0020
0FC0
0FC0
0000
0000
0000
F81C
F81C
FC1C
FC1C
EE1C
EE1C
E71C
E71C
E79C
E39C
E3DC
E1DC
E1DC
E0FC
E0FC
E07C
E07C
ENDCHAR
STARTCHAR 00D2
ENCODING 210
SWIDTH 739 0
DWIDTH 17 0
BBX 15 24 1 0
BITMAP
1C00
0E00
0600
0300
0100
0000
0000
07C0
1FF0
3FF8
783C
701C
F01E
E00E
E00E
E00E
E00E
E00E
F00E
701C
783C
3FF8
1FF0
07E0
ENDCHAR
STARTCHAR 00D3
ENCODING 211
SWIDTH 739 0
DWIDTH 17 0
BBX 15 24 1 0
BITMAP
0070
00E0
00C0
0180
0100
0000
0000
07C0
1FF0
3FF8
783C
701C
F01E
E00E
E00E
E00E
E00E
E00E
F00E
701C
783C
3FF8
1FF0
07E0
ENDCHAR
STARTCHAR 00D4
ENCODING 212
SWIDTH 739 0
DWIDTH 17 0
BBX 15 24 1 0
BITMAP
0380
07C0
06C0
0C60
0820
0000
0000
07C0
1FF0
3FF8
783C
701C
F01E
E00E
E00E
E00E
E00E
E00E
F00E
701C
783C
3FF8
1FF0
07E0
ENDCHAR
STARTCHAR 00D5
ENCODING 213
SWIDTH 739 0
DWIDTH 17 0
BBX 15 23 1 0
BITMAP
0720
0FE0
08C0
0000
0000
0000
07C0
1FF0
3FF8
783C
701C
F01E
E00E
E00E
E00E
E00E
E00E
E00E
701C
783C
3FF8
1FF0
07E0
ENDCHAR
STARTCHAR 00D6
ENCODING 214
SWIDTH 739 0
DWIDTH 17 0
BBX 15 23 1 0
BITMAP
0E70
0E70
0E70
0000
0000
0000
07C0
1FF0
3FF8
783C
701C
F01E
E00E
E00E
E00E
E00E
E00E
F00E
701C
783C
3FF8
1FF0
07E0
ENDCHAR
STARTCHAR 00D7
ENCODING 215
SWIDTH 1000 0
DWIDTH 23 0
BBX 13 12 5 1
BITMAP
C018
6030
3060
18C0
0D80
0700
0700
0D80
18C0
3060
6030
C018
ENDCHAR
STARTCHAR 00D8
ENCODING 216
SWIDTH 739 0
DWIDTH 17 0
BBX 17 19 0 -1
BITMAP
000100
03F180
0FFB00
1FFE00
3C1E00
381E00
783F00
707700
70E700
71C700
738700
770700
7E0700
3C0E00
3C1E00
3FFC00
6FF800
E3E000
400000
ENDCHAR
STARTCHAR 00D9
ENCODING 217
SWIDTH 782 0
DWIDTH 18 0
BBX 14 24 2 0
BITMAP
1C00
0C00
0E00
0600
0300
0000
0000
E01C
E01C
E01C
E01C
E01C
E01C
E01C
E01C
E01C
E01C
E01C
E01C
F03C
7038
7FF8
3FF0
0FC0
ENDCHAR
STARTCHAR 00DA
ENCODING 218
SWIDTH 782 0
DWIDTH 18 0
BBX 14 24 2 0
BITMAP
00E0
00C0
01C0
0180
0300
0000
0000
E01C
E01C
E01C
E01C
E01C
E01C
E01C
E01C
E01C
E01C
E01C
E01C
F03C
7038
7FF8
3FF0
0FC0
ENDCHAR
STARTCHAR 00DB
ENCODING 219
SWIDTH 782 0
DWIDTH 18 0
BBX 14 24 2 0
BITMAP
0780
0780
0FC0
0CC0
1860
0000
0000
E01C
E01C
E01C
E01C
E01C
E01C
E01C
E01C
E01C
E01C
E01C
E01C
F03C
7038
7FF8
3FF0
0FC0
ENDCHAR
STARTCHAR 00DC
ENCODING 220
SWIDTH 695 0
DWIDTH 16 0
BBX 14 23 1 0
BITMAP
1CE0
1CE0
1CE0
0000
0000
0000
E01C
E01C
E01C
E01C
E01C
E01C
E01C
E01C
E01C
E01C
E01C
E01C
F03C
7878
7FF8
3FF0
0FC0
ENDCHAR
STARTCHAR 00DD
ENCODING 221
SWIDTH 652 0
DWIDTH 15 0
BBX 13 23 1 0
BITMAP
01C0
0180
0300
0200
0000
0000
E038
F078
7070
78F0
38E0
3DE0
1DC0
1FC0
0F80
0F80
0700
0700
0700
0700
0700
0700
0700
ENDCHAR
STARTCHAR 00DE
ENCODING 222
SWIDTH 652 0
DWIDTH 15 0
BBX 12 17 1 0
BITMAP
E000
E000
E000
FF80
FFE0
FFE0
E0F0
E070
E070
E0F0
FFE0
FFE0
FF80
E000
E000
E000
E000
ENDCHAR
STARTCHAR 00DF
ENCODING 223
SWIDTH 608 0
DWIDTH 14 0
BBX 12 17 1 0
BITMAP
3F00
7F80
F1C0
E1C0
E1C0
E380
E700
EE00
EE00
EF80
E7C0
E1E0
E070
EE70
EE70
EFE0
E7C0
ENDCHAR
STARTCHAR 00E0
ENCODING 224
SWIDTH 565 0
DWIDTH 13 0
BBX 10 19 1 0
BITMAP
7000
3800
1800
0C00
0400
0000
0000
1F00
7F80
71C0
01C0
1FC0
7FC0
F1C0
E1C0
E1C0
F3C0
7FC0
3CC0
ENDCHAR
STARTCHAR 00E1
ENCODING 225
SWIDTH 565 0
DWIDTH 13 0
BBX 10 19 1 0
BITMAP
0380
0300
0600
0600
0C00
0000
0000
1F00
7F80
71C0
01C0
1FC0
7FC0
F1C0
E1C0
E1C0
F3C0
7FC0
3CC0
ENDCHAR
STARTCHAR 00E2
ENCODING 226
SWIDTH 565 0
DWIDTH 13 0
BBX 10 19 1 0
BITMAP
0E00
1E00
1B00
3300
2180
0000
0000
1F00
7F80
71C0
01C0
1FC0
7FC0
F1C0
E1C0
E1C0
F3C0
7FC0
3CC0
ENDCHAR
STARTCHAR 00E3
ENCODING 227
SWIDTH 565 0
DWIDTH 13 0
BBX 10 17 1 0
BITMAP
1F80
3F00
0000
0000
0000
1F00
7F80
71C0
01C0
1FC0
7FC0
F1C0
E1C0
E1C0
F3C0
7FC0
3CC0
ENDCHAR
STARTCHAR 00E4
ENCODING 228
SWIDTH 565 0
DWIDTH 13 0
BBX 10 18 1 0
BITMAP
7380
7380
7380
0000
0000
0000
3F00
7F80
F1C0
01C0
1FC0
7FC0
F1C0
E1C0
E1C0
F3C0
7FC0
3CC0
ENDCHAR
STARTCHAR 00E5
ENCODING 229
SWIDTH 565 0
DWIDTH 13 0
BBX 10 20 1 0
BITMAP
0E00
1B00
1100
1300
1F00
0E00
0000
0000
1F00
7F80
71C0
01C0
1FC0
7FC0
F1C0
E1C0
E1C0
F3C0
7FC0
3CC0
ENDCHAR
STARTCHAR 00E6
ENCODING 230
SWIDTH 869 0
DWIDTH 20 0
BBX 18 12 1 0
BITMAP
1F1F00
7FBF80
71F380
00E1C0
1FFFC0
7FFFC0
F0E000
E0E000
E0E1C0
F1F3C0
7F3F80
3E1F00
ENDCHAR
STARTCHAR 00E7
ENCODING 231
SWIDTH 521 0
DWIDTH 12 0
BBX 10 17 1 -5
BITMAP
1F00
7F80
73C0
E1C0
E000
E000
E000
E000
E1C0
73C0
7F80
3F00
0800
0E00
0300
0300
1E00
ENDCHAR
STARTCHAR 00E8
ENCODING 232
SWIDTH 565 0
DWIDTH 13 0
BBX 11 19 1 0
BITMAP
7000
3800
1800
0C00
0400
0000
0000
1F00
3F80
71C0
E1E0
FFE0
FFE0
E000
E000
E1C0
71C0
7FC0
1F00
ENDCHAR
STARTCHAR 00E9
ENCODING 233
SWIDTH 565 0
DWIDTH 13 0
BBX 11 19 1 0
BITMAP
0380
0300
0700
0600
0C00
0000
0000
1F00
3F80
71C0
E1E0
FFE0
FFE0
E000
E000
E1C0
71C0
7FC0
1F00
ENDCHAR
STARTCHAR 00EA
ENCODING 234
SWIDTH 565 0
DWIDTH 13 0
BBX 11 19 1 0
BITMAP
0E00
1F00
1B00
3180
2180
0000
0000
1F00
3F80
71C0
E1E0
FFE0
FFE0
E000
E000
E1C0
71C0
7FC0
1F00
ENDCHAR
STARTCHAR 00EB
ENCODING 235
SWIDTH 565 0
DWIDTH 13 0
BBX 11 18 1 0
BITMAP
7380
7380
7380
0000
0000
0000
1F00
3F80
73C0
E1C0
FFE0
FFE0
E000
E000
E1C0
73C0
7F80
1F00
ENDCHAR
STARTCHAR 00EC
ENCODING 236
SWIDTH 260 0
DWIDTH 6 0
BBX 5 18 -1 0
BITMAP
E0
70
30
18
00
00
38
38
38
38
38
38
38
38
38
38
38
38
ENDCHAR
STARTCHAR 00ED
ENCODING 237
SWIDTH 217 0
DWIDTH 5 0
BBX 4 18 1 0
BITMAP
70
60
E0
C0
00
00
E0
E0
E0
E0
E0
E0
E0
E0
E0
E0
E0
E0
ENDCHAR
STARTCHAR 00EE
ENCODING 238
SWIDTH 260 0
DWIDTH 6 0
BBX 7 18 -1 0
BITMAP
38
7C
6C
C6
00
00
38
38
38
38
38
38
38
38
38
38
38
38
ENDCHAR
STARTCHAR 00EF
ENCODING 239
SWIDTH 304 0
DWIDTH 7 0
BBX 8 18 -1 0
BITMAP
E7
E7
E7
00
00
00
38
38
38
38
38
38
38
38
38
38
38
38
ENDCHAR
STARTCHAR 00F0
ENCODING 240
SWIDTH 608 0
DWIDTH 14 0
BBX 12 17 1 0
BITMAP
1C60
0FC0
0F80
3B80
21C0
1FE0
3FE0
70E0
F0F0
E070
E070
E070
E070
F0F0
70E0
3FC0
1F80
ENDCHAR
STARTCHAR 00F1
ENCODING 241
SWIDTH 565 0
DWIDTH 13 0
BBX 11 17 1 0
BITMAP
1F80
3F00
0000
0000
0000
EF80
FFC0
F1E0
E0E0
E0E0
E0E0
E0E0
E0E0
E0E0
E0E0
E0E0
E0E0
ENDCHAR
STARTCHAR 00F2
ENCODING 242
SWIDTH 608 0
DWIDTH 14 0
BBX 12 19 1 0
BITMAP
3800
1C00
0C00
0600
0600
0000
0000
1F80
3FC0
70E0
F0E0
E070
E070
E070
E070
F0F0
70E0
3FC0
1F80
ENDCHAR
STARTCHAR 00F3
ENCODING 243
SWIDTH 608 0
DWIDTH 14 0
BBX 12 19 1 0
BITMAP
01C0
0380
0300
0600
0400
0000
0000
1F80
3FC0
70E0
F0E0
E070
E070
E070
E070
F0F0
70E0
3FC0
1F80
ENDCHAR
STARTCHAR 00F4
ENCODING 244
SWIDTH 608 0
DWIDTH 14 0
BBX 12 19 1 0
BITMAP
0F00
0F00
1F80
1980
30C0
0000
0000
1F80
3FC0
70E0
F0E0
E070
E070
E070
E070
F0F0
70E0
3FC0
1F80
ENDCHAR
STARTCHAR 00F5
ENCODING 245
SWIDTH 608 0
DWIDTH 14 0
BBX 12 17 1 0
BITMAP
1FC0
3F80
0000
0000
0000
1F80
3FC0
70E0
F0E0
E070
E070
E070
E070
F0F0
70E0
3FC0
1F80
ENDCHAR
STARTCHAR 00F6
ENCODING 246
SWIDTH 608 0
DWIDTH 14 0
BBX 12 18 1 0
BITMAP
39C0
39C0
39C0
0000
0000
0000
1F80
3FC0
70E0
F0E0
E070
E070
E070
E070
F0F0
70E0
3FC0
1F80
ENDCHAR
STARTCHAR 00F7
ENCODING 247
SWIDTH 1043 0
DWIDTH 24 0
BBX 14 10 5 2
BITMAP
0700
0700
0600
0000
FFFC
FFFC
0000
0200
0700
0700
ENDCHAR
STARTCHAR 00F8
ENCODING 248
SWIDTH 608 0
DWIDTH 14 0
BBX 12 15 1 -2
BITMAP
0020
0030
1FE0
3FC0
71E0
F1F0
E370
E670
EC70
F870
F8F0
70E0
7FC0
DF80
C000
ENDCHAR
STARTCHAR 00F9
ENCODING 249
SWIDTH 565 0
DWIDTH 13 0
BBX 11 19 1 0
BITMAP
7000
3800
1C00
0C00
0600
0000
0000
E0E0
E0E0
E0E0
E0E0
E0E0
E0E0
E0E0
E0E0
E0E0
F1E0
7FE0
3EE0
ENDCHAR
STARTCHAR 00FA
ENCODING 250
SWIDTH 565 0
DWIDTH 13 0
BBX 11 19 1 0
BITMAP
0380
0380
0700
0600
0C00
0000
0000
E0E0
E0E0
E0E0
E0E0
E0E0
E0E0
E0E0
E0E0
E0E0
F1E0
7FE0
3EE0
ENDCHAR
STARTCHAR 00FB
ENCODING 251
SWIDTH 565 0
DWIDTH 13 0
BBX 11 19 1 0
BITMAP
0E00
1F00
1B00
3180
2080
0000
0000
E0E0
E0E0
E0E0
E0E0
E0E0
E0E0
E0E0
E0E0
E0E0
F1E0
7FE0
3EE0
ENDCHAR
STARTCHAR 00FC
ENCODING 252
SWIDTH 565 0
DWIDTH 13 0
BBX 11 18 1 0
BITMAP
7380
7380
7380
0000
0000
0000
E0E0
E0E0
E0E0
E0E0
E0E0
E0E0
E0E0
E0E0
E0E0
F1E0
7FE0
3EE0
ENDCHAR
STARTCHAR 00FD
ENCODING 253
SWIDTH 565 0
DWIDTH 13 0
BBX 11 23 1 -5
BITMAP
0180
0380
0300
0600
0000
0000
E0E0
E0E0
F1E0
71C0
79C0
3BC0
3B80
3F80
1F80
1F00
1F00
0F00
0E00
0E00
FE00
FC00
7800
ENDCHAR
STARTCHAR 00FE
ENCODING 254
SWIDTH 652 0
DWIDTH 15 0
BBX 12 22 2 -5
BITMAP
E000
E000
E000
E000
E000
EF80
FFC0
F8E0
F0F0
E070
E070
E070
E070
F0F0
F1E0
FFC0
EF80
E000
E000
E000
E000
E000
ENDCHAR
STARTCHAR 00FF
ENCODING 255
SWIDTH 608 0
DWIDTH 14 0
BBX 12 22 1 -5
BITMAP
39C0
39C0
39C0
0000
0000
F070
F0F0
70F0
78E0
79E0
39C0
3DC0
1FC0
1F80
1F80
0F80
0F00
0F00
0F00
0E00
1E00
1C00
ENDCHAR
STARTCHAR 0131
ENCODING 305
SWIDTH 260 0
DWIDTH 6 0
BBX 3 12 1 0
BITMAP
E0
E0
E0
E0
E0
E0
E0
E0
E0
E0
E0
E0
ENDCHAR
STARTCHAR 0141
ENCODING 321
SWIDTH 652 0
DWIDTH 15 0
BBX 13 17 1 0
BITMAP
3800
3800
3900
3B00
3F00
3E00
3C00
3800
3800
7800
F800
F800
B800
3800
3FF8
3FF8
3FF8
ENDCHAR
STARTCHAR 0142
ENCODING 322
SWIDTH 391 0
DWIDTH 9 0
BBX 7 17 1 0
BITMAP
38
38
38
38
3A
3E
3E
3C
78
F8
F8
B8
38
38
38
38
38
ENDCHAR
STARTCHAR 0152
ENCODING 338
SWIDTH 1000 0
DWIDTH 23 0
BBX 21 17 1 0
BITMAP
07FFF8
1FFFF8
3FFFF8
783800
703800
F03800
E03800
E03FF8
E03FF8
E03800
E03800
F03800
703800
783800
3FFFF8
1FFFF8
07FFF8
ENDCHAR
STARTCHAR 0153
ENCODING 339
SWIDTH 913 0
DWIDTH 21 0
BBX 19 12 1 0
BITMAP
1F1F00
3FFFC0
71F1C0
F0E0E0
E0FFE0
E0FFE0
E0E000
E0E000
F1E0E0
71F1C0
3FFFC0
1F1F00
ENDCHAR
STARTCHAR 0160
ENCODING 352
SWIDTH 652 0
DWIDTH 15 0
BBX 13 24 1 0
BITMAP
18C0
1DC0
0D80
0F80
0700
0000
0000
0FC0
3FE0
38F0
7070
7000
7800
7E00
3FC0
1FF0
03F0
0078
E038
E038
F078
7FF0
3FE0
0F80
ENDCHAR
STARTCHAR 0161
ENCODING 353
SWIDTH 521 0
DWIDTH 12 0
BBX 10 19 1 0
BITMAP
6180
3300
3F00
1E00
1E00
0000
0000
3F00
7FC0
F1C0
E000
F800
7F00
1F80
03C0
E1C0
F3C0
7F80
3F00
ENDCHAR
STARTCHAR 0178
ENCODING 376
SWIDTH 695 0
DWIDTH 16 0
BBX 14 23 1 0
BITMAP
1CE0
1CE0
1CE0
0000
0000
0000
E01C
F03C
7878
7878
3CF0
3CE0
1FE0
1FC0
0F80
0F80
0700
0700
0700
0700
0700
0700
0700
ENDCHAR
STARTCHAR 017D
ENCODING 381
SWIDTH 608 0
DWIDTH 14 0
BBX 12 24 1 0
BITMAP
30C0
1180
1B80
1F00
0F00
0000
0000
FFF0
FFF0
FFF0
01F0
01E0
03C0
0780
0780
0F00
1E00
3C00
3C00
7800
F000
FFF0
FFF0
FFF0
ENDCHAR
STARTCHAR 017E
ENCODING 382
SWIDTH 521 0
DWIDTH 12 0
BBX 10 18 1 0
BITMAP
6300
3600
3E00
1C00
0000
0000
FF80
FF80
0780
0700
0E00
1E00
3C00
3800
7000
E000
FFC0
FFC0
ENDCHAR
STARTCHAR 0192
ENCODING 402
SWIDTH 521 0
DWIDTH 12 0
BBX 15 22 -2 -5
BITMAP
003E
007C
00F0
00E0
00E0
07F8
07F8
01C0
0180
0380
0380
0380
0300
0700
0700
0700
0600
0E00
0E00
1C00
FC00
F000
ENDCHAR
STARTCHAR 02C6
ENCODING 710
SWIDTH 304 0
DWIDTH 7 0
BBX 7 4 0 14
BITMAP
3C
7C
6E
C6
ENDCHAR
STARTCHAR 02C7
ENCODING 711
SWIDTH 304 0
DWIDTH 7 0
BBX 7 4 0 14
BITMAP
C6
6E
7C
3C
ENDCHAR
STARTCHAR 02D8
ENCODING 728
SWIDTH 304 0
DWIDTH 7 0
BBX 7 4 0 14
BITMAP
86
C6
FC
78
ENDCHAR
STARTCHAR 02D9
ENCODING 729
SWIDTH 130 0
DWIDTH 3 0
BBX 3 3 0 14
BITMAP
E0
E0
E0
ENDCHAR
STARTCHAR 02DA
ENCODING 730
SWIDTH 217 0
DWIDTH 5 0
BBX 5 6 0 14
BITMAP
70
D8
88
98
F8
70
ENDCHAR
STARTCHAR 02DB
ENCODING 731
SWIDTH 217 0
DWIDTH 5 0
BBX 4 6 0 -5
BITMAP
20
40
C0
C0
F0
70
ENDCHAR
STARTCHAR 02DC
ENCODING 732
SWIDTH 304 0
DWIDTH 7 0
BBX 7 3 0 14
BITMAP
7E
FE
80
ENDCHAR
STARTCHAR 02DD
ENCODING 733
SWIDTH 304 0
DWIDTH 7 0
BBX 7 4 0 14
BITMAP
66
6C
CC
88
ENDCHAR
STARTCHAR 0394
ENCODING 916
SWIDTH 652 0
DWIDTH 15 0
BBX 14 16 0 1
BITMAP
0100
0180
0380
03C0
05C0
04C0
0CE0
0860
0870
1070
1030
2038
2018
401C
401C
FFFC
ENDCHAR
STARTCHAR 03A9
ENCODING 937
SWIDTH 782 0
DWIDTH 18 0
BBX 17 17 1 0
BITMAP
07E000
181800
300C00
700E00
E00600
E00700
E00700
E00700
E00700
E00600
600E00
700C00
381800
0C6080
844180
FC7F80
FC7F80
ENDCHAR
STARTCHAR 03BC
ENCODING 956
SWIDTH 652 0
DWIDTH 15 0
BBX 13 17 1 -5
BITMAP
E0E0
E0E0
E0E0
E0E0
E0E0
E0E0
E0E0
E0E0
E0E0
F1E0
FFF8
EE78
E000
E000
E000
E000
E000
ENDCHAR
STARTCHAR 03C0
ENCODING 960
SWIDTH 565 0
DWIDTH 13 0
BBX 12 12 0 0
BITMAP
3FF0
7FF0
9980
1980
1980
1180
1180
1180
3180
3190
71E0
60E0
ENDCHAR
STARTCHAR 2013
ENCODING 8211
SWIDTH 521 0
DWIDTH 12 0
BBX 12 2 0 5
BITMAP
FFF0
FFF0
ENDCHAR
STARTCHAR 2014
ENCODING 8212
SWIDTH 1000 0
DWIDTH 23 0
BBX 23 2 0 5
BITMAP
FFFFFE
FFFFFE
ENDCHAR
STARTCHAR 2018
ENCODING 8216
SWIDTH 260 0
DWIDTH 6 0
BBX 5 6 1 11
BITMAP
38
30
70
70
E0
E0
ENDCHAR
STARTCHAR 2019
ENCODING 8217
SWIDTH 260 0
DWIDTH 6 0
BBX 4 6 1 11
BITMAP
70
70
70
E0
E0
C0
ENDCHAR
STARTCHAR 201A
ENCODING 8218
SWIDTH 260 0
DWIDTH 6 0
BBX 4 6 1 -3
BITMAP
70
70
70
E0
E0
C0
ENDCHAR
STARTCHAR 201C
ENCODING 8220
SWIDTH 478 0
DWIDTH 11 0
BBX 9 6 1 11
BITMAP
3980
3380
7380
7700
E700
E700
ENDCHAR
STARTCHAR 201D
ENCODING 8221
SWIDTH 478 0
DWIDTH 11 0
BBX 9 6 1 11
BITMAP
7380
7380
7700
E700
E600
CE00
ENDCHAR
STARTCHAR 201E
ENCODING 8222
SWIDTH 478 0
DWIDTH 11 0
BBX 9 6 1 -3
BITMAP
7380
7380
7700
E700
E600
C600
ENDCHAR
STARTCHAR 2020
ENCODING 8224
SWIDTH 565 0
DWIDTH 13 0
BBX 11 21 1 -4
BITMAP
0E00
0E00
0E00
0E00
0E00
FFE0
FFE0
0E00
0E00
0E00
0E00
0E00
0E00
0E00
0E00
0E00
0E00
0E00
0E00
0E00
0E00
ENDCHAR
STARTCHAR 2021
ENCODING 8225
SWIDTH 521 0
DWIDTH 12 0
BBX 10 21 1 -4
BITMAP
0E00
0E00
0E00
0E00
0E00
FFC0
FFC0
0E00
0E00
0E00
0E00
0E00
0E00
0E00
FFC0
FFC0
0E00
0E00
0E00
0E00
0E00
ENDCHAR
STARTCHAR 2022
ENCODING 8226
SWIDTH 304 0
DWIDTH 7 0
BBX 5 5 1 5
BITMAP
70
F8
F8
F8
70
ENDCHAR
STARTCHAR 2026
ENCODING 8230
SWIDTH 1000 0
DWIDTH 23 0
BBX 21 3 1 0
BITMAP
E07038
E07038
E07038
ENDCHAR
STARTCHAR 2030
ENCODING 8240
SWIDTH 1434 0
DWIDTH 33 0
BBX 31 17 1 0
BITMAP
3E030000
7F070000
63060000
C18E0000
C18C0000
C19C0000
C1B80000
63308000
7F73E0FC
3E6630CC
00EC1986
00CC1986
01CC1986
018C1986
030E39CE
0707F0FC
0603E078
ENDCHAR
STARTCHAR 2039
ENCODING 8249
SWIDTH 347 0
DWIDTH 8 0
BBX 5 9 2 1
BITMAP
38
70
70
E0
E0
E0
70
70
38
ENDCHAR
STARTCHAR 203A
ENCODING 8250
SWIDTH 347 0
DWIDTH 8 0
BBX 5 9 2 1
BITMAP
E0
E0
70
70
38
70
70
E0
E0
ENDCHAR
STARTCHAR 2044
ENCODING 8260
SWIDTH 565 0
DWIDTH 13 0
BBX 11 17 1 0
BITMAP
0060
00E0
00C0
01C0
0180
0300
0300
0600
0E00
0C00
1C00
1800
3000
3000
6000
E000
C000
ENDCHAR
STARTCHAR 2122
ENCODING 8482
SWIDTH 652 0
DWIDTH 15 0
BBX 13 6 1 10
BITMAP
FB18
23B8
22A8
22A8
22E8
2248
ENDCHAR
STARTCHAR 2202
ENCODING 8706
SWIDTH 521 0
DWIDTH 12 0
BBX 10 19 1 -1
BITMAP
7C00
2300
0100
0080
0080
00C0
00C0
00C0
1CC0
73C0
60C0
E0C0
C1C0
C180
C180
C180
4300
6600
1C00
ENDCHAR
STARTCHAR 220F
ENCODING 8719
SWIDTH 869 0
DWIDTH 20 0
BBX 19 21 0 -3
BITMAP
FFFFE0
3C0380
1C0380
1C0380
1C0380
1C0380
1C0380
1C0380
1C0380
1C0380
1C0380
1C0380
1C0380
1C0380
1C0380
1C0380
1C0380
1C0380
1C0380
3C0380
FF0FE0
ENDCHAR
STARTCHAR 2211
ENCODING 8721
SWIDTH 739 0
DWIDTH 17 0
BBX 15 20 1 -2
BITMAP
FFFC
700C
7004
3804
1C00
0E00
0E00
0700
0380
01C0
0180
0100
0300
0600
0C00
0800
1002
2006
7FFE
FFFE
ENDCHAR
STARTCHAR 2212
ENCODING 8722
SWIDTH 1000 0
DWIDTH 23 0
BBX 14 1 5 6
BITMAP
FFFC
ENDCHAR
STARTCHAR 221A
ENCODING 8730
SWIDTH 565 0
DWIDTH 13 0
BBX 13 16 0 0
BITMAP
0018
0010
0010
0020
0020
2020
F020
1040
1840
0840
0C80
0480
0680
0280
0300
0100
ENDCHAR
STARTCHAR 221E
ENCODING 8734
SWIDTH 1000 0
DWIDTH 23 0
BBX 15 6 4 4
BITMAP
783C
C6C6
8382
8382
C6C6
783C
ENDCHAR
STARTCHAR 222B
ENCODING 8747
SWIDTH 478 0
DWIDTH 11 0
BBX 10 21 0 -5
BITMAP
0380
07C0
0400
0400
0C00
0C00
0C00
0C00
0C00
0C00
0C00
0C00
0C00
0C00
0C00
0C00
0C00
0800
0800
4800
F000
ENDCHAR
STARTCHAR 2248
ENCODING 8776
SWIDTH 1000 0
DWIDTH 23 0
BBX 13 6 5 4
BITMAP
FE08
83F8
0000
0000
FE08
83F8
ENDCHAR
STARTCHAR 2260
ENCODING 8800
SWIDTH 1000 0
DWIDTH 23 0
BBX 14 11 5 1
BITMAP
0010
0030
0060
FFFC
0180
0300
0600
FFFC
1800
3000
2000
ENDCHAR
STARTCHAR 2264
ENCODING 8804
SWIDTH 1000 0
DWIDTH 23 0
BBX 14 13 5 0
BITMAP
0004
003C
01E0
0F00
F000
C000
7800
0780
00F0
001C
0000
0000
FFFC
ENDCHAR
STARTCHAR 2265
ENCODING 8805
SWIDTH 1000 0
DWIDTH 23 0
BBX 14 13 5 0
BITMAP
8000
F000
1E00
03C0
0078
000C
00F0
0780
3C00
E000
0000
0000
FFFC
ENDCHAR
STARTCHAR 25CA
ENCODING 9674
SWIDTH 521 0
DWIDTH 12 0
BBX 10 18 1 0
BITMAP
0C00
0E00
1A00
1300
3100
2180
6080
40C0
8040
8040
40C0
6080
2180
3100
1300
1A00
0E00
0C00
ENDCHAR
STARTCHAR FB01
ENCODING 64257
SWIDTH 652 0
DWIDTH 15 0
BBX 13 17 1 0
BITMAP
1F38
3F38
3838
3800
3800
FF38
FF38
3838
3838
3838
3838
3838
3838
3838
3838
3838
3838
ENDCHAR
STARTCHAR FB02
ENCODING 64258
SWIDTH 695 0
DWIDTH 16 0
BBX 13 17 1 0
BITMAP
1F38
3F38
3838
3838
3838
FF38
FF38
3838
3838
3838
3838
3838
3838
3838
3838
3838
3838
ENDCHAR
ENDFONT
