STARTFONT 2.1
COMMENT
COMMENT Converted from OpenType font "FreeUniversal-Bold.ttf" by "otf2bdf 3.0".
COMMENT
FONT -FreeType-FreeUniversal-Bold-R-Normal--27-270-72-72-P-136-ISO10646-1
SIZE 27 72 72
FONTBOUNDINGBOX 40 36 -2 -7
STARTPROPERTIES 19
FOUNDRY "FreeType"
FAMILY_NAME "FreeUniversal"
WEIGHT_NAME "Bold"
SLANT "R"
SETWIDTH_NAME "Normal"
ADD_STYLE_NAME ""
PIXEL_SIZE 27
POINT_SIZE 270
RESOLUTION_X 72
RESOLUTION_Y 72
SPACING "P"
AVERAGE_WIDTH 136
CHARSET_REGISTRY "ISO10646"
CHARSET_ENCODING "1"
FONT_ASCENT 28
FONT_DESCENT 6
COPYRIGHT "FreeUniveral (c) Stephen Wilson 2009    Original Font Sil-Sophia  Copyright (c) SIL International, 1994-2008."
_OTF_FONTFILE "FreeUniversal-Bold.ttf"
_OTF_PSNAME "FreeUniversal-Bold"
ENDPROPERTIES
CHARS 243
STARTCHAR 0020
ENCODING 32
SWIDTH 296 0
DWIDTH 8 0
BBX 0 0 0 0
BITMAP
ENDCHAR
STARTCHAR 0021
ENCODING 33
SWIDTH 407 0
DWIDTH 11 0
BBX 4 20 4 0
BITMAP
F0
F0
F0
F0
F0
F0
F0
F0
F0
F0
F0
F0
F0
F0
00
00
00
F0
F0
F0
ENDCHAR
STARTCHAR 0022
ENCODING 34
SWIDTH 518 0
DWIDTH 14 0
BBX 10 8 2 12
BITMAP
F3C0
F3C0
F3C0
F3C0
F3C0
E1C0
E1C0
6180
ENDCHAR
STARTCHAR 0023
ENCODING 35
SWIDTH 703 0
DWIDTH 19 0
BBX 17 20 1 0
BITMAP
01C700
018600
038E00
038E00
038E00
1FFF80
3FFF80
071C00
061800
0E3800
0E3800
0E3000
7FFE00
FFFE00
1C7000
186000
38E000
38E000
38E000
31C000
ENDCHAR
STARTCHAR 0024
ENCODING 36
SWIDTH 592 0
DWIDTH 16 0
BBX 14 24 1 -3
BITMAP
0100
07C0
1FF0
3FF8
7D78
713C
F13C
F100
FD00
7F00
3FE0
1FF0
03F8
017C
013C
F13C
F13C
F93C
7FF8
3FF0
1FE0
0100
0100
0100
ENDCHAR
STARTCHAR 0025
ENCODING 37
SWIDTH 1000 0
DWIDTH 27 0
BBX 25 20 1 0
BITMAP
1F006000
3F80E000
7BC0C000
E1C1C000
E0E38000
E0E30000
E0E70000
E0E60000
71CE0000
7FCC7C00
3F1CFE00
0039C700
003B8300
00738380
00638380
00E38380
01C38780
01C1EF00
0380FE00
03807C00
ENDCHAR
STARTCHAR 0026
ENCODING 38
SWIDTH 777 0
DWIDTH 21 0
BBX 19 20 1 0
BITMAP
0FC000
1FF000
3CF000
787800
787800
787000
3CF000
3FE000
1FC000
1F8000
3F8780
7BC780
F9E780
F0F700
F07F00
F03F00
F01E00
7C7F00
3FFF80
0FE3E0
ENDCHAR
STARTCHAR 0027
ENCODING 39
SWIDTH 407 0
DWIDTH 11 0
BBX 4 8 4 12
BITMAP
F0
E0
E0
E0
E0
E0
E0
E0
ENDCHAR
STARTCHAR 0028
ENCODING 40
SWIDTH 370 0
DWIDTH 10 0
BBX 6 24 2 -4
BITMAP
1C
38
38
78
78
70
70
F0
F0
F0
F0
F0
F0
F0
F0
F0
F0
70
70
78
78
38
38
1C
ENDCHAR
STARTCHAR 0029
ENCODING 41
SWIDTH 407 0
DWIDTH 11 0
BBX 6 24 3 -4
BITMAP
E0
F0
70
70
78
78
78
38
38
3C
3C
3C
3C
3C
3C
38
38
78
78
78
70
70
F0
E0
ENDCHAR
STARTCHAR 002A
ENCODING 42
SWIDTH 629 0
DWIDTH 17 0
BBX 11 11 3 9
BITMAP
1100
3B80
3B80
1B00
EEE0
FFE0
CE60
1B00
3B80
3B80
1100
ENDCHAR
STARTCHAR 002B
ENCODING 43
SWIDTH 962 0
DWIDTH 26 0
BBX 16 16 5 0
BITMAP
0180
0180
0180
0180
0180
0180
0180
FFFF
FFFF
0180
0180
0180
0180
0180
0180
0180
ENDCHAR
STARTCHAR 002C
ENCODING 44
SWIDTH 296 0
DWIDTH 8 0
BBX 6 7 1 -4
BITMAP
3C
38
38
70
70
70
E0
ENDCHAR
STARTCHAR 002D
ENCODING 45
SWIDTH 333 0
DWIDTH 9 0
BBX 7 4 1 5
BITMAP
FE
FE
FE
FE
ENDCHAR
STARTCHAR 002E
ENCODING 46
SWIDTH 333 0
DWIDTH 9 0
BBX 4 4 3 0
BITMAP
F0
F0
F0
F0
ENDCHAR
STARTCHAR 002F
ENCODING 47
SWIDTH 444 0
DWIDTH 12 0
BBX 8 21 2 -1
BITMAP
07
07
07
06
0E
0E
0C
1C
1C
18
38
38
38
30
70
70
60
E0
E0
E0
C0
ENDCHAR
STARTCHAR 0030
ENCODING 48
SWIDTH 555 0
DWIDTH 15 0
BBX 14 20 1 0
BITMAP
0F80
1FE0
3CF0
7870
7038
F038
F038
F03C
F03C
F03C
F03C
F03C
F03C
F038
F038
7038
7878
3CF0
1FE0
0F80
ENDCHAR
STARTCHAR 0031
ENCODING 49
SWIDTH 555 0
DWIDTH 15 0
BBX 8 20 3 0
BITMAP
0F
3F
7F
FF
EF
CF
0F
0F
0F
0F
0F
0F
0F
0F
0F
0F
0F
0F
0F
0F
ENDCHAR
STARTCHAR 0032
ENCODING 50
SWIDTH 555 0
DWIDTH 15 0
BBX 14 20 1 0
BITMAP
07C0
1FF0
3FF8
7C78
783C
783C
003C
0078
0078
00F0
01F0
03E0
07C0
0F80
1F00
7C00
F800
FFFC
FFFC
FFFC
ENDCHAR
STARTCHAR 0033
ENCODING 51
SWIDTH 555 0
DWIDTH 15 0
BBX 13 20 1 0
BITMAP
0F80
3FE0
7FF0
F8F0
F078
0078
0078
00F0
0FE0
0F80
0FE0
00F0
0078
0078
F078
F078
F8F0
7FF0
3FE0
1F80
ENDCHAR
STARTCHAR 0034
ENCODING 52
SWIDTH 555 0
DWIDTH 15 0
BBX 14 20 1 0
BITMAP
01F0
03F0
03F0
07F0
07F0
0EF0
1EF0
1CF0
3CF0
38F0
78F0
70F0
F0F0
FFFC
FFFC
FFFC
00F0
00F0
00F0
00F0
ENDCHAR
STARTCHAR 0035
ENCODING 53
SWIDTH 555 0
DWIDTH 15 0
BBX 13 20 1 0
BITMAP
FFF0
FFF0
FFF0
F000
F000
F000
F000
F7C0
FFE0
FDF0
F078
F078
0078
0078
0078
F078
F0F0
7FF0
3FE0
1F80
ENDCHAR
STARTCHAR 0036
ENCODING 54
SWIDTH 555 0
DWIDTH 15 0
BBX 13 20 1 0
BITMAP
0FC0
1FE0
3FF0
7878
7878
7000
F000
F7C0
EFE0
FDF0
F878
F078
F078
F078
F078
7078
78F0
3FF0
3FE0
0F80
ENDCHAR
STARTCHAR 0037
ENCODING 55
SWIDTH 555 0
DWIDTH 15 0
BBX 13 20 1 0
BITMAP
FFF8
FFF8
FFF8
0078
0078
00F0
00F0
01E0
01E0
01E0
03C0
03C0
0780
0780
0F80
0F00
1F00
1E00
1E00
3E00
ENDCHAR
STARTCHAR 0038
ENCODING 56
SWIDTH 555 0
DWIDTH 15 0
BBX 14 20 1 0
BITMAP
1FC0
3FF0
7FF0
78F8
F078
F078
F078
78F0
3FE0
1FC0
3FF0
7878
F038
F03C
F03C
F03C
F878
7FF8
3FF0
1FC0
ENDCHAR
STARTCHAR 0039
ENCODING 57
SWIDTH 555 0
DWIDTH 15 0
BBX 13 20 1 0
BITMAP
0F80
3FC0
7FE0
78F0
F070
F078
F078
F078
F078
78F8
7FB8
3F38
0078
0078
0070
F0F0
78F0
7FE0
3FC0
0F80
ENDCHAR
STARTCHAR 003A
ENCODING 58
SWIDTH 333 0
DWIDTH 9 0
BBX 4 14 4 0
BITMAP
F0
F0
F0
F0
00
00
00
00
00
00
F0
F0
F0
F0
ENDCHAR
STARTCHAR 003B
ENCODING 59
SWIDTH 296 0
DWIDTH 8 0
BBX 6 17 1 -3
BITMAP
3C
3C
3C
3C
00
00
00
00
00
00
3C
38
78
70
70
E0
E0
ENDCHAR
STARTCHAR 003C
ENCODING 60
SWIDTH 962 0
DWIDTH 26 0
BBX 16 14 5 1
BITMAP
0003
001F
0078
03C0
0F00
7800
E000
E000
3C00
0780
01E0
003C
000F
0001
ENDCHAR
STARTCHAR 003D
ENCODING 61
SWIDTH 962 0
DWIDTH 26 0
BBX 16 7 5 5
BITMAP
FFFF
FFFF
0000
0000
0000
FFFF
FFFF
ENDCHAR
STARTCHAR 003E
ENCODING 62
SWIDTH 962 0
DWIDTH 26 0
BBX 16 14 5 1
BITMAP
C000
F800
1E00
03C0
00F0
001E
0007
0007
003C
01E0
0780
3C00
F000
8000
ENDCHAR
STARTCHAR 003F
ENCODING 63
SWIDTH 555 0
DWIDTH 15 0
BBX 13 20 1 0
BITMAP
1F80
3FE0
79F0
F070
2078
0078
0070
00F0
01E0
03C0
0780
0E00
0E00
0E00
0E00
0000
0000
0F00
0F00
0F00
ENDCHAR
STARTCHAR 0040
ENCODING 64
SWIDTH 1037 0
DWIDTH 28 0
BBX 26 25 1 -5
BITMAP
003F8000
01FFF000
07FFFC00
0FE0FE00
1F001F00
3E000F00
3C3DE780
78FFE780
79F7E3C0
F1E1E3C0
F1C1E3C0
F3C1E3C0
F3C1E3C0
F3C1E3C0
F3C1E3C0
F1C1E380
71E3E780
78FFFF00
7CFEFF00
3C3C3C00
1F000000
0FC02000
07FFE000
01FFE000
007FE000
ENDCHAR
STARTCHAR 0041
ENCODING 65
SWIDTH 703 0
DWIDTH 19 0
BBX 19 20 0 0
BITMAP
01F000
01F000
01F800
03F800
03F800
03BC00
07BC00
079C00
0F1E00
0F1E00
0F1E00
1E0F00
1E0F00
1FFF80
3FFF80
3FFF80
3803C0
7803C0
7803C0
F001E0
ENDCHAR
STARTCHAR 0042
ENCODING 66
SWIDTH 666 0
DWIDTH 18 0
BBX 15 20 2 0
BITMAP
FFE0
FFF0
FFF8
F07C
F03C
F03C
F038
F078
FFF0
FFC0
FFF8
F03C
F01C
F01E
F01E
F01E
F03C
FFFC
FFF8
FFE0
ENDCHAR
STARTCHAR 0043
ENCODING 67
SWIDTH 703 0
DWIDTH 19 0
BBX 17 20 1 0
BITMAP
07F000
0FFC00
3FFE00
3C1F00
780F00
700F00
F00000
F00000
F00000
F00000
F00000
F00000
F00000
F00F80
700F00
781F00
3C3E00
3FFE00
1FF800
07E000
ENDCHAR
STARTCHAR 0044
ENCODING 68
SWIDTH 703 0
DWIDTH 19 0
BBX 16 20 2 0
BITMAP
FF80
FFF0
FFF8
F07C
F03E
F01E
F00F
F00F
F00F
F00F
F00F
F00F
F00F
F00F
F01E
F03E
F07C
FFF8
FFF0
FF80
ENDCHAR
STARTCHAR 0045
ENCODING 69
SWIDTH 629 0
DWIDTH 17 0
BBX 13 20 2 0
BITMAP
FFF8
FFF8
FFF8
F000
F000
F000
F000
F000
FFF8
FFF8
FFF8
F000
F000
F000
F000
F000
F000
FFF8
FFF8
FFF8
ENDCHAR
STARTCHAR 0046
ENCODING 70
SWIDTH 592 0
DWIDTH 16 0
BBX 13 20 2 0
BITMAP
FFF8
FFF8
FFF8
F000
F000
F000
F000
F000
FFF0
FFF0
FFF0
F000
F000
F000
F000
F000
F000
F000
F000
F000
ENDCHAR
STARTCHAR 0047
ENCODING 71
SWIDTH 740 0
DWIDTH 20 0
BBX 18 20 1 0
BITMAP
01F800
0FFE00
1FFF00
3E0F80
7C0380
7803C0
700000
F00000
F00000
F03FC0
F03FC0
F03FC0
F003C0
F003C0
7803C0
7C03C0
3F03C0
1FFFC0
0FFFC0
01FE00
ENDCHAR
STARTCHAR 0048
ENCODING 72
SWIDTH 740 0
DWIDTH 20 0
BBX 16 20 2 0
BITMAP
F00F
F00F
F00F
F00F
F00F
F00F
F00F
F00F
FFFF
FFFF
FFFF
F00F
F00F
F00F
F00F
F00F
F00F
F00F
F00F
F00F
ENDCHAR
STARTCHAR 0049
ENCODING 73
SWIDTH 296 0
DWIDTH 8 0
BBX 4 20 2 0
BITMAP
F0
F0
F0
F0
F0
F0
F0
F0
F0
F0
F0
F0
F0
F0
F0
F0
F0
F0
F0
F0
ENDCHAR
STARTCHAR 004A
ENCODING 74
SWIDTH 629 0
DWIDTH 17 0
BBX 14 20 1 0
BITMAP
003C
003C
003C
003C
003C
003C
003C
003C
003C
003C
003C
003C
003C
003C
F03C
F038
F878
7FF0
7FE0
1FC0
ENDCHAR
STARTCHAR 004B
ENCODING 75
SWIDTH 666 0
DWIDTH 18 0
BBX 15 20 2 0
BITMAP
F03C
F07C
F0F8
F1F0
F1E0
F3E0
F7C0
FF80
FF00
FF00
FF80
F7C0
F7C0
F3E0
F1F0
F0F0
F0F8
F07C
F03E
F03E
ENDCHAR
STARTCHAR 004C
ENCODING 76
SWIDTH 592 0
DWIDTH 16 0
BBX 13 20 2 0
BITMAP
F000
F000
F000
F000
F000
F000
F000
F000
F000
F000
F000
F000
F000
F000
F000
F000
F000
FFF8
FFF8
FFF8
ENDCHAR
STARTCHAR 004D
ENCODING 77
SWIDTH 925 0
DWIDTH 25 0
BBX 21 20 2 0
BITMAP
FC01F8
FE03F8
FE03F8
FE03F8
FF07F8
FF07F8
F70778
F70F78
F78F78
F78F78
F38E78
F3DE78
F3DE78
F1DC78
F1FC78
F1FC78
F0F878
F0F878
F0F878
F0F878
ENDCHAR
STARTCHAR 004E
ENCODING 78
SWIDTH 777 0
DWIDTH 21 0
BBX 17 20 2 0
BITMAP
FC0780
FC0780
FE0780
FE0780
FF0780
FF0780
F78780
F78780
F3C780
F3C780
F1E780
F1E780
F0F780
F0F780
F07F80
F07F80
F03F80
F03F80
F01F80
F01F80
ENDCHAR
STARTCHAR 004F
ENCODING 79
SWIDTH 740 0
DWIDTH 20 0
BBX 18 20 1 0
BITMAP
03F000
0FFC00
1FFE00
3E1F00
780780
780780
F003C0
F003C0
F003C0
F003C0
F003C0
F003C0
F003C0
F003C0
780780
780780
3E1F00
1FFE00
0FFC00
03F000
ENDCHAR
STARTCHAR 0050
ENCODING 80
SWIDTH 629 0
DWIDTH 17 0
BBX 14 20 2 0
BITMAP
FFC0
FFF0
FFF8
F07C
F03C
F03C
F03C
F03C
F07C
FFF8
FFF0
FFC0
F000
F000
F000
F000
F000
F000
F000
F000
ENDCHAR
STARTCHAR 0051
ENCODING 81
SWIDTH 814 0
DWIDTH 22 0
BBX 20 20 1 0
BITMAP
03F000
0FFC00
3FFE00
3E1F00
780780
780780
F003C0
F003C0
F003C0
F003C0
F003C0
F003C0
F003C0
F003C0
780780
780780
3E1F00
1FFFF0
0FFFF0
03FFF0
ENDCHAR
STARTCHAR 0052
ENCODING 82
SWIDTH 666 0
DWIDTH 18 0
BBX 15 20 2 0
BITMAP
FFE0
FFF8
FFFC
F03E
F01E
F01E
F01E
F01E
F07C
FFF8
FFF0
FFFC
F03C
F03C
F01C
F01E
F01E
F01E
F01E
F00E
ENDCHAR
STARTCHAR 0053
ENCODING 83
SWIDTH 666 0
DWIDTH 18 0
BBX 16 20 1 0
BITMAP
07E0
1FF8
3FFC
3C3C
781E
781E
7800
7C00
3F80
1FF0
0FFC
00FE
001E
000F
F00F
F00E
783E
7FFC
3FF8
07E0
ENDCHAR
STARTCHAR 0054
ENCODING 84
SWIDTH 666 0
DWIDTH 18 0
BBX 16 20 1 0
BITMAP
FFFF
FFFF
FFFF
03C0
03C0
03C0
03C0
03C0
03C0
03C0
03C0
03C0
03C0
03C0
03C0
03C0
03C0
03C0
03C0
03C0
ENDCHAR
STARTCHAR 0055
ENCODING 85
SWIDTH 777 0
DWIDTH 21 0
BBX 17 20 2 0
BITMAP
F00780
F00780
F00780
F00780
F00780
F00780
F00780
F00780
F00780
F00780
F00780
F00780
F00780
F00700
F00F00
780F00
7C1E00
3FFE00
1FF800
07E000
ENDCHAR
STARTCHAR 0056
ENCODING 86
SWIDTH 740 0
DWIDTH 20 0
BBX 19 20 0 0
BITMAP
F801E0
7801E0
7803E0
3C03C0
3C03C0
3E07C0
1E0780
1E0780
1F0F80
0F0F00
0F0F00
0F9E00
079E00
079E00
07FC00
03FC00
03FC00
01F800
01F800
01F000
ENDCHAR
STARTCHAR 0057
ENCODING 87
SWIDTH 1000 0
DWIDTH 27 0
BBX 27 20 0 0
BITMAP
F81F03E0
781F03C0
781F03C0
783F83C0
783F83C0
3C3B8780
3C3B8780
3C7BC780
3C7BC780
1C71C700
1E71CF00
1EF1EF00
1EF1EF00
0EE0EE00
0EE0EE00
0FE0FE00
0FE0FE00
07C07C00
07C07C00
07C07C00
ENDCHAR
STARTCHAR 0058
ENCODING 88
SWIDTH 703 0
DWIDTH 19 0
BBX 17 20 1 0
BITMAP
F80F80
780F00
7C1E00
3E1E00
1E3C00
1F7800
0F7800
07F000
07E000
03E000
07E000
07F000
0FF000
1E7800
1E7C00
3C3C00
3C1E00
781F00
F00F00
F00780
ENDCHAR
STARTCHAR 0059
ENCODING 89
SWIDTH 629 0
DWIDTH 17 0
BBX 16 20 1 0
BITMAP
F01F
F81E
781E
7C3C
3C3C
3C78
1E78
1EF0
0FF0
0FE0
07E0
03C0
03C0
03C0
03C0
03C0
03C0
03C0
03C0
03C0
ENDCHAR
STARTCHAR 005A
ENCODING 90
SWIDTH 629 0
DWIDTH 17 0
BBX 15 20 1 0
BITMAP
7FFE
7FFE
7FFE
003E
007C
00F8
00F8
01F0
03E0
07E0
07C0
0F80
1F00
3F00
3E00
7C00
F800
FFFE
FFFE
FFFE
ENDCHAR
STARTCHAR 005B
ENCODING 91
SWIDTH 370 0
DWIDTH 10 0
BBX 6 25 2 -5
BITMAP
FC
FC
F0
F0
F0
F0
F0
F0
F0
F0
F0
F0
F0
F0
F0
F0
F0
F0
F0
F0
F0
F0
F0
FC
FC
ENDCHAR
STARTCHAR 005C
ENCODING 92
SWIDTH 444 0
DWIDTH 12 0
BBX 9 21 1 -1
BITMAP
E000
6000
7000
7000
3000
3800
3800
3800
1800
1C00
1C00
0C00
0E00
0E00
0600
0600
0700
0700
0300
0380
0380
ENDCHAR
STARTCHAR 005D
ENCODING 93
SWIDTH 407 0
DWIDTH 11 0
BBX 7 25 2 -5
BITMAP
FE
FE
1E
1E
1E
1E
1E
1E
1E
1E
1E
1E
1E
1E
1E
1E
1E
1E
1E
1E
1E
1E
1E
FE
FE
ENDCHAR
STARTCHAR 005E
ENCODING 94
SWIDTH 1000 0
DWIDTH 27 0
BBX 13 17 7 0
BITMAP
0200
0700
0500
0500
0D80
0880
18C0
18C0
1040
3060
3060
2020
6030
4010
C018
C018
8008
ENDCHAR
STARTCHAR 005F
ENCODING 95
SWIDTH 518 0
DWIDTH 14 0
BBX 14 2 0 -4
BITMAP
FFFC
FFFC
ENDCHAR
STARTCHAR 0060
ENCODING 96
SWIDTH 259 0
DWIDTH 7 0
BBX 5 5 0 16
BITMAP
E0
70
70
38
18
ENDCHAR
STARTCHAR 0061
ENCODING 97
SWIDTH 555 0
DWIDTH 15 0
BBX 12 14 1 0
BITMAP
1F80
3FE0
79F0
70F0
00F0
3FF0
7FF0
F8F0
F0F0
F0F0
F0F0
FBF0
7F70
3E70
ENDCHAR
STARTCHAR 0062
ENCODING 98
SWIDTH 629 0
DWIDTH 17 0
BBX 14 20 2 0
BITMAP
F000
F000
F000
F000
F000
F000
F7C0
FFF0
FDF0
F878
F078
F03C
F03C
F03C
F03C
F038
F878
FCF0
FFF0
F3C0
ENDCHAR
STARTCHAR 0063
ENCODING 99
SWIDTH 518 0
DWIDTH 14 0
BBX 12 14 1 0
BITMAP
1F80
3FE0
79E0
70E0
F0F0
F000
F000
F000
F000
F0F0
F0E0
79E0
3FC0
1F80
ENDCHAR
STARTCHAR 0064
ENCODING 100
SWIDTH 592 0
DWIDTH 16 0
BBX 14 20 1 0
BITMAP
003C
003C
003C
003C
003C
003C
1FBC
3FFC
7CFC
787C
F03C
F03C
F03C
F03C
F03C
F03C
787C
7DFC
3FBC
0F3C
ENDCHAR
STARTCHAR 0065
ENCODING 101
SWIDTH 555 0
DWIDTH 15 0
BBX 13 14 1 0
BITMAP
0F80
3FE0
79F0
70F0
F0F0
FFF0
FFF8
F000
F000
F0F0
70F0
79F0
3FE0
1F80
ENDCHAR
STARTCHAR 0066
ENCODING 102
SWIDTH 407 0
DWIDTH 11 0
BBX 10 20 1 0
BITMAP
0FC0
1FC0
3E40
3C00
3C00
3C00
FF80
FF80
3C00
3C00
3C00
3C00
3C00
3C00
3C00
3C00
3C00
3C00
3C00
3C00
ENDCHAR
STARTCHAR 0067
ENCODING 103
SWIDTH 592 0
DWIDTH 16 0
BBX 14 19 1 -5
BITMAP
1FBC
3FFC
7CFC
787C
F03C
F03C
F03C
F03C
F03C
F03C
707C
7CFC
3FBC
0F3C
003C
7838
7CF8
3FF0
0FC0
ENDCHAR
STARTCHAR 0068
ENCODING 104
SWIDTH 592 0
DWIDTH 16 0
BBX 13 20 2 0
BITMAP
F000
F000
F000
F000
F000
F000
F7C0
FFF0
FDF0
F878
F078
F078
F078
F078
F078
F078
F078
F078
F078
F078
ENDCHAR
STARTCHAR 0069
ENCODING 105
SWIDTH 222 0
DWIDTH 6 0
BBX 4 20 1 0
BITMAP
F0
F0
F0
F0
00
00
F0
F0
F0
F0
F0
F0
F0
F0
F0
F0
F0
F0
F0
F0
ENDCHAR
STARTCHAR 006A
ENCODING 106
SWIDTH 333 0
DWIDTH 9 0
BBX 5 25 3 -5
BITMAP
78
78
78
78
00
00
78
78
78
78
78
78
78
78
78
78
78
78
78
78
78
78
F8
F8
F0
ENDCHAR
STARTCHAR 006B
ENCODING 107
SWIDTH 555 0
DWIDTH 15 0
BBX 12 20 2 0
BITMAP
F000
F000
F000
F000
F000
F000
F0F0
F1E0
F3C0
F780
FF80
FF00
FF00
FF00
F780
F7C0
F3C0
F1E0
F1F0
F0F0
ENDCHAR
STARTCHAR 006C
ENCODING 108
SWIDTH 259 0
DWIDTH 7 0
BBX 4 20 2 0
BITMAP
F0
F0
F0
F0
F0
F0
F0
F0
F0
F0
F0
F0
F0
F0
F0
F0
F0
F0
F0
F0
ENDCHAR
STARTCHAR 006D
ENCODING 109
SWIDTH 925 0
DWIDTH 25 0
BBX 22 14 2 0
BITMAP
F3E3E0
FFF7F8
FDFEF8
F07878
F0783C
F0783C
F0783C
F0783C
F0783C
F0783C
F0783C
F0783C
F0783C
F0783C
ENDCHAR
STARTCHAR 006E
ENCODING 110
SWIDTH 592 0
DWIDTH 16 0
BBX 13 14 2 0
BITMAP
F7C0
FFF0
FDF0
F078
F078
F078
F078
F078
F078
F078
F078
F078
F078
F078
ENDCHAR
STARTCHAR 006F
ENCODING 111
SWIDTH 592 0
DWIDTH 16 0
BBX 14 14 1 0
BITMAP
0FC0
3FE0
7CF0
7878
F03C
F03C
F03C
F03C
F03C
F03C
7878
7CF8
3FF0
0FC0
ENDCHAR
STARTCHAR 0070
ENCODING 112
SWIDTH 629 0
DWIDTH 17 0
BBX 14 19 2 -5
BITMAP
F3C0
FFF0
FDF0
F878
F038
F03C
F03C
F03C
F03C
F078
F078
FDF8
FFF0
F7C0
F000
F000
F000
F000
F000
ENDCHAR
STARTCHAR 0071
ENCODING 113
SWIDTH 592 0
DWIDTH 16 0
BBX 14 19 1 -5
BITMAP
0F3C
3FFC
7DFC
787C
F03C
F03C
F03C
F03C
F03C
F03C
787C
7CFC
3FFC
1FBC
003C
003C
003C
003C
003C
ENDCHAR
STARTCHAR 0072
ENCODING 114
SWIDTH 407 0
DWIDTH 11 0
BBX 9 14 2 0
BITMAP
F780
FF80
FF80
FC00
F000
F000
F000
F000
F000
F000
F000
F000
F000
F000
ENDCHAR
STARTCHAR 0073
ENCODING 115
SWIDTH 518 0
DWIDTH 14 0
BBX 12 14 1 0
BITMAP
1F80
7FC0
7BE0
F1E0
F000
7E00
7FC0
1FE0
01F0
F0F0
F0F0
F9E0
7FC0
1F80
ENDCHAR
STARTCHAR 0074
ENCODING 116
SWIDTH 444 0
DWIDTH 12 0
BBX 10 18 1 0
BITMAP
0200
0E00
1E00
1E00
FFC0
FFC0
1E00
1E00
1E00
1E00
1E00
1E00
1E00
1E00
1E00
1F00
0FC0
07C0
ENDCHAR
STARTCHAR 0075
ENCODING 117
SWIDTH 592 0
DWIDTH 16 0
BBX 13 14 2 0
BITMAP
F078
F078
F078
F078
F078
F078
F078
F078
F078
F078
F0F8
F9F8
7FF8
3E78
ENDCHAR
STARTCHAR 0076
ENCODING 118
SWIDTH 555 0
DWIDTH 15 0
BBX 14 14 0 0
BITMAP
F03C
783C
783C
3878
3C78
3C70
1CF0
1EF0
1EE0
0FE0
0FE0
0FC0
07C0
07C0
ENDCHAR
STARTCHAR 0077
ENCODING 119
SWIDTH 851 0
DWIDTH 23 0
BBX 23 14 0 0
BITMAP
F07C1E
707C1C
787C3C
78FE3C
38EE3C
3CEE38
3DEF78
3DE778
1DC770
1FC7F0
1FC7F0
0F83E0
0F83E0
0F83E0
ENDCHAR
STARTCHAR 0078
ENCODING 120
SWIDTH 555 0
DWIDTH 15 0
BBX 13 14 1 0
BITMAP
F078
78F0
7CE0
3DE0
1FC0
1F80
0F80
1F80
1FC0
3FE0
39E0
78F0
F0F8
F078
ENDCHAR
STARTCHAR 0079
ENCODING 121
SWIDTH 555 0
DWIDTH 15 0
BBX 14 19 0 -5
BITMAP
F83C
783C
783C
3C78
3C78
3C70
1EF0
1EF0
0EE0
0FE0
0FE0
07C0
07C0
03C0
0780
0780
0780
0F00
0F00
ENDCHAR
STARTCHAR 007A
ENCODING 122
SWIDTH 481 0
DWIDTH 13 0
BBX 11 14 1 0
BITMAP
FFE0
FFE0
01E0
03E0
07C0
0780
0F00
1E00
3C00
7C00
F800
F000
FFE0
FFE0
ENDCHAR
STARTCHAR 007B
ENCODING 123
SWIDTH 481 0
DWIDTH 13 0
BBX 10 27 2 -7
BITMAP
03C0
0FC0
1F80
1E00
1E00
1E00
1E00
1E00
1E00
1C00
1C00
3C00
F800
E000
F800
7C00
3C00
1C00
1E00
1E00
1E00
1E00
1E00
1E00
1F80
0FC0
07C0
ENDCHAR
STARTCHAR 007C
ENCODING 124
SWIDTH 370 0
DWIDTH 10 0
BBX 2 29 4 -7
BITMAP
C0
C0
C0
C0
C0
C0
C0
C0
C0
C0
C0
C0
C0
C0
C0
C0
C0
C0
C0
C0
C0
C0
C0
C0
C0
C0
C0
C0
C0
ENDCHAR
STARTCHAR 007D
ENCODING 125
SWIDTH 518 0
DWIDTH 14 0
BBX 10 27 2 -7
BITMAP
F000
FC00
7C00
1E00
1E00
1E00
1E00
1E00
1E00
1E00
1E00
0F00
07C0
03C0
07C0
0F00
1E00
1E00
1E00
1E00
1E00
1E00
1E00
1E00
7C00
FC00
F000
ENDCHAR
STARTCHAR 007E
ENCODING 126
SWIDTH 518 0
DWIDTH 14 0
BBX 14 3 0 5
BITMAP
3F9C
7FF8
E1F0
ENDCHAR
STARTCHAR 00A0
ENCODING 160
SWIDTH 296 0
DWIDTH 8 0
BBX 0 0 0 0
BITMAP
ENDCHAR
STARTCHAR 00A1
ENCODING 161
SWIDTH 370 0
DWIDTH 10 0
BBX 4 19 3 -5
BITMAP
F0
F0
F0
00
00
F0
F0
F0
F0
F0
F0
F0
F0
F0
F0
F0
F0
F0
F0
ENDCHAR
STARTCHAR 00A2
ENCODING 162
SWIDTH 592 0
DWIDTH 16 0
BBX 12 20 2 -3
BITMAP
00C0
00C0
0080
0F80
3FE0
7DE0
73F0
F3F0
F200
F200
F600
F400
F4F0
7CF0
79E0
3FE0
1F80
1800
1000
3000
ENDCHAR
STARTCHAR 00A3
ENCODING 163
SWIDTH 555 0
DWIDTH 15 0
BBX 14 20 1 0
BITMAP
07E0
1FF8
3E78
3C3C
3C3C
3C00
3C00
3C00
FF80
FF80
3C00
3C00
3C00
3C00
3C00
3C00
3C00
3C00
FFFC
FFFC
ENDCHAR
STARTCHAR 00A4
ENCODING 164
SWIDTH 629 0
DWIDTH 17 0
BBX 15 14 1 5
BITMAP
C006
63CC
37F8
1C30
1818
300C
300C
300C
300C
1818
1C30
3FF8
63CC
C006
ENDCHAR
STARTCHAR 00A5
ENCODING 165
SWIDTH 629 0
DWIDTH 17 0
BBX 15 20 1 0
BITMAP
F01E
F03E
783C
787C
3878
3C78
FCFE
FEFE
1FE0
0FE0
0FC0
FFFE
FFFE
0780
0780
0780
0780
0780
0780
0780
ENDCHAR
STARTCHAR 00A6
ENCODING 166
SWIDTH 333 0
DWIDTH 9 0
BBX 1 25 4 -5
BITMAP
80
80
80
80
80
80
80
80
80
80
80
00
00
00
80
80
80
80
80
80
80
80
80
80
80
ENDCHAR
STARTCHAR 00A7
ENCODING 167
SWIDTH 481 0
DWIDTH 13 0
BBX 11 24 1 -4
BITMAP
1F80
3FC0
79C0
F040
F000
F800
7C00
3F00
3F80
7FC0
F3E0
E1E0
E1C0
F3C0
FF80
7E00
1F80
07C0
03E0
01E0
01C0
C3C0
FF80
7F00
ENDCHAR
STARTCHAR 00A8
ENCODING 168
SWIDTH 333 0
DWIDTH 9 0
BBX 9 3 0 17
BITMAP
E380
E380
E380
ENDCHAR
STARTCHAR 00A9
ENCODING 169
SWIDTH 888 0
DWIDTH 24 0
BBX 20 20 2 0
BITMAP
01F800
07FE00
1F0F80
3C03C0
31FCC0
63FEE0
679E60
C70F30
CF0030
CF0030
CF0030
CF0F30
C70E30
679E60
63FC60
31F8C0
3801C0
1E0780
07FE00
01F800
ENDCHAR
STARTCHAR 00AA
ENCODING 170
SWIDTH 407 0
DWIDTH 11 0
BBX 9 13 1 7
BITMAP
3E00
7F80
6380
0380
3F80
7380
E380
E380
FF80
7D80
0000
0000
FF80
ENDCHAR
STARTCHAR 00AB
ENCODING 171
SWIDTH 592 0
DWIDTH 16 0
BBX 14 11 1 2
BITMAP
1E3C
1C38
3C78
78F0
78F0
F1E0
78F0
38F0
3C78
1C38
1E3C
ENDCHAR
STARTCHAR 00AC
ENCODING 172
SWIDTH 629 0
DWIDTH 17 0
BBX 15 6 1 6
BITMAP
FFFE
FFFE
0006
0006
0006
0006
ENDCHAR
STARTCHAR 00AE
ENCODING 174
SWIDTH 888 0
DWIDTH 24 0
BBX 20 20 2 0
BITMAP
01F800
07FE00
1F0F80
3C03C0
33FCC0
63FEE0
630E60
C30630
C31C30
C3F830
C3FC30
C30C30
C30E30
630660
630660
3306C0
3801C0
1E0780
07FE00
01F800
ENDCHAR
STARTCHAR 00AF
ENCODING 175
SWIDTH 333 0
DWIDTH 9 0
BBX 9 2 0 18
BITMAP
FF80
FF80
ENDCHAR
STARTCHAR 00B0
ENCODING 176
SWIDTH 296 0
DWIDTH 8 0
BBX 6 6 1 14
BITMAP
78
CC
84
84
CC
78
ENDCHAR
STARTCHAR 00B1
ENCODING 177
SWIDTH 962 0
DWIDTH 26 0
BBX 16 16 5 0
BITMAP
0180
0180
0180
0180
FFFF
FFFF
0180
0180
0180
0180
0180
0000
0000
0000
FFFF
FFFF
ENDCHAR
STARTCHAR 00B2
ENCODING 178
SWIDTH 407 0
DWIDTH 11 0
BBX 9 11 1 9
BITMAP
3E00
7F00
E380
0380
0700
0F00
1E00
3800
7000
FF00
FF00
ENDCHAR
STARTCHAR 00B3
ENCODING 179
SWIDTH 370 0
DWIDTH 10 0
BBX 8 11 1 9
BITMAP
3C
FE
E7
07
1E
1E
07
07
E7
FE
7C
ENDCHAR
STARTCHAR 00B4
ENCODING 180
SWIDTH 222 0
DWIDTH 6 0
BBX 6 5 1 16
BITMAP
3C
38
70
60
C0
ENDCHAR
STARTCHAR 00B6
ENCODING 182
SWIDTH 555 0
DWIDTH 15 0
BBX 13 24 1 -4
BITMAP
1FF8
3E60
7E60
FE60
FE60
FE60
FE60
7E60
7E60
1E60
0660
0660
0660
0660
0660
0660
0660
0660
0660
0660
0660
0660
0660
0660
ENDCHAR
STARTCHAR 00B7
ENCODING 183
SWIDTH 296 0
DWIDTH 8 0
BBX 4 4 2 8
BITMAP
F0
F0
F0
F0
ENDCHAR
STARTCHAR 00B8
ENCODING 184
SWIDTH 259 0
DWIDTH 7 0
BBX 7 6 1 -7
BITMAP
20
3C
0E
06
FE
FC
ENDCHAR
STARTCHAR 00B9
ENCODING 185
SWIDTH 296 0
DWIDTH 8 0
BBX 5 11 2 9
BITMAP
38
F8
F8
38
38
38
38
38
38
38
38
ENDCHAR
STARTCHAR 00BA
ENCODING 186
SWIDTH 444 0
DWIDTH 12 0
BBX 10 13 1 7
BITMAP
1E00
7F80
7380
E1C0
E1C0
E1C0
E1C0
6380
7F80
1E00
0000
0000
FFC0
ENDCHAR
STARTCHAR 00BB
ENCODING 187
SWIDTH 592 0
DWIDTH 16 0
BBX 13 11 2 2
BITMAP
E1C0
F1E0
70E0
78F0
78F0
3C78
78F0
78F0
71E0
F1E0
E1C0
ENDCHAR
STARTCHAR 00BC
ENCODING 188
SWIDTH 814 0
DWIDTH 22 0
BBX 19 20 2 0
BITMAP
380700
F80E00
B80E00
381C00
381C00
383800
383000
387000
38E000
38E3C0
39C3C0
01C7C0
038FC0
030DC0
071DC0
0E39C0
0E3FE0
1C3FE0
1C01C0
3801C0
ENDCHAR
STARTCHAR 00BD
ENCODING 189
SWIDTH 777 0
DWIDTH 21 0
BBX 19 20 1 0
BITMAP
380600
F80E00
B80C00
381C00
381800
383000
387000
386000
38E000
38C780
39CFE0
039CE0
0300E0
0701E0
0601C0
0E0380
1C0700
1C1E00
381FE0
301FE0
ENDCHAR
STARTCHAR 00BE
ENCODING 190
SWIDTH 814 0
DWIDTH 22 0
BBX 20 20 1 0
BITMAP
7C01C0
E60380
E70300
070700
1E0E00
1E0E00
071C00
E71800
E73800
7E31E0
1873E0
00E3E0
00C7E0
01C6E0
018CE0
039CE0
031FF0
071FF0
0E00E0
0C00E0
ENDCHAR
STARTCHAR 00BF
ENCODING 191
SWIDTH 555 0
DWIDTH 15 0
BBX 12 19 1 -5
BITMAP
0780
0780
0780
0000
0000
0700
0700
0700
0E00
1C00
3800
7000
F000
F000
F070
F070
7FF0
3FE0
0F80
ENDCHAR
STARTCHAR 00C0
ENCODING 192
SWIDTH 703 0
DWIDTH 19 0
BBX 19 28 0 0
BITMAP
070000
038000
018000
01C000
00C000
006000
000000
000000
01F000
01F000
01F800
03F800
03F800
03BC00
07BC00
079C00
0F1E00
0F1E00
0F1E00
1E0F00
1E0F00
1FFF80
3FFF80
3FFF80
3803C0
7803C0
7803C0
F001E0
ENDCHAR
STARTCHAR 00C1
ENCODING 193
SWIDTH 703 0
DWIDTH 19 0
BBX 19 28 0 0
BITMAP
001C00
003800
003800
007000
006000
00C000
000000
000000
01F000
01F000
01F800
03F800
03F800
03BC00
07BC00
079C00
0F1E00
0F1E00
0F1E00
1E0F00
1E0F00
1FFF80
3FFF80
3FFF80
3803C0
7803C0
7803C0
F001E0
ENDCHAR
STARTCHAR 00C2
ENCODING 194
SWIDTH 703 0
DWIDTH 19 0
BBX 19 28 0 0
BITMAP
00E000
01F000
01F000
03B800
031800
060C00
000000
000000
01F000
01F000
01F800
03F800
03F800
03BC00
07BC00
079C00
0F1E00
0F1E00
0F1E00
1E0F00
1E0F00
1FFF80
3FFF80
3FFF80
3803C0
7803C0
7803C0
F001E0
ENDCHAR
STARTCHAR 00C3
ENCODING 195
SWIDTH 703 0
DWIDTH 19 0
BBX 19 26 0 0
BITMAP
01CC00
03F800
067800
000000
000000
000000
01F000
01F000
01F800
03F800
03F800
03BC00
07BC00
079C00
0F1E00
0F1E00
0F1E00
1E0F00
1E0F00
1FFF80
3FFF80
3FFF80
3803C0
7803C0
7803C0
F001E0
ENDCHAR
STARTCHAR 00C4
ENCODING 196
SWIDTH 703 0
DWIDTH 19 0
BBX 19 26 0 0
BITMAP
071C00
071C00
071C00
000000
000000
000000
01F000
01F000
03F800
03F800
03F800
07BC00
07BC00
073C00
0F1E00
0F1E00
1E1F00
1E0F00
1E0F00
3FFF80
3FFF80
3FFF80
7803C0
7803C0
7003C0
F001E0
ENDCHAR
STARTCHAR 00C5
ENCODING 197
SWIDTH 703 0
DWIDTH 19 0
BBX 19 29 0 0
BITMAP
00E000
01F000
031800
031800
031800
01F000
00E000
000000
000000
01F000
01F000
03F000
03F800
03F800
07BC00
07BC00
073C00
0F1E00
0F1E00
1E1E00
1E0F00
1E0F00
3FFF80
3FFF80
3FFF80
7803C0
7803C0
F003C0
F001E0
ENDCHAR
STARTCHAR 00C6
ENCODING 198
SWIDTH 962 0
DWIDTH 26 0
BBX 25 20 0 0
BITMAP
003FFF80
003FFF80
007F0000
007F0000
00FF0000
01EF0000
01EF0000
03CF0000
03CFFF80
078FFF80
078FFF80
0F0F0000
0FFF0000
1FFF0000
1FFF0000
3C0F0000
380F0000
780FFF80
700FFF80
F00FFF80
ENDCHAR
STARTCHAR 00C7
ENCODING 199
SWIDTH 703 0
DWIDTH 19 0
BBX 17 27 1 -7
BITMAP
07F000
0FFC00
3FFE00
3C1F00
781F00
700F00
F00000
F00000
F00000
F00000
F00000
F00000
F00000
F00F80
700F00
781F00
3C3F00
3FFE00
0FFC00
03F000
008000
00E000
00F000
003000
003000
03F000
008000
ENDCHAR
STARTCHAR 00C8
ENCODING 200
SWIDTH 629 0
DWIDTH 17 0
BBX 13 28 2 0
BITMAP
3C00
1C00
0E00
0600
0700
0300
0000
0000
FFF8
FFF8
FFF8
F000
F000
F000
F000
F000
FFF8
FFF8
FFF8
F000
F000
F000
F000
F000
F000
FFF8
FFF8
FFF8
ENDCHAR
STARTCHAR 00C9
ENCODING 201
SWIDTH 629 0
DWIDTH 17 0
BBX 13 28 2 0
BITMAP
01E0
01C0
0380
0300
0600
0600
0000
0000
FFF8
FFF8
FFF8
F000
F000
F000
F000
F000
FFF8
FFF8
FFF8
F000
F000
F000
F000
F000
F000
FFF8
FFF8
FFF8
ENDCHAR
STARTCHAR 00CA
ENCODING 202
SWIDTH 629 0
DWIDTH 17 0
BBX 13 28 2 0
BITMAP
0F00
0F80
0D80
1DC0
18C0
3060
0000
0000
FFF8
FFF8
FFF8
F000
F000
F000
F000
F000
FFF8
FFF8
FFF8
F000
F000
F000
F000
F000
F000
FFF8
FFF8
FFF8
ENDCHAR
STARTCHAR 00CB
ENCODING 203
SWIDTH 629 0
DWIDTH 17 0
BBX 13 26 2 0
BITMAP
38E0
38E0
38E0
0000
0000
0000
FFF8
FFF8
FFF8
F000
F000
F000
F000
F000
FFF8
FFF8
FFF8
F000
F000
F000
F000
F000
F000
FFF8
FFF8
FFF8
ENDCHAR
STARTCHAR 00CC
ENCODING 204
SWIDTH 296 0
DWIDTH 8 0
BBX 7 28 -1 0
BITMAP
F0
70
38
18
1C
0C
00
00
1E
1E
1E
1E
1E
1E
1E
1E
1E
1E
1E
1E
1E
1E
1E
1E
1E
1E
1E
1E
ENDCHAR
STARTCHAR 00CD
ENCODING 205
SWIDTH 259 0
DWIDTH 7 0
BBX 6 28 2 0
BITMAP
1C
38
30
70
60
C0
00
00
F0
F0
F0
F0
F0
F0
F0
F0
F0
F0
F0
F0
F0
F0
F0
F0
F0
F0
F0
F0
ENDCHAR
STARTCHAR 00CE
ENCODING 206
SWIDTH 296 0
DWIDTH 8 0
BBX 8 28 0 0
BITMAP
3C
3C
7E
66
C6
C3
00
00
3C
3C
3C
3C
3C
3C
3C
3C
3C
3C
3C
3C
3C
3C
3C
3C
3C
3C
3C
3C
ENDCHAR
STARTCHAR 00CF
ENCODING 207
SWIDTH 333 0
DWIDTH 9 0
BBX 9 26 0 0
BITMAP
E380
E380
E380
0000
0000
0000
3C00
3C00
3C00
3C00
3C00
3C00
3C00
3C00
3C00
3C00
3C00
3C00
3C00
3C00
3C00
3C00
3C00
3C00
3C00
3C00
ENDCHAR
STARTCHAR 00D0
ENCODING 208
SWIDTH 703 0
DWIDTH 19 0
BBX 18 20 0 0
BITMAP
3FE000
3FFC00
3FFE00
3C1F00
3C0F80
3C0780
3C03C0
3C03C0
3C03C0
FFC3C0
FFC3C0
3C03C0
3C03C0
3C03C0
3C0780
3C0F80
3C1F00
3FFE00
3FFC00
3FE000
ENDCHAR
STARTCHAR 00D1
ENCODING 209
SWIDTH 777 0
DWIDTH 21 0
BBX 17 26 2 0
BITMAP
079800
07F800
0CF000
000000
000000
000000
FC0780
FC0780
FE0780
FE0780
FF0780
FF0780
F78780
F78780
F3C780
F3C780
F1E780
F1E780
F0F780
F0F780
F07F80
F07F80
F03F80
F03F80
F01F80
F01F80
ENDCHAR
STARTCHAR 00D2
ENCODING 210
SWIDTH 740 0
DWIDTH 20 0
BBX 18 28 1 0
BITMAP
0E0000
070000
038000
018000
00C000
000000
000000
000000
03F000
0FFC00
1FFE00
3E1F00
780780
780780
F003C0
F003C0
F003C0
F003C0
F003C0
F003C0
F003C0
F003C0
780780
780780
3E1F00
1FFE00
0FFC00
03F000
ENDCHAR
STARTCHAR 00D3
ENCODING 211
SWIDTH 740 0
DWIDTH 20 0
BBX 18 28 1 0
BITMAP
003C00
003800
007000
006000
00C000
000000
000000
000000
03F000
0FFC00
1FFE00
3E1F00
780780
780780
F003C0
F003C0
F003C0
F003C0
F003C0
F003C0
F003C0
F003C0
780780
780780
3E1F00
1FFE00
0FFC00
03F000
ENDCHAR
STARTCHAR 00D4
ENCODING 212
SWIDTH 740 0
DWIDTH 20 0
BBX 18 28 1 0
BITMAP
01E000
03F000
03F000
073800
061800
000000
000000
000000
03F000
0FFC00
1FFE00
3E1F00
780780
780780
F003C0
F003C0
F003C0
F003C0
F003C0
F003C0
F003C0
F003C0
780780
780780
3E1F00
1FFE00
0FFC00
03F000
ENDCHAR
STARTCHAR 00D5
ENCODING 213
SWIDTH 740 0
DWIDTH 20 0
BBX 18 27 1 0
BITMAP
000800
07F800
07F800
040000
000000
000000
000000
03F000
0FFC00
1FFE00
3E1F00
780780
780780
F003C0
F003C0
F003C0
F003C0
F003C0
F003C0
F003C0
F003C0
780780
780780
3E1F00
1FFE00
0FFC00
03F000
ENDCHAR
STARTCHAR 00D6
ENCODING 214
SWIDTH 740 0
DWIDTH 20 0
BBX 18 27 1 0
BITMAP
071C00
071C00
071C00
000000
000000
000000
000000
03F000
0FFC00
1FFE00
3E1F00
780780
780780
F003C0
F003C0
F003C0
F003C0
F003C0
F003C0
F003C0
F003C0
780780
780780
3E1F00
1FFE00
0FFC00
03F000
ENDCHAR
STARTCHAR 00D7
ENCODING 215
SWIDTH 1000 0
DWIDTH 27 0
BBX 15 14 6 2
BITMAP
C006
600C
3018
1830
0C60
06C0
0380
0380
06C0
0C60
1830
3018
600C
4004
ENDCHAR
STARTCHAR 00D8
ENCODING 216
SWIDTH 740 0
DWIDTH 20 0
BBX 20 22 0 -1
BITMAP
000020
01FC70
07FFE0
0FFFC0
1F0F80
3C03C0
3C07C0
780FE0
781DE0
7839E0
7871E0
78E1E0
79C1E0
7B81E0
7F01E0
3E03C0
3C03C0
1F0F80
3FFF00
7FFE00
E3F800
400000
ENDCHAR
STARTCHAR 00D9
ENCODING 217
SWIDTH 777 0
DWIDTH 21 0
BBX 17 28 2 0
BITMAP
1E0000
0E0000
070000
038000
018000
000000
000000
000000
F00780
F00780
F00780
F00780
F00780
F00780
F00780
F00780
F00780
F00780
F00780
F00780
F00780
F00700
F00F00
780F00
7C1E00
3FFE00
1FF800
07E000
ENDCHAR
STARTCHAR 00DA
ENCODING 218
SWIDTH 777 0
DWIDTH 21 0
BBX 17 28 2 0
BITMAP
003C00
007800
007000
00E000
01C000
000000
000000
000000
F00780
F00780
F00780
F00780
F00780
F00780
F00780
F00780
F00780
F00780
F00780
F00780
F00780
F00700
F00F00
780F00
7C1E00
3FFE00
1FF800
07E000
ENDCHAR
STARTCHAR 00DB
ENCODING 219
SWIDTH 777 0
DWIDTH 21 0
BBX 17 28 2 0
BITMAP
03C000
03E000
07E000
0E7000
0C3800
000000
000000
000000
F00780
F00780
F00780
F00780
F00780
F00780
F00780
F00780
F00780
F00780
F00780
F00780
F00780
F00700
F00F00
780F00
7C1E00
3FFE00
1FF800
07E000
ENDCHAR
STARTCHAR 00DC
ENCODING 220
SWIDTH 740 0
DWIDTH 20 0
BBX 17 27 2 0
BITMAP
0E3800
0E3800
0E3800
000000
000000
000000
000000
F00780
F00780
F00780
F00780
F00780
F00780
F00780
F00780
F00780
F00780
F00780
F00780
F00780
F00700
F00F00
780F00
7C1E00
3FFE00
1FF800
07E000
ENDCHAR
STARTCHAR 00DD
ENCODING 221
SWIDTH 629 0
DWIDTH 17 0
BBX 16 27 1 0
BITMAP
0070
00E0
00C0
0180
0000
0000
0000
F01F
F81E
781E
7C3C
3C3C
3C78
1E78
1EF0
0FF0
0FE0
07E0
03C0
03C0
03C0
03C0
03C0
03C0
03C0
03C0
03C0
ENDCHAR
STARTCHAR 00DE
ENCODING 222
SWIDTH 629 0
DWIDTH 17 0
BBX 14 20 1 0
BITMAP
F000
F000
F000
F000
FFC0
FFF0
FFF8
F07C
F03C
F03C
F03C
F07C
FFF8
FFF0
FFC0
F000
F000
F000
F000
F000
ENDCHAR
STARTCHAR 00DF
ENCODING 223
SWIDTH 592 0
DWIDTH 16 0
BBX 14 20 1 0
BITMAP
1F80
7FE0
79F0
F0F0
F0F0
F0F0
F1E0
F3C0
F780
F780
F780
F3E0
F1F0
F0F8
F03C
F03C
FF3C
FFBC
F7F8
F3F0
ENDCHAR
STARTCHAR 00E0
ENCODING 224
SWIDTH 555 0
DWIDTH 15 0
BBX 12 22 1 0
BITMAP
7800
3800
1C00
0C00
0600
0200
0000
0000
1F80
3FE0
79F0
70F0
00F0
3FF0
7FF0
F8F0
F0F0
F0F0
F0F0
FBF0
7F70
3E70
ENDCHAR
STARTCHAR 00E1
ENCODING 225
SWIDTH 555 0
DWIDTH 15 0
BBX 12 22 1 0
BITMAP
01E0
01C0
0380
0300
0700
0600
0000
0000
1F80
3FE0
79F0
70F0
00F0
1FF0
7FF0
78F0
F0F0
F0F0
F0F0
FBF0
7F70
3E70
ENDCHAR
STARTCHAR 00E2
ENCODING 226
SWIDTH 555 0
DWIDTH 15 0
BBX 12 22 1 0
BITMAP
0F00
0F80
1F80
19C0
38C0
3060
0000
0000
1F80
3FE0
79F0
70F0
00F0
3FF0
7FF0
F8F0
F0F0
F0F0
F0F0
FBF0
7F70
3E70
ENDCHAR
STARTCHAR 00E3
ENCODING 227
SWIDTH 555 0
DWIDTH 15 0
BBX 12 20 1 0
BITMAP
1FC0
3FC0
3000
0000
0000
0000
1F80
3FE0
79F0
70F0
00F0
3FF0
7FF0
F8F0
F0F0
F0F0
F0F0
FBF0
7F70
3E70
ENDCHAR
STARTCHAR 00E4
ENCODING 228
SWIDTH 555 0
DWIDTH 15 0
BBX 12 21 1 0
BITMAP
38E0
38E0
38E0
0000
0000
0000
0000
1F80
3FE0
79F0
70F0
00F0
3FF0
7FF0
F8F0
F0F0
F0F0
F0F0
FBF0
7F70
3E70
ENDCHAR
STARTCHAR 00E5
ENCODING 229
SWIDTH 555 0
DWIDTH 15 0
BBX 12 23 1 0
BITMAP
0700
1F80
18C0
18C0
1F80
0F00
0000
0000
0000
1F80
3FE0
79F0
70F0
00F0
3FF0
7FF0
F8F0
F0F0
F0F0
F0F0
FBF0
7F70
3E70
ENDCHAR
STARTCHAR 00E6
ENCODING 230
SWIDTH 888 0
DWIDTH 24 0
BBX 22 14 1 0
BITMAP
0F87C0
3FCFF0
7CFCF8
707838
007838
1FFFFC
7FFFFC
787800
F07800
F07800
F0FC38
F9DEF8
7F8FF0
1E07E0
ENDCHAR
STARTCHAR 00E7
ENCODING 231
SWIDTH 518 0
DWIDTH 14 0
BBX 12 21 1 -7
BITMAP
1F80
3FE0
79E0
70E0
F0F0
F000
F000
F000
F000
F0F0
F0E0
79E0
3FC0
1F80
0400
0700
0780
00C0
00C0
1F80
0400
ENDCHAR
STARTCHAR 00E8
ENCODING 232
SWIDTH 555 0
DWIDTH 15 0
BBX 13 22 1 0
BITMAP
3800
3800
1C00
0C00
0600
0200
0000
0000
0F80
3FE0
79F0
70F0
F0F0
FFF0
FFF8
F000
F000
F0F0
70F0
79F0
3FE0
1F80
ENDCHAR
STARTCHAR 00E9
ENCODING 233
SWIDTH 555 0
DWIDTH 15 0
BBX 13 22 1 0
BITMAP
01E0
01C0
0380
0300
0600
0600
0000
0000
0F80
3FE0
79F0
70F0
F0F0
FFF0
FFF8
F000
F000
F0F0
70F0
79F0
3FE0
1F80
ENDCHAR
STARTCHAR 00EA
ENCODING 234
SWIDTH 555 0
DWIDTH 15 0
BBX 13 22 1 0
BITMAP
0F00
0F00
1F80
1980
38C0
30C0
0000
0000
0F80
3FE0
79F0
70F0
F0F0
FFF0
FFF8
F000
F000
F0F0
70F0
79F0
3FE0
1F80
ENDCHAR
STARTCHAR 00EB
ENCODING 235
SWIDTH 555 0
DWIDTH 15 0
BBX 13 21 1 0
BITMAP
38E0
38E0
38E0
0000
0000
0000
0000
0F80
3FE0
79F0
7070
F070
FFF0
FFF8
F000
F000
F070
7070
7DF0
3FE0
1F80
ENDCHAR
STARTCHAR 00EC
ENCODING 236
SWIDTH 259 0
DWIDTH 7 0
BBX 6 22 0 0
BITMAP
E0
F0
70
38
18
0C
00
00
3C
3C
3C
3C
3C
3C
3C
3C
3C
3C
3C
3C
3C
3C
ENDCHAR
STARTCHAR 00ED
ENCODING 237
SWIDTH 222 0
DWIDTH 6 0
BBX 6 22 2 0
BITMAP
3C
38
70
60
C0
C0
00
00
F0
F0
F0
F0
F0
F0
F0
F0
F0
F0
F0
F0
F0
F0
ENDCHAR
STARTCHAR 00EE
ENCODING 238
SWIDTH 259 0
DWIDTH 7 0
BBX 9 22 -1 0
BITMAP
1E00
3E00
3F00
7300
6380
C180
0000
0000
1E00
1E00
1E00
1E00
1E00
1E00
1E00
1E00
1E00
1E00
1E00
1E00
1E00
1E00
ENDCHAR
STARTCHAR 00EF
ENCODING 239
SWIDTH 259 0
DWIDTH 7 0
BBX 9 20 -1 0
BITMAP
E380
E380
E380
0000
0000
0000
3C00
3C00
3C00
3C00
3C00
3C00
3C00
3C00
3C00
3C00
3C00
3C00
3C00
3C00
ENDCHAR
STARTCHAR 00F0
ENCODING 240
SWIDTH 592 0
DWIDTH 16 0
BBX 14 20 1 0
BITMAP
0E18
0FF0
03C0
0FC0
3CE0
30F0
0FF0
3FF8
7CF8
783C
F03C
F03C
F03C
F03C
F03C
F03C
7838
7CF8
3FF0
0FC0
ENDCHAR
STARTCHAR 00F1
ENCODING 241
SWIDTH 592 0
DWIDTH 16 0
BBX 13 20 2 0
BITMAP
1E60
3FC0
3780
0000
0000
0000
F7C0
FFF0
FDF0
F078
F078
F078
F078
F078
F078
F078
F078
F078
F078
F078
ENDCHAR
STARTCHAR 00F2
ENCODING 242
SWIDTH 592 0
DWIDTH 16 0
BBX 14 22 1 0
BITMAP
3C00
1C00
0E00
0600
0300
0300
0000
0000
0FC0
3FE0
7CF0
7878
F03C
F03C
F03C
F03C
F03C
F03C
7878
7CF8
3FF0
0FC0
ENDCHAR
STARTCHAR 00F3
ENCODING 243
SWIDTH 592 0
DWIDTH 16 0
BBX 14 22 1 0
BITMAP
00F0
00E0
01C0
0180
0300
0300
0000
0000
0FC0
3FE0
7CF0
7878
F03C
F03C
F03C
F03C
F03C
F03C
7878
7CF8
3FF0
0FC0
ENDCHAR
STARTCHAR 00F4
ENCODING 244
SWIDTH 592 0
DWIDTH 16 0
BBX 14 22 1 0
BITMAP
0780
0780
0FC0
0CC0
1860
1860
0000
0000
0FC0
3FE0
7CF0
7878
F03C
F03C
F03C
F03C
F03C
F03C
7878
7CF8
3FF0
0FC0
ENDCHAR
STARTCHAR 00F5
ENCODING 245
SWIDTH 592 0
DWIDTH 16 0
BBX 14 20 1 0
BITMAP
0FE0
1FE0
1800
0000
0000
0000
0FC0
3FE0
7CF0
7878
F03C
F03C
F03C
F03C
F03C
F03C
7878
7CF8
3FF0
0FC0
ENDCHAR
STARTCHAR 00F6
ENCODING 246
SWIDTH 592 0
DWIDTH 16 0
BBX 14 21 1 0
BITMAP
1CE0
1CE0
1CE0
0000
0000
0000
0000
0FC0
3FE0
7CF0
7878
F03C
F03C
F03C
F03C
F03C
F03C
7878
7CF8
3FF0
0FC0
ENDCHAR
STARTCHAR 00F7
ENCODING 247
SWIDTH 962 0
DWIDTH 26 0
BBX 16 12 5 2
BITMAP
01C0
03C0
01C0
0000
0000
FFFF
FFFF
0000
0000
01C0
03C0
01C0
ENDCHAR
STARTCHAR 00F8
ENCODING 248
SWIDTH 592 0
DWIDTH 16 0
BBX 14 18 1 -2
BITMAP
0008
001C
0FF8
3FF0
7CF0
78F8
F1FC
F1BC
F33C
F63C
FE3C
FC3C
7878
3CF8
7FF0
EFC0
C000
8000
ENDCHAR
STARTCHAR 00F9
ENCODING 249
SWIDTH 592 0
DWIDTH 16 0
BBX 13 22 2 0
BITMAP
3800
3C00
1C00
0E00
0600
0300
0000
0000
F078
F078
F078
F078
F078
F078
F078
F078
F078
F078
F0F8
F9F8
7FF8
3E78
ENDCHAR
STARTCHAR 00FA
ENCODING 250
SWIDTH 592 0
DWIDTH 16 0
BBX 13 22 2 0
BITMAP
01E0
01C0
0380
0300
0700
0600
0000
0000
F078
F078
F078
F078
F078
F078
F078
F078
F078
F078
F0F8
F9F8
7FF8
3E78
ENDCHAR
STARTCHAR 00FB
ENCODING 251
SWIDTH 592 0
DWIDTH 16 0
BBX 13 22 2 0
BITMAP
0F00
0F80
1F80
1DC0
38C0
3060
0000
0000
F078
F078
F078
F078
F078
F078
F078
F078
F078
F078
F0F8
F9F8
7FF8
3E78
ENDCHAR
STARTCHAR 00FC
ENCODING 252
SWIDTH 592 0
DWIDTH 16 0
BBX 13 21 2 0
BITMAP
38E0
38E0
38E0
0000
0000
0000
0000
F078
F078
F078
F078
F078
F078
F078
F078
F078
F078
F0F8
F9F8
7FF8
3E78
ENDCHAR
STARTCHAR 00FD
ENCODING 253
SWIDTH 555 0
DWIDTH 15 0
BBX 14 27 0 -5
BITMAP
0070
00F0
00E0
00C0
0180
0000
0000
0000
781C
783C
3C3C
3C38
3C78
1E78
1E70
0EF0
0FF0
0FE0
07E0
07E0
03C0
03C0
0380
2780
FF80
7F00
3E00
ENDCHAR
STARTCHAR 00FE
ENCODING 254
SWIDTH 629 0
DWIDTH 17 0
BBX 14 25 2 -5
BITMAP
F000
F000
F000
F000
F000
F000
F7C0
FFF0
FDF0
F878
F038
F03C
F03C
F03C
F03C
F078
F078
FDF0
FFF0
F7C0
F000
F000
F000
F000
F000
ENDCHAR
STARTCHAR 00FF
ENCODING 255
SWIDTH 555 0
DWIDTH 15 0
BBX 15 26 0 -5
BITMAP
1C70
1C70
1C70
0000
0000
0000
0000
F81E
783C
783C
3C38
3C78
3C78
1E70
1EF0
0FF0
0FE0
0FE0
07E0
07C0
03C0
0780
0780
0780
0F00
0F00
ENDCHAR
STARTCHAR 0131
ENCODING 305
SWIDTH 259 0
DWIDTH 7 0
BBX 4 14 2 0
BITMAP
F0
F0
F0
F0
F0
F0
F0
F0
F0
F0
F0
F0
F0
F0
ENDCHAR
STARTCHAR 0141
ENCODING 321
SWIDTH 629 0
DWIDTH 17 0
BBX 15 20 1 0
BITMAP
3C00
3C00
3C00
3C80
3D80
3F80
3F00
3E00
3C00
3C00
7C00
FC00
FC00
FC00
BC00
3C00
3C00
3FFE
3FFE
3FFE
ENDCHAR
STARTCHAR 0142
ENCODING 322
SWIDTH 370 0
DWIDTH 10 0
BBX 8 20 1 0
BITMAP
3C
3C
3C
3C
3D
3F
3F
3F
3E
7C
FC
FC
FC
BC
3C
3C
3C
3C
3C
3C
ENDCHAR
STARTCHAR 0152
ENCODING 338
SWIDTH 1000 0
DWIDTH 27 0
BBX 25 20 1 0
BITMAP
03FFFF80
0FFFFF80
1FFFFF80
3E1E0000
781E0000
781E0000
F01E0000
F01E0000
F01FFF00
F01FFF00
F01FFF00
F01E0000
F01E0000
F01E0000
781E0000
781E0000
3E1E0000
1FFFFF80
0FFFFF80
03FFFF80
ENDCHAR
STARTCHAR 0153
ENCODING 339
SWIDTH 888 0
DWIDTH 24 0
BBX 22 14 1 0
BITMAP
0FC7E0
1FEFF0
7CFE78
787C38
F03C3C
F03FFC
F03FFC
F03C00
F03C00
F03C3C
787C3C
7CFE78
3FEFF8
0FC7E0
ENDCHAR
STARTCHAR 0160
ENCODING 352
SWIDTH 666 0
DWIDTH 18 0
BBX 16 28 1 0
BITMAP
1C30
0E70
0EE0
07E0
03C0
0000
0000
0000
07E0
1FF8
3FFC
3C3C
781E
7800
7800
7C00
3F80
1FF0
0FFC
00FE
001E
F00F
F00F
F00E
783E
7FFC
1FF8
07E0
ENDCHAR
STARTCHAR 0161
ENCODING 353
SWIDTH 518 0
DWIDTH 14 0
BBX 12 22 1 0
BITMAP
30C0
3180
1B80
1F00
0F00
0000
0000
0000
1F80
7FC0
7BE0
F1E0
F000
7E00
7FC0
1FE0
01F0
F0F0
F0F0
F9E0
7FC0
1F80
ENDCHAR
STARTCHAR 0178
ENCODING 376
SWIDTH 666 0
DWIDTH 18 0
BBX 17 26 1 0
BITMAP
0E3800
0E3800
0E3800
000000
000000
000000
F00F80
780F00
781F00
3C1E00
3E3E00
1E3C00
1F7800
0F7800
0FF000
07F000
07E000
03E000
03C000
03C000
03C000
03C000
03C000
03C000
03C000
03C000
ENDCHAR
STARTCHAR 017D
ENCODING 381
SWIDTH 629 0
DWIDTH 17 0
BBX 15 28 1 0
BITMAP
1830
0C70
0E60
07E0
07C0
03C0
0000
0000
7FFE
7FFE
7FFE
003E
007C
00F8
00F8
01F0
03E0
07E0
07C0
0F80
1F00
3F00
3E00
7C00
F800
FFFE
FFFE
FFFE
ENDCHAR
STARTCHAR 017E
ENCODING 382
SWIDTH 481 0
DWIDTH 13 0
BBX 11 22 1 0
BITMAP
60C0
31C0
3B80
1F80
1F00
0F00
0000
0000
FFE0
FFE0
01E0
03E0
07C0
0780
0F00
1E00
3C00
7C00
F800
F000
FFE0
FFE0
ENDCHAR
STARTCHAR 0192
ENCODING 402
SWIDTH 518 0
DWIDTH 14 0
BBX 17 25 -2 -5
BITMAP
000F80
001F80
003D00
007800
007000
007000
03FE00
07FE00
00E000
00E000
01E000
01C000
01C000
03C000
038000
038000
038000
078000
070000
070000
0F0000
0E0000
9E0000
FC0000
F80000
ENDCHAR
STARTCHAR 02C6
ENCODING 710
SWIDTH 333 0
DWIDTH 9 0
BBX 8 5 0 16
BITMAP
3C
3E
76
63
C3
ENDCHAR
STARTCHAR 02C7
ENCODING 711
SWIDTH 333 0
DWIDTH 9 0
BBX 8 5 0 16
BITMAP
C3
63
76
3E
3C
ENDCHAR
STARTCHAR 02D8
ENCODING 728
SWIDTH 333 0
DWIDTH 9 0
BBX 9 4 0 16
BITMAP
C180
7380
7F00
3E00
ENDCHAR
STARTCHAR 02D9
ENCODING 729
SWIDTH 148 0
DWIDTH 4 0
BBX 4 4 0 16
BITMAP
F0
F0
F0
F0
ENDCHAR
STARTCHAR 02DA
ENCODING 730
SWIDTH 259 0
DWIDTH 7 0
BBX 7 7 0 16
BITMAP
38
7C
C6
C6
C6
7C
38
ENDCHAR
STARTCHAR 02DB
ENCODING 731
SWIDTH 222 0
DWIDTH 6 0
BBX 5 6 0 -6
BITMAP
20
40
C0
E0
F8
78
ENDCHAR
STARTCHAR 02DC
ENCODING 732
SWIDTH 333 0
DWIDTH 9 0
BBX 9 3 0 17
BITMAP
7980
7F00
DE00
ENDCHAR
STARTCHAR 02DD
ENCODING 733
SWIDTH 333 0
DWIDTH 9 0
BBX 8 5 0 16
BITMAP
73
67
66
C4
CC
ENDCHAR
STARTCHAR 0394
ENCODING 916
SWIDTH 629 0
DWIDTH 17 0
BBX 17 19 0 1
BITMAP
004000
00C000
00E000
01E000
01E000
037000
027000
067800
043800
0C3800
081C00
081C00
101E00
100E00
300E00
200700
600700
7FFF80
FFFF80
ENDCHAR
STARTCHAR 03A9
ENCODING 937
SWIDTH 777 0
DWIDTH 21 0
BBX 19 20 1 0
BITMAP
03F800
0E0E00
380700
300380
700380
F001C0
E001C0
E001C0
E001C0
E001C0
E001C0
F001C0
700380
380380
180700
0E1C00
021020
FE1FE0
FE1FE0
FF1FE0
ENDCHAR
STARTCHAR 03BC
ENCODING 956
SWIDTH 666 0
DWIDTH 18 0
BBX 16 19 2 -5
BITMAP
F078
F078
F078
F078
F078
F078
F078
F078
F078
F078
F078
F0F8
FFFF
FFBF
FF1E
F000
F000
F000
F000
ENDCHAR
STARTCHAR 03C0
ENCODING 960
SWIDTH 592 0
DWIDTH 16 0
BBX 15 15 0 -1
BITMAP
1FFE
7FFE
6C20
8C60
0C60
0C60
0C60
0C60
0C60
0C60
1860
1862
387E
383C
3038
ENDCHAR
STARTCHAR 2013
ENCODING 8211
SWIDTH 518 0
DWIDTH 14 0
BBX 14 3 0 5
BITMAP
FFFC
FFFC
FFFC
ENDCHAR
STARTCHAR 2014
ENCODING 8212
SWIDTH 1000 0
DWIDTH 27 0
BBX 27 3 0 5
BITMAP
FFFFFFE0
FFFFFFE0
FFFFFFE0
ENDCHAR
STARTCHAR 2018
ENCODING 8216
SWIDTH 259 0
DWIDTH 7 0
BBX 5 7 1 13
BITMAP
18
38
38
78
70
70
F0
ENDCHAR
STARTCHAR 2019
ENCODING 8217
SWIDTH 259 0
DWIDTH 7 0
BBX 5 7 1 13
BITMAP
38
38
70
70
70
E0
E0
ENDCHAR
STARTCHAR 201A
ENCODING 8218
SWIDTH 296 0
DWIDTH 8 0
BBX 5 7 1 -4
BITMAP
38
38
78
70
70
E0
E0
ENDCHAR
STARTCHAR 201C
ENCODING 8220
SWIDTH 481 0
DWIDTH 13 0
BBX 11 7 1 13
BITMAP
18E0
38E0
39C0
79C0
73C0
7380
F380
ENDCHAR
STARTCHAR 201D
ENCODING 8221
SWIDTH 481 0
DWIDTH 13 0
BBX 11 7 1 13
BITMAP
39E0
39C0
71C0
7380
7380
E380
E700
ENDCHAR
STARTCHAR 201E
ENCODING 8222
SWIDTH 481 0
DWIDTH 13 0
BBX 11 7 1 -4
BITMAP
39E0
39C0
79C0
7380
7380
E380
E700
ENDCHAR
STARTCHAR 2020
ENCODING 8224
SWIDTH 555 0
DWIDTH 15 0
BBX 13 24 1 -4
BITMAP
0F00
0F00
0F00
0F00
0F00
0F00
FFF8
FFF8
0F00
0F00
0F00
0F00
0F00
0F00
0F00
0F00
0F00
0F00
0F00
0F00
0F00
0F00
0F00
0F00
ENDCHAR
STARTCHAR 2021
ENCODING 8225
SWIDTH 518 0
DWIDTH 14 0
BBX 12 24 1 -4
BITMAP
0F00
0F00
0F00
0F00
0F00
0F00
FFF0
FFF0
0F00
0F00
0F00
0F00
0F00
0F00
0F00
0F00
FFF0
FFF0
0F00
0F00
0F00
0F00
0F00
0F00
ENDCHAR
STARTCHAR 2022
ENCODING 8226
SWIDTH 296 0
DWIDTH 8 0
BBX 6 6 1 6
BITMAP
78
FC
FC
FC
FC
78
ENDCHAR
STARTCHAR 2026
ENCODING 8230
SWIDTH 1000 0
DWIDTH 27 0
BBX 24 4 1 0
BITMAP
F03C07
F03C07
F03C07
F03C07
ENDCHAR
STARTCHAR 2030
ENCODING 8240
SWIDTH 1444 0
DWIDTH 39 0
BBX 37 20 1 0
BITMAP
1F00600000
3F80E00000
7BC0C00000
E1C1C00000
E0E3800000
E0E3000000
E0E7000000
E0E6000000
71CE000000
7FCC7C07C0
3F1CFE0FE0
0039C71C70
003B833838
007383B838
006383B838
00E383B838
01C387B838
01C1EF1EF0
0380FE0FE0
03807C07C0
ENDCHAR
STARTCHAR 2039
ENCODING 8249
SWIDTH 370 0
DWIDTH 10 0
BBX 6 11 2 2
BITMAP
3C
3C
78
78
F0
F0
F0
78
78
3C
3C
ENDCHAR
STARTCHAR 203A
ENCODING 8250
SWIDTH 370 0
DWIDTH 10 0
BBX 6 11 2 2
BITMAP
F0
F0
78
78
3C
3C
3C
78
78
F0
F0
ENDCHAR
STARTCHAR 2044
ENCODING 8260
SWIDTH 592 0
DWIDTH 16 0
BBX 14 20 1 0
BITMAP
001C
0038
0030
0070
0060
00E0
01C0
01C0
0380
0300
0700
0600
0E00
1C00
1C00
3800
3000
7000
6000
E000
ENDCHAR
STARTCHAR 2122
ENCODING 8482
SWIDTH 629 0
DWIDTH 17 0
BBX 15 7 1 12
BITMAP
FDC6
314E
314A
316A
313A
3132
3132
ENDCHAR
STARTCHAR 2202
ENCODING 8706
SWIDTH 518 0
DWIDTH 14 0
BBX 12 22 1 -1
BITMAP
3E00
6180
00C0
0040
0060
0020
0030
0030
0030
0030
1F30
38B0
7070
E070
E070
C060
C060
C0E0
C0C0
61C0
6380
1E00
ENDCHAR
STARTCHAR 220F
ENCODING 8719
SWIDTH 851 0
DWIDTH 23 0
BBX 22 24 1 -3
BITMAP
FFFFFC
3FFFF0
1C00E0
1C00E0
1C00E0
1C00E0
1C00E0
1C00E0
1C00E0
1C00E0
1C00E0
1C00E0
1C00E0
1C00E0
1C00E0
1C00E0
1C00E0
1C00E0
1C00E0
1C00E0
1C00E0
1C00E0
3C00F0
FF87FC
ENDCHAR
STARTCHAR 2211
ENCODING 8721
SWIDTH 740 0
DWIDTH 20 0
BBX 18 24 1 -3
BITMAP
FFFF00
700F00
780180
3C0080
1E0080
0E0000
0F0000
078000
03C000
01C000
01E000
00F000
006000
00C000
008000
010000
020000
060000
0C0040
180040
3000C0
7FFFC0
7FFF80
FFFF80
ENDCHAR
STARTCHAR 2212
ENCODING 8722
SWIDTH 1000 0
DWIDTH 27 0
BBX 16 2 5 7
BITMAP
FFFF
FFFF
ENDCHAR
STARTCHAR 221A
ENCODING 8730
SWIDTH 592 0
DWIDTH 16 0
BBX 15 19 1 0
BITMAP
000E
0008
0008
0018
0010
0010
2010
E020
3020
1820
1820
0C40
0C40
0640
06C0
0380
0380
0180
0100
ENDCHAR
STARTCHAR 221E
ENCODING 8734
SWIDTH 1000 0
DWIDTH 27 0
BBX 17 8 5 4
BITMAP
380E00
EE3B00
C36180
81C080
81C080
836080
C63180
381E00
ENDCHAR
STARTCHAR 222B
ENCODING 8747
SWIDTH 481 0
DWIDTH 13 0
BBX 10 25 1 -5
BITMAP
01C0
03C0
04C0
0400
0400
0400
0C00
0C00
0C00
0C00
0C00
0C00
0C00
0C00
0C00
0C00
0C00
0C00
0C00
0C00
0C00
0800
C800
F000
E000
ENDCHAR
STARTCHAR 2248
ENCODING 8776
SWIDTH 1000 0
DWIDTH 27 0
BBX 17 9 5 4
BITMAP
000080
3F8180
E3FF00
807E00
000000
1C0080
7FC180
C1FF00
801800
ENDCHAR
STARTCHAR 2260
ENCODING 8800
SWIDTH 1000 0
DWIDTH 27 0
BBX 16 13 5 2
BITMAP
0004
000C
0018
FFFF
FFFF
00C0
0180
0300
FFFF
FFFF
1800
3000
2000
ENDCHAR
STARTCHAR 2264
ENCODING 8804
SWIDTH 1000 0
DWIDTH 27 0
BBX 16 15 5 0
BITMAP
0003
001F
00F8
07C0
3C00
E000
F000
3E00
03E0
007C
000F
0001
0000
0000
FFFF
ENDCHAR
STARTCHAR 2265
ENCODING 8805
SWIDTH 1000 0
DWIDTH 27 0
BBX 16 15 5 0
BITMAP
C000
F800
1F00
03E0
003E
0007
000F
007C
03E0
3E00
F000
8000
0000
0000
FFFF
ENDCHAR
STARTCHAR 25CA
ENCODING 9674
SWIDTH 518 0
DWIDTH 14 0
BBX 13 21 1 0
BITMAP
0600
0700
0D00
0980
1880
10C0
3040
6060
6030
C030
C018
4030
6020
2060
3040
10C0
1880
0980
0D00
0700
0600
ENDCHAR
STARTCHAR FB01
ENCODING 64257
SWIDTH 666 0
DWIDTH 18 0
BBX 15 20 1 0
BITMAP
0F9E
1F9E
3E9E
3C1E
3C00
3C00
FF9E
FF9E
3C1E
3C1E
3C1E
3C1E
3C1E
3C1E
3C1E
3C1E
3C1E
3C1E
3C1E
3C1E
ENDCHAR
STARTCHAR FB02
ENCODING 64258
SWIDTH 666 0
DWIDTH 18 0
BBX 15 20 1 0
BITMAP
0F9E
1F9E
3E9E
3C1E
3C1E
3C1E
FF9E
FF9E
3C1E
3C1E
3C1E
3C1E
3C1E
3C1E
3C1E
3C1E
3C1E
3C1E
3C1E
3C1E
ENDCHAR
ENDFONT
